<svg width="100" height="99" viewBox="0 0 100 99" fill="none" xmlns="http://www.w3.org/2000/svg">
<path d="M43.3023 83.8831C42.9754 83.6779 42.5312 83.574 41.9822 83.574H39.7079L39.0193 86.1531H41.4482C42.1785 86.1531 42.7578 86.0137 43.1691 85.7401C43.5591 85.4799 43.7483 85.1326 43.7483 84.6761C43.7483 84.3307 43.6026 84.0713 43.3023 83.8831ZM43.9198 80.399C43.6542 80.2142 43.2686 80.121 42.7737 80.121H40.638L39.961 82.6361H41.9928C42.7018 82.6361 43.273 82.4905 43.6906 82.2036C44.0895 81.9292 44.2831 81.5846 44.2831 81.1485C44.2831 80.8137 44.1641 80.5686 43.9198 80.399ZM43.9198 80.399C43.6542 80.2142 43.2686 80.121 42.7737 80.121H40.638L39.961 82.6361H41.9928C42.7018 82.6361 43.273 82.4905 43.6906 82.2036C44.0895 81.9292 44.2831 81.5846 44.2831 81.1485C44.2831 80.8137 44.1641 80.5686 43.9198 80.399ZM43.3023 83.8831C42.9754 83.6779 42.5312 83.574 41.9822 83.574H39.7079L39.0193 86.1531H41.4482C42.1785 86.1531 42.7578 86.0137 43.1691 85.7401C43.5591 85.4799 43.7483 85.1326 43.7483 84.6761C43.7483 84.3307 43.6026 84.0713 43.3023 83.8831ZM43.3023 83.8831C42.9754 83.6779 42.5312 83.574 41.9822 83.574H39.7079L39.0193 86.1531H41.4482C42.1785 86.1531 42.7578 86.0137 43.1691 85.7401C43.5591 85.4799 43.7483 85.1326 43.7483 84.6761C43.7483 84.3307 43.6026 84.0713 43.3023 83.8831ZM43.9198 80.399C43.6542 80.2142 43.2686 80.121 42.7737 80.121H40.638L39.961 82.6361H41.9928C42.7018 82.6361 43.273 82.4905 43.6906 82.2036C44.0895 81.9292 44.2831 81.5846 44.2831 81.1485C44.2831 80.8137 44.1641 80.5686 43.9198 80.399ZM43.9198 80.399C43.6542 80.2142 43.2686 80.121 42.7737 80.121H40.638L39.961 82.6361H41.9928C42.7018 82.6361 43.273 82.4905 43.6906 82.2036C44.0895 81.9292 44.2831 81.5846 44.2831 81.1485C44.2831 80.8137 44.1641 80.5686 43.9198 80.399ZM43.3023 83.8831C42.9754 83.6779 42.5312 83.574 41.9822 83.574H39.7079L39.0193 86.1531H41.4482C42.1785 86.1531 42.7578 86.0137 43.1691 85.7401C43.5591 85.4799 43.7483 85.1326 43.7483 84.6761C43.7483 84.3307 43.6026 84.0713 43.3023 83.8831ZM43.3023 83.8831C42.9754 83.6779 42.5312 83.574 41.9822 83.574H39.7079L39.0193 86.1531H41.4482C42.1785 86.1531 42.7578 86.0137 43.1691 85.7401C43.5591 85.4799 43.7483 85.1326 43.7483 84.6761C43.7483 84.3307 43.6026 84.0713 43.3023 83.8831ZM43.9198 80.399C43.6542 80.2142 43.2686 80.121 42.7737 80.121H40.638L39.961 82.6361H41.9928C42.7018 82.6361 43.273 82.4905 43.6906 82.2036C44.0895 81.9292 44.2831 81.5846 44.2831 81.1485C44.2831 80.8137 44.1641 80.5686 43.9198 80.399ZM43.9198 80.399C43.6542 80.2142 43.2686 80.121 42.7737 80.121H40.638L39.961 82.6361H41.9928C42.7018 82.6361 43.273 82.4905 43.6906 82.2036C44.0895 81.9292 44.2831 81.5846 44.2831 81.1485C44.2831 80.8137 44.1641 80.5686 43.9198 80.399ZM43.3023 83.8831C42.9754 83.6779 42.5312 83.574 41.9822 83.574H39.7079L39.0193 86.1531H41.4482C42.1785 86.1531 42.7578 86.0137 43.1691 85.7401C43.5591 85.4799 43.7483 85.1326 43.7483 84.6761C43.7483 84.3307 43.6026 84.0713 43.3023 83.8831ZM43.3023 83.8831C42.9754 83.6779 42.5312 83.574 41.9822 83.574H39.7079L39.0193 86.1531H41.4482C42.1785 86.1531 42.7578 86.0137 43.1691 85.7401C43.5591 85.4799 43.7483 85.1326 43.7483 84.6761C43.7483 84.3307 43.6026 84.0713 43.3023 83.8831ZM43.9198 80.399C43.6542 80.2142 43.2686 80.121 42.7737 80.121H40.638L39.961 82.6361H41.9928C42.7018 82.6361 43.273 82.4905 43.6906 82.2036C44.0895 81.9292 44.2831 81.5846 44.2831 81.1485C44.2831 80.8137 44.1641 80.5686 43.9198 80.399ZM43.9198 80.399C43.6542 80.2142 43.2686 80.121 42.7737 80.121H40.638L39.961 82.6361H41.9928C42.7018 82.6361 43.273 82.4905 43.6906 82.2036C44.0895 81.9292 44.2831 81.5846 44.2831 81.1485C44.2831 80.8137 44.1641 80.5686 43.9198 80.399ZM43.3023 83.8831C42.9754 83.6779 42.5312 83.574 41.9822 83.574H39.7079L39.0193 86.1531H41.4482C42.1785 86.1531 42.7578 86.0137 43.1691 85.7401C43.5591 85.4799 43.7483 85.1326 43.7483 84.6761C43.7483 84.3307 43.6026 84.0713 43.3023 83.8831ZM43.3023 83.8831C42.9754 83.6779 42.5312 83.574 41.9822 83.574H39.7079L39.0193 86.1531H41.4482C42.1785 86.1531 42.7578 86.0137 43.1691 85.7401C43.5591 85.4799 43.7483 85.1326 43.7483 84.6761C43.7483 84.3307 43.6026 84.0713 43.3023 83.8831ZM43.9198 80.399C43.6542 80.2142 43.2686 80.121 42.7737 80.121H40.638L39.961 82.6361H41.9928C42.7018 82.6361 43.273 82.4905 43.6906 82.2036C44.0895 81.9292 44.2831 81.5846 44.2831 81.1485C44.2831 80.8137 44.1641 80.5686 43.9198 80.399ZM43.9198 80.399C43.6542 80.2142 43.2686 80.121 42.7737 80.121H40.638L39.961 82.6361H41.9928C42.7018 82.6361 43.273 82.4905 43.6906 82.2036C44.0895 81.9292 44.2831 81.5846 44.2831 81.1485C44.2831 80.8137 44.1641 80.5686 43.9198 80.399ZM43.3023 83.8831C42.9754 83.6779 42.5312 83.574 41.9822 83.574H39.7079L39.0193 86.1531H41.4482C42.1785 86.1531 42.7578 86.0137 43.1691 85.7401C43.5591 85.4799 43.7483 85.1326 43.7483 84.6761C43.7483 84.3307 43.6026 84.0713 43.3023 83.8831ZM43.3023 83.8831C42.9754 83.6779 42.5312 83.574 41.9822 83.574H39.7079L39.0193 86.1531H41.4482C42.1785 86.1531 42.7578 86.0137 43.1691 85.7401C43.5591 85.4799 43.7483 85.1326 43.7483 84.6761C43.7483 84.3307 43.6026 84.0713 43.3023 83.8831ZM43.9198 80.399C43.6542 80.2142 43.2686 80.121 42.7737 80.121H40.638L39.961 82.6361H41.9928C42.7018 82.6361 43.273 82.4905 43.6906 82.2036C44.0895 81.9292 44.2831 81.5846 44.2831 81.1485C44.2831 80.8137 44.1641 80.5686 43.9198 80.399ZM43.9198 80.399C43.6542 80.2142 43.2686 80.121 42.7737 80.121H40.638L39.961 82.6361H41.9928C42.7018 82.6361 43.273 82.4905 43.6906 82.2036C44.0895 81.9292 44.2831 81.5846 44.2831 81.1485C44.2831 80.8137 44.1641 80.5686 43.9198 80.399ZM43.3023 83.8831C42.9754 83.6779 42.5312 83.574 41.9822 83.574H39.7079L39.0193 86.1531H41.4482C42.1785 86.1531 42.7578 86.0137 43.1691 85.7401C43.5591 85.4799 43.7483 85.1326 43.7483 84.6761C43.7483 84.3307 43.6026 84.0713 43.3023 83.8831ZM43.3023 83.8831C42.9754 83.6779 42.5312 83.574 41.9822 83.574H39.7079L39.0193 86.1531H41.4482C42.1785 86.1531 42.7578 86.0137 43.1691 85.7401C43.5591 85.4799 43.7483 85.1326 43.7483 84.6761C43.7483 84.3307 43.6026 84.0713 43.3023 83.8831ZM43.9198 80.399C43.6542 80.2142 43.2686 80.121 42.7737 80.121H40.638L39.961 82.6361H41.9928C42.7018 82.6361 43.273 82.4905 43.6906 82.2036C44.0895 81.9292 44.2831 81.5846 44.2831 81.1485C44.2831 80.8137 44.1641 80.5686 43.9198 80.399ZM57.6572 80.6485C57.492 81.296 57.2983 81.939 57.0815 82.5606C56.7821 83.4203 56.5654 84.042 56.1176 84.7676C55.9435 85.0492 55.7516 85.3218 55.5446 85.582H58.7269L60.0737 80.6405L57.6572 80.6485ZM57.6572 80.6485C57.492 81.296 57.2983 81.939 57.0815 82.5606C56.7821 83.4203 56.5654 84.042 56.1176 84.7676C55.9435 85.0492 55.7516 85.3218 55.5446 85.582H58.7269L60.0737 80.6405L57.6572 80.6485ZM43.9198 80.399C43.6542 80.2142 43.2686 80.121 42.7737 80.121H40.638L39.961 82.6361H41.9928C42.7018 82.6361 43.273 82.4905 43.6906 82.2036C44.0895 81.9292 44.2831 81.5846 44.2831 81.1485C44.2831 80.8137 44.1641 80.5686 43.9198 80.399ZM43.3023 83.8831C42.9754 83.6779 42.5312 83.574 41.9822 83.574H39.7079L39.0193 86.1531H41.4482C42.1785 86.1531 42.7578 86.0137 43.1691 85.7401C43.5591 85.4799 43.7483 85.1326 43.7483 84.6761C43.7483 84.3307 43.6026 84.0713 43.3023 83.8831ZM43.3023 83.8831C42.9754 83.6779 42.5312 83.574 41.9822 83.574H39.7079L39.0193 86.1531H41.4482C42.1785 86.1531 42.7578 86.0137 43.1691 85.7401C43.5591 85.4799 43.7483 85.1326 43.7483 84.6761C43.7483 84.3307 43.6026 84.0713 43.3023 83.8831ZM43.9198 80.399C43.6542 80.2142 43.2686 80.121 42.7737 80.121H40.638L39.961 82.6361H41.9928C42.7018 82.6361 43.273 82.4905 43.6906 82.2036C44.0895 81.9292 44.2831 81.5846 44.2831 81.1485C44.2831 80.8137 44.1641 80.5686 43.9198 80.399ZM57.6572 80.6485C57.492 81.296 57.2983 81.939 57.0815 82.5606C56.7821 83.4203 56.5654 84.042 56.1176 84.7676C55.9435 85.0492 55.7516 85.3218 55.5446 85.582H58.7269L60.0737 80.6405L57.6572 80.6485ZM57.6572 80.6485C57.492 81.296 57.2983 81.939 57.0815 82.5606C56.7821 83.4203 56.5654 84.042 56.1176 84.7676C55.9435 85.0492 55.7516 85.3218 55.5446 85.582H58.7269L60.0737 80.6405L57.6572 80.6485ZM43.9198 80.399C43.6542 80.2142 43.2686 80.121 42.7737 80.121H40.638L39.961 82.6361H41.9928C42.7018 82.6361 43.273 82.4905 43.6906 82.2036C44.0895 81.9292 44.2831 81.5846 44.2831 81.1485C44.2831 80.8137 44.1641 80.5686 43.9198 80.399ZM43.3023 83.8831C42.9754 83.6779 42.5312 83.574 41.9822 83.574H39.7079L39.0193 86.1531H41.4482C42.1785 86.1531 42.7578 86.0137 43.1691 85.7401C43.5591 85.4799 43.7483 85.1326 43.7483 84.6761C43.7483 84.3307 43.6026 84.0713 43.3023 83.8831ZM43.3023 83.8831C42.9754 83.6779 42.5312 83.574 41.9822 83.574H39.7079L39.0193 86.1531H41.4482C42.1785 86.1531 42.7578 86.0137 43.1691 85.7401C43.5591 85.4799 43.7483 85.1326 43.7483 84.6761C43.7483 84.3307 43.6026 84.0713 43.3023 83.8831ZM43.9198 80.399C43.6542 80.2142 43.2686 80.121 42.7737 80.121H40.638L39.961 82.6361H41.9928C42.7018 82.6361 43.273 82.4905 43.6906 82.2036C44.0895 81.9292 44.2831 81.5846 44.2831 81.1485C44.2831 80.8137 44.1641 80.5686 43.9198 80.399ZM57.6572 80.6485C57.492 81.296 57.2983 81.939 57.0815 82.5606C56.7821 83.4203 56.5654 84.042 56.1176 84.7676C55.9435 85.0492 55.7516 85.3218 55.5446 85.582H58.7269L60.0737 80.6405L57.6572 80.6485ZM57.6572 80.6485C57.492 81.296 57.2983 81.939 57.0815 82.5606C56.7821 83.4203 56.5654 84.042 56.1176 84.7676C55.9435 85.0492 55.7516 85.3218 55.5446 85.582H58.7269L60.0737 80.6405L57.6572 80.6485ZM43.9198 80.399C43.6542 80.2142 43.2686 80.121 42.7737 80.121H40.638L39.961 82.6361H41.9928C42.7018 82.6361 43.273 82.4905 43.6906 82.2036C44.0895 81.9292 44.2831 81.5846 44.2831 81.1485C44.2831 80.8137 44.1641 80.5686 43.9198 80.399ZM43.3023 83.8831C42.9754 83.6779 42.5312 83.574 41.9822 83.574H39.7079L39.0193 86.1531H41.4482C42.1785 86.1531 42.7578 86.0137 43.1691 85.7401C43.5591 85.4799 43.7483 85.1326 43.7483 84.6761C43.7483 84.3307 43.6026 84.0713 43.3023 83.8831ZM43.3023 83.8831C42.9754 83.6779 42.5312 83.574 41.9822 83.574H39.7079L39.0193 86.1531H41.4482C42.1785 86.1531 42.7578 86.0137 43.1691 85.7401C43.5591 85.4799 43.7483 85.1326 43.7483 84.6761C43.7483 84.3307 43.6026 84.0713 43.3023 83.8831ZM43.9198 80.399C43.6542 80.2142 43.2686 80.121 42.7737 80.121H40.638L39.961 82.6361H41.9928C42.7018 82.6361 43.273 82.4905 43.6906 82.2036C44.0895 81.9292 44.2831 81.5846 44.2831 81.1485C44.2831 80.8137 44.1641 80.5686 43.9198 80.399ZM57.6572 80.6485C57.492 81.296 57.2983 81.939 57.0815 82.5606C56.7821 83.4203 56.5654 84.042 56.1176 84.7676C55.9435 85.0492 55.7516 85.3218 55.5446 85.582H58.7269L60.0737 80.6405L57.6572 80.6485ZM57.6572 80.6485C57.492 81.296 57.2983 81.939 57.0815 82.5606C56.7821 83.4203 56.5654 84.042 56.1176 84.7676C55.9435 85.0492 55.7516 85.3218 55.5446 85.582H58.7269L60.0737 80.6405L57.6572 80.6485ZM43.9198 80.399C43.6542 80.2142 43.2686 80.121 42.7737 80.121H40.638L39.961 82.6361H41.9928C42.7018 82.6361 43.273 82.4905 43.6906 82.2036C44.0895 81.9292 44.2831 81.5846 44.2831 81.1485C44.2831 80.8137 44.1641 80.5686 43.9198 80.399ZM43.3023 83.8831C42.9754 83.6779 42.5312 83.574 41.9822 83.574H39.7079L39.0193 86.1531H41.4482C42.1785 86.1531 42.7578 86.0137 43.1691 85.7401C43.5591 85.4799 43.7483 85.1326 43.7483 84.6761C43.7483 84.3307 43.6026 84.0713 43.3023 83.8831ZM43.3023 83.8831C42.9754 83.6779 42.5312 83.574 41.9822 83.574H39.7079L39.0193 86.1531H41.4482C42.1785 86.1531 42.7578 86.0137 43.1691 85.7401C43.5591 85.4799 43.7483 85.1326 43.7483 84.6761C43.7483 84.3307 43.6026 84.0713 43.3023 83.8831ZM43.9198 80.399C43.6542 80.2142 43.2686 80.121 42.7737 80.121H40.638L39.961 82.6361H41.9928C42.7018 82.6361 43.273 82.4905 43.6906 82.2036C44.0895 81.9292 44.2831 81.5846 44.2831 81.1485C44.2831 80.8137 44.1641 80.5686 43.9198 80.399ZM57.6572 80.6485C57.492 81.296 57.2983 81.939 57.0815 82.5606C56.7821 83.4203 56.5654 84.042 56.1176 84.7676C55.9435 85.0492 55.7516 85.3218 55.5446 85.582H58.7269L60.0737 80.6405L57.6572 80.6485ZM57.6572 80.6485C57.492 81.296 57.2983 81.939 57.0815 82.5606C56.7821 83.4203 56.5654 84.042 56.1176 84.7676C55.9435 85.0492 55.7516 85.3218 55.5446 85.582H58.7269L60.0737 80.6405L57.6572 80.6485ZM43.9198 80.399C43.6542 80.2142 43.2686 80.121 42.7737 80.121H40.638L39.961 82.6361H41.9928C42.7018 82.6361 43.273 82.4905 43.6906 82.2036C44.0895 81.9292 44.2831 81.5846 44.2831 81.1485C44.2831 80.8137 44.1641 80.5686 43.9198 80.399ZM43.3023 83.8831C42.9754 83.6779 42.5312 83.574 41.9822 83.574H39.7079L39.0193 86.1531H41.4482C42.1785 86.1531 42.7578 86.0137 43.1691 85.7401C43.5591 85.4799 43.7483 85.1326 43.7483 84.6761C43.7483 84.3307 43.6026 84.0713 43.3023 83.8831ZM43.3023 83.8831C42.9754 83.6779 42.5312 83.574 41.9822 83.574H39.7079L39.0193 86.1531H41.4482C42.1785 86.1531 42.7578 86.0137 43.1691 85.7401C43.5591 85.4799 43.7483 85.1326 43.7483 84.6761C43.7483 84.3307 43.6026 84.0713 43.3023 83.8831ZM43.9198 80.399C43.6542 80.2142 43.2686 80.121 42.7737 80.121H40.638L39.961 82.6361H41.9928C42.7018 82.6361 43.273 82.4905 43.6906 82.2036C44.0895 81.9292 44.2831 81.5846 44.2831 81.1485C44.2831 80.8137 44.1641 80.5686 43.9198 80.399ZM57.6572 80.6485C57.492 81.296 57.2983 81.939 57.0815 82.5606C56.7821 83.4203 56.5654 84.042 56.1176 84.7676C55.9435 85.0492 55.7516 85.3218 55.5446 85.582H58.7269L60.0737 80.6405L57.6572 80.6485ZM43.9198 80.399C43.6542 80.2142 43.2686 80.121 42.7737 80.121H40.638L39.961 82.6361H41.9928C42.7018 82.6361 43.273 82.4905 43.6906 82.2036C44.0895 81.9292 44.2831 81.5846 44.2831 81.1485C44.2831 80.8137 44.1641 80.5686 43.9198 80.399ZM43.3023 83.8831C42.9754 83.6779 42.5312 83.574 41.9822 83.574H39.7079L39.0193 86.1531H41.4482C42.1785 86.1531 42.7578 86.0137 43.1691 85.7401C43.5591 85.4799 43.7483 85.1326 43.7483 84.6761C43.7483 84.3307 43.6026 84.0713 43.3023 83.8831ZM43.3023 83.8831C42.9754 83.6779 42.5312 83.574 41.9822 83.574H39.7079L39.0193 86.1531H41.4482C42.1785 86.1531 42.7578 86.0137 43.1691 85.7401C43.5591 85.4799 43.7483 85.1326 43.7483 84.6761C43.7483 84.3307 43.6026 84.0713 43.3023 83.8831ZM43.9198 80.399C43.6542 80.2142 43.2686 80.121 42.7737 80.121H40.638L39.961 82.6361H41.9928C42.7018 82.6361 43.273 82.4905 43.6906 82.2036C44.0895 81.9292 44.2831 81.5846 44.2831 81.1485C44.2831 80.8137 44.1641 80.5686 43.9198 80.399ZM57.6572 80.6485C57.492 81.296 57.2983 81.939 57.0815 82.5606C56.7821 83.4203 56.5654 84.042 56.1176 84.7676C55.9435 85.0492 55.7516 85.3218 55.5446 85.582H58.7269L60.0737 80.6405L57.6572 80.6485ZM43.9198 80.399C43.6542 80.2142 43.2686 80.121 42.7737 80.121H40.638L39.961 82.6361H41.9928C42.7018 82.6361 43.273 82.4905 43.6906 82.2036C44.0895 81.9292 44.2831 81.5846 44.2831 81.1485C44.2831 80.8137 44.1641 80.5686 43.9198 80.399ZM43.3023 83.8831C42.9754 83.6779 42.5312 83.574 41.9822 83.574H39.7079L39.0193 86.1531H41.4482C42.1785 86.1531 42.7578 86.0137 43.1691 85.7401C43.5591 85.4799 43.7483 85.1326 43.7483 84.6761C43.7483 84.3307 43.6026 84.0713 43.3023 83.8831ZM43.3023 83.8831C42.9754 83.6779 42.5312 83.574 41.9822 83.574H39.7079L39.0193 86.1531H41.4482C42.1785 86.1531 42.7578 86.0137 43.1691 85.7401C43.5591 85.4799 43.7483 85.1326 43.7483 84.6761C43.7483 84.3307 43.6026 84.0713 43.3023 83.8831ZM43.9198 80.399C43.6542 80.2142 43.2686 80.121 42.7737 80.121H40.638L39.961 82.6361H41.9928C42.7018 82.6361 43.273 82.4905 43.6906 82.2036C44.0895 81.9292 44.2831 81.5846 44.2831 81.1485C44.2831 80.8137 44.1641 80.5686 43.9198 80.399ZM57.6572 80.6485C57.492 81.296 57.2983 81.939 57.0815 82.5606C56.7821 83.4203 56.5654 84.042 56.1176 84.7676C55.9435 85.0492 55.7516 85.3218 55.5446 85.582H58.7269L60.0737 80.6405L57.6572 80.6485ZM43.9198 80.399C43.6542 80.2142 43.2686 80.121 42.7737 80.121H40.638L39.961 82.6361H41.9928C42.7018 82.6361 43.273 82.4905 43.6906 82.2036C44.0895 81.9292 44.2831 81.5846 44.2831 81.1485C44.2831 80.8137 44.1641 80.5686 43.9198 80.399ZM43.3023 83.8831C42.9754 83.6779 42.5312 83.574 41.9822 83.574H39.7079L39.0193 86.1531H41.4482C42.1785 86.1531 42.7578 86.0137 43.1691 85.7401C43.5591 85.4799 43.7483 85.1326 43.7483 84.6761C43.7483 84.3307 43.6026 84.0713 43.3023 83.8831ZM43.3023 83.8831C42.9754 83.6779 42.5312 83.574 41.9822 83.574H39.7079L39.0193 86.1531H41.4482C42.1785 86.1531 42.7578 86.0137 43.1691 85.7401C43.5591 85.4799 43.7483 85.1326 43.7483 84.6761C43.7483 84.3307 43.6026 84.0713 43.3023 83.8831ZM43.9198 80.399C43.6542 80.2142 43.2686 80.121 42.7737 80.121H40.638L39.961 82.6361H41.9928C42.7018 82.6361 43.273 82.4905 43.6906 82.2036C44.0895 81.9292 44.2831 81.5846 44.2831 81.1485C44.2831 80.8137 44.1641 80.5686 43.9198 80.399ZM57.6572 80.6485C57.492 81.296 57.2983 81.939 57.0815 82.5606C56.7821 83.4203 56.5654 84.042 56.1176 84.7676C55.9435 85.0492 55.7516 85.3218 55.5446 85.582H58.7269L60.0737 80.6405L57.6572 80.6485ZM43.9198 80.399C43.6542 80.2142 43.2686 80.121 42.7737 80.121H40.638L39.961 82.6361H41.9928C42.7018 82.6361 43.273 82.4905 43.6906 82.2036C44.0895 81.9292 44.2831 81.5846 44.2831 81.1485C44.2831 80.8137 44.1641 80.5686 43.9198 80.399ZM43.3023 83.8831C42.9754 83.6779 42.5312 83.574 41.9822 83.574H39.7079L39.0193 86.1531H41.4482C42.1785 86.1531 42.7578 86.0137 43.1691 85.7401C43.5591 85.4799 43.7483 85.1326 43.7483 84.6761C43.7483 84.3307 43.6026 84.0713 43.3023 83.8831ZM43.3023 83.8831C42.9754 83.6779 42.5312 83.574 41.9822 83.574H39.7079L39.0193 86.1531H41.4482C42.1785 86.1531 42.7578 86.0137 43.1691 85.7401C43.5591 85.4799 43.7483 85.1326 43.7483 84.6761C43.7483 84.3307 43.6026 84.0713 43.3023 83.8831ZM43.9198 80.399C43.6542 80.2142 43.2686 80.121 42.7737 80.121H40.638L39.961 82.6361H41.9928C42.7018 82.6361 43.273 82.4905 43.6906 82.2036C44.0895 81.9292 44.2831 81.5846 44.2831 81.1485C44.2831 80.8137 44.1641 80.5686 43.9198 80.399ZM57.6572 80.6485C57.492 81.296 57.2983 81.939 57.0815 82.5606C56.7821 83.4203 56.5654 84.042 56.1176 84.7676C55.9435 85.0492 55.7516 85.3218 55.5446 85.582H58.7269L60.0737 80.6405L57.6572 80.6485ZM43.9198 80.399C43.6542 80.2142 43.2686 80.121 42.7737 80.121H40.638L39.961 82.6361H41.9928C42.7018 82.6361 43.273 82.4905 43.6906 82.2036C44.0895 81.9292 44.2831 81.5846 44.2831 81.1485C44.2831 80.8137 44.1641 80.5686 43.9198 80.399ZM43.3023 83.8831C42.9754 83.6779 42.5312 83.574 41.9822 83.574H39.7079L39.0193 86.1531H41.4482C42.1785 86.1531 42.7578 86.0137 43.1691 85.7401C43.5591 85.4799 43.7483 85.1326 43.7483 84.6761C43.7483 84.3307 43.6026 84.0713 43.3023 83.8831ZM43.3023 83.8831C42.9754 83.6779 42.5312 83.574 41.9822 83.574H39.7079L39.0193 86.1531H41.4482C42.1785 86.1531 42.7578 86.0137 43.1691 85.7401C43.5591 85.4799 43.7483 85.1326 43.7483 84.6761C43.7483 84.3307 43.6026 84.0713 43.3023 83.8831ZM43.9198 80.399C43.6542 80.2142 43.2686 80.121 42.7737 80.121H40.638L39.961 82.6361H41.9928C42.7018 82.6361 43.273 82.4905 43.6906 82.2036C44.0895 81.9292 44.2831 81.5846 44.2831 81.1485C44.2831 80.8137 44.1641 80.5686 43.9198 80.399ZM57.6572 80.6485C57.492 81.296 57.2983 81.939 57.0815 82.5606C56.7821 83.4203 56.5654 84.042 56.1176 84.7676C55.9435 85.0492 55.7516 85.3218 55.5446 85.582H58.7269L60.0737 80.6405L57.6572 80.6485ZM43.9198 80.399C43.6542 80.2142 43.2686 80.121 42.7737 80.121H40.638L39.961 82.6361H41.9928C42.7018 82.6361 43.273 82.4905 43.6906 82.2036C44.0895 81.9292 44.2831 81.5846 44.2831 81.1485C44.2831 80.8137 44.1641 80.5686 43.9198 80.399ZM43.3023 83.8831C42.9754 83.6779 42.5312 83.574 41.9822 83.574H39.7079L39.0193 86.1531H41.4482C42.1785 86.1531 42.7578 86.0137 43.1691 85.7401C43.5591 85.4799 43.7483 85.1326 43.7483 84.6761C43.7483 84.3307 43.6026 84.0713 43.3023 83.8831ZM43.3023 83.8831C42.9754 83.6779 42.5312 83.574 41.9822 83.574H39.7079L39.0193 86.1531H41.4482C42.1785 86.1531 42.7578 86.0137 43.1691 85.7401C43.5591 85.4799 43.7483 85.1326 43.7483 84.6761C43.7483 84.3307 43.6026 84.0713 43.3023 83.8831ZM43.9198 80.399C43.6542 80.2142 43.2686 80.121 42.7737 80.121H40.638L39.961 82.6361H41.9928C42.7018 82.6361 43.273 82.4905 43.6906 82.2036C44.0895 81.9292 44.2831 81.5846 44.2831 81.1485C44.2831 80.8137 44.1641 80.5686 43.9198 80.399ZM57.6572 80.6485C57.492 81.296 57.2983 81.939 57.0815 82.5606C56.7821 83.4203 56.5654 84.042 56.1176 84.7676C55.9435 85.0492 55.7516 85.3218 55.5446 85.582H58.7269L60.0737 80.6405L57.6572 80.6485ZM43.9198 80.399C43.6542 80.2142 43.2686 80.121 42.7737 80.121H40.638L39.961 82.6361H41.9928C42.7018 82.6361 43.273 82.4905 43.6906 82.2036C44.0895 81.9292 44.2831 81.5846 44.2831 81.1485C44.2831 80.8137 44.1641 80.5686 43.9198 80.399ZM43.3023 83.8831C42.9754 83.6779 42.5312 83.574 41.9822 83.574H39.7079L39.0193 86.1531H41.4482C42.1785 86.1531 42.7578 86.0137 43.1691 85.7401C43.5591 85.4799 43.7483 85.1326 43.7483 84.6761C43.7483 84.3307 43.6026 84.0713 43.3023 83.8831ZM43.3023 83.8831C42.9754 83.6779 42.5312 83.574 41.9822 83.574H39.7079L39.0193 86.1531H41.4482C42.1785 86.1531 42.7578 86.0137 43.1691 85.7401C43.5591 85.4799 43.7483 85.1326 43.7483 84.6761C43.7483 84.3307 43.6026 84.0713 43.3023 83.8831ZM43.9198 80.399C43.6542 80.2142 43.2686 80.121 42.7737 80.121H40.638L39.961 82.6361H41.9928C42.7018 82.6361 43.273 82.4905 43.6906 82.2036C44.0895 81.9292 44.2831 81.5846 44.2831 81.1485C44.2831 80.8137 44.1641 80.5686 43.9198 80.399ZM57.6572 80.6485C57.492 81.296 57.2983 81.939 57.0815 82.5606C56.7821 83.4203 56.5654 84.042 56.1176 84.7676C55.9435 85.0492 55.7516 85.3218 55.5446 85.582H58.7269L60.0737 80.6405L57.6572 80.6485ZM43.9198 80.399C43.6542 80.2142 43.2686 80.121 42.7737 80.121H40.638L39.961 82.6361H41.9928C42.7018 82.6361 43.273 82.4905 43.6906 82.2036C44.0895 81.9292 44.2831 81.5846 44.2831 81.1485C44.2831 80.8137 44.1641 80.5686 43.9198 80.399ZM43.3023 83.8831C42.9754 83.6779 42.5312 83.574 41.9822 83.574H39.7079L39.0193 86.1531H41.4482C42.1785 86.1531 42.7578 86.0137 43.1691 85.7401C43.5591 85.4799 43.7483 85.1326 43.7483 84.6761C43.7483 84.3307 43.6026 84.0713 43.3023 83.8831ZM6.32422 0V87.6025H52.5009L52.6555 87.0368L53.0535 85.582H53.9206C54.3701 85.138 54.7646 84.6442 55.0959 84.1122C55.6041 83.2969 55.8182 82.55 56.1727 81.3119L56.194 81.2382C56.3699 80.6236 56.5254 79.9966 56.6542 79.3758L56.6897 79.208L61.7741 79.1822L60.0559 85.582H61.1291L60.6591 87.0386L60.477 87.6025H93.9548V0H6.32422ZM19.4415 22.2776H52.3792L30.4915 70.3428H20.3726L38.5751 31.4093H19.4415V22.2776ZM11.2327 87.091H10.2368L10.2527 87.0306L12.1077 80.121H9.49849L9.75258 79.1831H15.9661L15.712 80.121H13.1036L11.2487 87.0306L11.2327 87.091ZM20.7271 87.091H14.9631L14.9791 87.0314L17.0873 79.1831H22.7988L22.5456 80.121H17.83L17.153 82.6361H21.388L21.1339 83.574H16.8998L16.2113 86.1531H20.9811L20.743 87.0323L20.7271 87.091ZM29.0363 87.091H28.0404L28.0555 87.0332L29.9114 80.121H26.8544L26.6403 80.9052C26.3622 81.9523 26.0779 82.8706 25.7945 83.6335C25.5111 84.3991 25.2455 85.0083 25.0074 85.4461C24.7622 85.8946 24.501 86.2534 24.23 86.5137C23.9564 86.7748 23.7148 86.9453 23.4909 87.0323C23.4847 87.035 23.4793 87.0377 23.4731 87.0394C23.2501 87.1229 23.0023 87.1656 22.7357 87.1656C22.3955 87.1656 22.1183 87.122 21.8953 87.0323C21.8216 87.003 21.7541 86.9693 21.6919 86.9293L21.5115 86.8156L22.0099 86.0305L22.1849 86.1256C22.3093 86.1931 22.5021 86.2277 22.7571 86.2277C22.8734 86.2277 22.9889 86.2073 23.1 86.1664C23.1604 86.1442 23.299 86.0687 23.5593 85.8129C23.7654 85.6105 23.9733 85.3271 24.1767 84.9719C24.3837 84.6095 24.6254 84.0625 24.8946 83.3457C25.1655 82.6246 25.4383 81.7596 25.7066 80.7729L26.133 79.1831H31.1605L29.0514 87.0332L29.0363 87.091ZM36.5958 87.091H30.8309L30.846 87.0341L32.9551 79.1831H38.6675L38.4134 80.121H33.6978L33.0208 82.6361H37.2558L37.0018 83.574H32.7685L32.0791 86.1531H36.8499L36.6109 87.035L36.5958 87.091ZM41.4163 87.091H37.7702L37.7853 87.035L39.8953 79.1831H42.827C43.5555 79.1831 44.1481 79.3501 44.5905 79.6796C45.0516 80.0233 45.2853 80.5002 45.2853 81.0952C45.2853 81.6805 45.0756 82.1761 44.6634 82.5695C44.4066 82.8129 44.1037 83.0047 43.7563 83.1432C43.9544 83.2472 44.1295 83.3733 44.2796 83.5198C44.5852 83.8164 44.7398 84.2054 44.7398 84.6761C44.7398 85.3937 44.4262 85.9852 43.8078 86.4355C43.3832 86.7446 42.8537 86.9453 42.2283 87.035C41.9733 87.0723 41.7023 87.091 41.4163 87.091ZM51.8586 87.0368L51.8444 87.091L50.4354 87.0883L50.4505 87.0368L52.1144 81.2205L46.8053 87.0359L46.7574 87.0883L45.4372 87.091L45.4523 87.0359L47.5623 79.1822L48.9819 79.1902L47.3171 84.9373L52.3605 79.1884L53.9579 79.1822L51.8586 87.0368ZM50.7028 51.5315C50.7028 46.1352 52.7914 42.9531 56.0225 40.6173C53.2356 38.3944 51.4641 35.3748 51.4641 30.4439C51.4641 23.0965 57.1633 17.2589 65.7701 17.2589C74.3779 17.2589 80.077 23.0272 80.077 30.5807C80.077 35.3845 78.3047 38.3953 75.5168 40.6173C78.7489 42.9531 80.8375 46.1326 80.8375 51.3894C80.8375 59.2039 74.8354 65.1712 65.7701 65.1712C56.7057 65.1712 50.7028 59.1329 50.7028 51.5315ZM67.419 87.091H61.6586L61.6728 87.0386L63.7828 79.1831H69.4908L69.1274 80.6041L64.8835 80.6139L64.3478 82.4292L68.1289 82.4319L67.7317 83.8395L64.012 83.8813L63.5349 85.582H67.8694L67.4341 87.0394L67.419 87.091ZM74.9705 87.091L73.1608 87.0883L73.1723 87.0403L73.947 83.7756L71.392 83.7711L70.3996 87.0394L70.3845 87.0883L68.6814 87.091L68.6957 87.0394L70.8056 79.1831L72.6873 79.1893L71.8744 81.8928L74.3806 81.8697L75.1872 79.1893L77.0947 79.1822L74.9838 87.0403L74.9705 87.091ZM82.6303 87.091L80.2494 87.0883L80.2663 87.0412L81.2479 84.3129L78.4743 87.0403C78.4539 87.059 78.4335 87.0776 78.413 87.0954C77.6828 87.0963 76.9525 87.0963 76.2222 87.0963L76.2373 87.0403L78.3482 79.1831L80.9148 79.1893L80.0619 82.2045L82.6747 79.1884L84.7438 79.1822L82.6436 87.0412L82.6303 87.091ZM89.6691 87.091H83.9007L83.9141 87.0412L86.0258 79.1831H91.7489L91.0213 81.51H88.229L88.0531 82.2409L90.5753 82.2356L90.0529 84.122H87.6187L87.4348 84.7765H90.2395L89.6807 87.0421L89.6691 87.091ZM65.7701 37.5844C69.3184 37.5844 71.5856 35.1128 71.5856 31.6109C71.5856 28.6579 69.4339 25.9802 65.7701 25.9802C62.1063 25.9802 59.9537 28.5886 59.9537 31.6793C59.9537 35.0435 62.2227 37.5844 65.7701 37.5844ZM71.5856 50.6691C71.5856 47.1299 69.3184 44.6316 65.7701 44.6316C62.2227 44.6316 59.9537 47.1983 59.9537 50.5989C59.9537 53.7216 62.1063 56.3584 65.7701 56.3584C69.4339 56.3584 71.5856 53.6523 71.5856 50.6691ZM57.6572 80.6485C57.492 81.296 57.2983 81.939 57.0815 82.5606C56.7821 83.4203 56.5654 84.042 56.1176 84.7676C55.9435 85.0492 55.7516 85.3218 55.5446 85.582H58.7269L60.0737 80.6405L57.6572 80.6485ZM43.6906 82.2036C44.0895 81.9292 44.2831 81.5846 44.2831 81.1485C44.2831 80.8137 44.1641 80.5686 43.9198 80.399C43.6542 80.2142 43.2686 80.121 42.7737 80.121H40.638L39.961 82.6361H41.9928C42.7018 82.6361 43.273 82.4905 43.6906 82.2036ZM43.3023 83.8831C42.9754 83.6779 42.5312 83.574 41.9822 83.574H39.7079L39.0193 86.1531H41.4482C42.1785 86.1531 42.7578 86.0137 43.1691 85.7401C43.5591 85.4799 43.7483 85.1326 43.7483 84.6761C43.7483 84.3307 43.6026 84.0713 43.3023 83.8831ZM43.3023 83.8831C42.9754 83.6779 42.5312 83.574 41.9822 83.574H39.7079L39.0193 86.1531H41.4482C42.1785 86.1531 42.7578 86.0137 43.1691 85.7401C43.5591 85.4799 43.7483 85.1326 43.7483 84.6761C43.7483 84.3307 43.6026 84.0713 43.3023 83.8831ZM43.9198 80.399C43.6542 80.2142 43.2686 80.121 42.7737 80.121H40.638L39.961 82.6361H41.9928C42.7018 82.6361 43.273 82.4905 43.6906 82.2036C44.0895 81.9292 44.2831 81.5846 44.2831 81.1485C44.2831 80.8137 44.1641 80.5686 43.9198 80.399ZM57.6572 80.6485C57.492 81.296 57.2983 81.939 57.0815 82.5606C56.7821 83.4203 56.5654 84.042 56.1176 84.7676C55.9435 85.0492 55.7516 85.3218 55.5446 85.582H58.7269L60.0737 80.6405L57.6572 80.6485ZM43.9198 80.399C43.6542 80.2142 43.2686 80.121 42.7737 80.121H40.638L39.961 82.6361H41.9928C42.7018 82.6361 43.273 82.4905 43.6906 82.2036C44.0895 81.9292 44.2831 81.5846 44.2831 81.1485C44.2831 80.8137 44.1641 80.5686 43.9198 80.399ZM43.3023 83.8831C42.9754 83.6779 42.5312 83.574 41.9822 83.574H39.7079L39.0193 86.1531H41.4482C42.1785 86.1531 42.7578 86.0137 43.1691 85.7401C43.5591 85.4799 43.7483 85.1326 43.7483 84.6761C43.7483 84.3307 43.6026 84.0713 43.3023 83.8831ZM43.3023 83.8831C42.9754 83.6779 42.5312 83.574 41.9822 83.574H39.7079L39.0193 86.1531H41.4482C42.1785 86.1531 42.7578 86.0137 43.1691 85.7401C43.5591 85.4799 43.7483 85.1326 43.7483 84.6761C43.7483 84.3307 43.6026 84.0713 43.3023 83.8831ZM43.9198 80.399C43.6542 80.2142 43.2686 80.121 42.7737 80.121H40.638L39.961 82.6361H41.9928C42.7018 82.6361 43.273 82.4905 43.6906 82.2036C44.0895 81.9292 44.2831 81.5846 44.2831 81.1485C44.2831 80.8137 44.1641 80.5686 43.9198 80.399ZM57.6572 80.6485C57.492 81.296 57.2983 81.939 57.0815 82.5606C56.7821 83.4203 56.5654 84.042 56.1176 84.7676C55.9435 85.0492 55.7516 85.3218 55.5446 85.582H58.7269L60.0737 80.6405L57.6572 80.6485ZM43.9198 80.399C43.6542 80.2142 43.2686 80.121 42.7737 80.121H40.638L39.961 82.6361H41.9928C42.7018 82.6361 43.273 82.4905 43.6906 82.2036C44.0895 81.9292 44.2831 81.5846 44.2831 81.1485C44.2831 80.8137 44.1641 80.5686 43.9198 80.399ZM43.3023 83.8831C42.9754 83.6779 42.5312 83.574 41.9822 83.574H39.7079L39.0193 86.1531H41.4482C42.1785 86.1531 42.7578 86.0137 43.1691 85.7401C43.5591 85.4799 43.7483 85.1326 43.7483 84.6761C43.7483 84.3307 43.6026 84.0713 43.3023 83.8831ZM43.3023 83.8831C42.9754 83.6779 42.5312 83.574 41.9822 83.574H39.7079L39.0193 86.1531H41.4482C42.1785 86.1531 42.7578 86.0137 43.1691 85.7401C43.5591 85.4799 43.7483 85.1326 43.7483 84.6761C43.7483 84.3307 43.6026 84.0713 43.3023 83.8831ZM43.9198 80.399C43.6542 80.2142 43.2686 80.121 42.7737 80.121H40.638L39.961 82.6361H41.9928C42.7018 82.6361 43.273 82.4905 43.6906 82.2036C44.0895 81.9292 44.2831 81.5846 44.2831 81.1485C44.2831 80.8137 44.1641 80.5686 43.9198 80.399ZM57.6572 80.6485C57.492 81.296 57.2983 81.939 57.0815 82.5606C56.7821 83.4203 56.5654 84.042 56.1176 84.7676C55.9435 85.0492 55.7516 85.3218 55.5446 85.582H58.7269L60.0737 80.6405L57.6572 80.6485ZM43.9198 80.399C43.6542 80.2142 43.2686 80.121 42.7737 80.121H40.638L39.961 82.6361H41.9928C42.7018 82.6361 43.273 82.4905 43.6906 82.2036C44.0895 81.9292 44.2831 81.5846 44.2831 81.1485C44.2831 80.8137 44.1641 80.5686 43.9198 80.399ZM43.3023 83.8831C42.9754 83.6779 42.5312 83.574 41.9822 83.574H39.7079L39.0193 86.1531H41.4482C42.1785 86.1531 42.7578 86.0137 43.1691 85.7401C43.5591 85.4799 43.7483 85.1326 43.7483 84.6761C43.7483 84.3307 43.6026 84.0713 43.3023 83.8831ZM43.3023 83.8831C42.9754 83.6779 42.5312 83.574 41.9822 83.574H39.7079L39.0193 86.1531H41.4482C42.1785 86.1531 42.7578 86.0137 43.1691 85.7401C43.5591 85.4799 43.7483 85.1326 43.7483 84.6761C43.7483 84.3307 43.6026 84.0713 43.3023 83.8831ZM43.9198 80.399C43.6542 80.2142 43.2686 80.121 42.7737 80.121H40.638L39.961 82.6361H41.9928C42.7018 82.6361 43.273 82.4905 43.6906 82.2036C44.0895 81.9292 44.2831 81.5846 44.2831 81.1485C44.2831 80.8137 44.1641 80.5686 43.9198 80.399ZM57.6572 80.6485C57.492 81.296 57.2983 81.939 57.0815 82.5606C56.7821 83.4203 56.5654 84.042 56.1176 84.7676C55.9435 85.0492 55.7516 85.3218 55.5446 85.582H58.7269L60.0737 80.6405L57.6572 80.6485ZM43.9198 80.399C43.6542 80.2142 43.2686 80.121 42.7737 80.121H40.638L39.961 82.6361H41.9928C42.7018 82.6361 43.273 82.4905 43.6906 82.2036C44.0895 81.9292 44.2831 81.5846 44.2831 81.1485C44.2831 80.8137 44.1641 80.5686 43.9198 80.399ZM43.3023 83.8831C42.9754 83.6779 42.5312 83.574 41.9822 83.574H39.7079L39.0193 86.1531H41.4482C42.1785 86.1531 42.7578 86.0137 43.1691 85.7401C43.5591 85.4799 43.7483 85.1326 43.7483 84.6761C43.7483 84.3307 43.6026 84.0713 43.3023 83.8831ZM43.3023 83.8831C42.9754 83.6779 42.5312 83.574 41.9822 83.574H39.7079L39.0193 86.1531H41.4482C42.1785 86.1531 42.7578 86.0137 43.1691 85.7401C43.5591 85.4799 43.7483 85.1326 43.7483 84.6761C43.7483 84.3307 43.6026 84.0713 43.3023 83.8831ZM43.9198 80.399C43.6542 80.2142 43.2686 80.121 42.7737 80.121H40.638L39.961 82.6361H41.9928C42.7018 82.6361 43.273 82.4905 43.6906 82.2036C44.0895 81.9292 44.2831 81.5846 44.2831 81.1485C44.2831 80.8137 44.1641 80.5686 43.9198 80.399ZM57.6572 80.6485C57.492 81.296 57.2983 81.939 57.0815 82.5606C56.7821 83.4203 56.5654 84.042 56.1176 84.7676C55.9435 85.0492 55.7516 85.3218 55.5446 85.582H58.7269L60.0737 80.6405L57.6572 80.6485ZM43.9198 80.399C43.6542 80.2142 43.2686 80.121 42.7737 80.121H40.638L39.961 82.6361H41.9928C42.7018 82.6361 43.273 82.4905 43.6906 82.2036C44.0895 81.9292 44.2831 81.5846 44.2831 81.1485C44.2831 80.8137 44.1641 80.5686 43.9198 80.399ZM43.3023 83.8831C42.9754 83.6779 42.5312 83.574 41.9822 83.574H39.7079L39.0193 86.1531H41.4482C42.1785 86.1531 42.7578 86.0137 43.1691 85.7401C43.5591 85.4799 43.7483 85.1326 43.7483 84.6761C43.7483 84.3307 43.6026 84.0713 43.3023 83.8831ZM43.3023 83.8831C42.9754 83.6779 42.5312 83.574 41.9822 83.574H39.7079L39.0193 86.1531H41.4482C42.1785 86.1531 42.7578 86.0137 43.1691 85.7401C43.5591 85.4799 43.7483 85.1326 43.7483 84.6761C43.7483 84.3307 43.6026 84.0713 43.3023 83.8831ZM43.9198 80.399C43.6542 80.2142 43.2686 80.121 42.7737 80.121H40.638L39.961 82.6361H41.9928C42.7018 82.6361 43.273 82.4905 43.6906 82.2036C44.0895 81.9292 44.2831 81.5846 44.2831 81.1485C44.2831 80.8137 44.1641 80.5686 43.9198 80.399ZM57.6572 80.6485C57.492 81.296 57.2983 81.939 57.0815 82.5606C56.7821 83.4203 56.5654 84.042 56.1176 84.7676C55.9435 85.0492 55.7516 85.3218 55.5446 85.582H58.7269L60.0737 80.6405L57.6572 80.6485ZM43.9198 80.399C43.6542 80.2142 43.2686 80.121 42.7737 80.121H40.638L39.961 82.6361H41.9928C42.7018 82.6361 43.273 82.4905 43.6906 82.2036C44.0895 81.9292 44.2831 81.5846 44.2831 81.1485C44.2831 80.8137 44.1641 80.5686 43.9198 80.399ZM43.3023 83.8831C42.9754 83.6779 42.5312 83.574 41.9822 83.574H39.7079L39.0193 86.1531H41.4482C42.1785 86.1531 42.7578 86.0137 43.1691 85.7401C43.5591 85.4799 43.7483 85.1326 43.7483 84.6761C43.7483 84.3307 43.6026 84.0713 43.3023 83.8831ZM43.3023 83.8831C42.9754 83.6779 42.5312 83.574 41.9822 83.574H39.7079L39.0193 86.1531H41.4482C42.1785 86.1531 42.7578 86.0137 43.1691 85.7401C43.5591 85.4799 43.7483 85.1326 43.7483 84.6761C43.7483 84.3307 43.6026 84.0713 43.3023 83.8831ZM43.9198 80.399C43.6542 80.2142 43.2686 80.121 42.7737 80.121H40.638L39.961 82.6361H41.9928C42.7018 82.6361 43.273 82.4905 43.6906 82.2036C44.0895 81.9292 44.2831 81.5846 44.2831 81.1485C44.2831 80.8137 44.1641 80.5686 43.9198 80.399ZM57.6572 80.6485C57.492 81.296 57.2983 81.939 57.0815 82.5606C56.7821 83.4203 56.5654 84.042 56.1176 84.7676C55.9435 85.0492 55.7516 85.3218 55.5446 85.582H58.7269L60.0737 80.6405L57.6572 80.6485ZM43.9198 80.399C43.6542 80.2142 43.2686 80.121 42.7737 80.121H40.638L39.961 82.6361H41.9928C42.7018 82.6361 43.273 82.4905 43.6906 82.2036C44.0895 81.9292 44.2831 81.5846 44.2831 81.1485C44.2831 80.8137 44.1641 80.5686 43.9198 80.399ZM43.3023 83.8831C42.9754 83.6779 42.5312 83.574 41.9822 83.574H39.7079L39.0193 86.1531H41.4482C42.1785 86.1531 42.7578 86.0137 43.1691 85.7401C43.5591 85.4799 43.7483 85.1326 43.7483 84.6761C43.7483 84.3307 43.6026 84.0713 43.3023 83.8831ZM43.3023 83.8831C42.9754 83.6779 42.5312 83.574 41.9822 83.574H39.7079L39.0193 86.1531H41.4482C42.1785 86.1531 42.7578 86.0137 43.1691 85.7401C43.5591 85.4799 43.7483 85.1326 43.7483 84.6761C43.7483 84.3307 43.6026 84.0713 43.3023 83.8831ZM43.9198 80.399C43.6542 80.2142 43.2686 80.121 42.7737 80.121H40.638L39.961 82.6361H41.9928C42.7018 82.6361 43.273 82.4905 43.6906 82.2036C44.0895 81.9292 44.2831 81.5846 44.2831 81.1485C44.2831 80.8137 44.1641 80.5686 43.9198 80.399ZM57.6572 80.6485C57.492 81.296 57.2983 81.939 57.0815 82.5606C56.7821 83.4203 56.5654 84.042 56.1176 84.7676C55.9435 85.0492 55.7516 85.3218 55.5446 85.582H58.7269L60.0737 80.6405L57.6572 80.6485ZM54.0752 87.0892L53.8433 87.6025H59.2466L59.355 87.0759L54.0752 87.0892ZM43.9198 80.399C43.6542 80.2142 43.2686 80.121 42.7737 80.121H40.638L39.961 82.6361H41.9928C42.7018 82.6361 43.273 82.4905 43.6906 82.2036C44.0895 81.9292 44.2831 81.5846 44.2831 81.1485C44.2831 80.8137 44.1641 80.5686 43.9198 80.399ZM43.3023 83.8831C42.9754 83.6779 42.5312 83.574 41.9822 83.574H39.7079L39.0193 86.1531H41.4482C42.1785 86.1531 42.7578 86.0137 43.1691 85.7401C43.5591 85.4799 43.7483 85.1326 43.7483 84.6761C43.7483 84.3307 43.6026 84.0713 43.3023 83.8831ZM43.3023 83.8831C42.9754 83.6779 42.5312 83.574 41.9822 83.574H39.7079L39.0193 86.1531H41.4482C42.1785 86.1531 42.7578 86.0137 43.1691 85.7401C43.5591 85.4799 43.7483 85.1326 43.7483 84.6761C43.7483 84.3307 43.6026 84.0713 43.3023 83.8831ZM43.9198 80.399C43.6542 80.2142 43.2686 80.121 42.7737 80.121H40.638L39.961 82.6361H41.9928C42.7018 82.6361 43.273 82.4905 43.6906 82.2036C44.0895 81.9292 44.2831 81.5846 44.2831 81.1485C44.2831 80.8137 44.1641 80.5686 43.9198 80.399ZM57.6572 80.6485C57.492 81.296 57.2983 81.939 57.0815 82.5606C56.7821 83.4203 56.5654 84.042 56.1176 84.7676C55.9435 85.0492 55.7516 85.3218 55.5446 85.582H58.7269L60.0737 80.6405L57.6572 80.6485ZM57.6572 80.6485C57.492 81.296 57.2983 81.939 57.0815 82.5606C56.7821 83.4203 56.5654 84.042 56.1176 84.7676C55.9435 85.0492 55.7516 85.3218 55.5446 85.582H58.7269L60.0737 80.6405L57.6572 80.6485ZM43.9198 80.399C43.6542 80.2142 43.2686 80.121 42.7737 80.121H40.638L39.961 82.6361H41.9928C42.7018 82.6361 43.273 82.4905 43.6906 82.2036C44.0895 81.9292 44.2831 81.5846 44.2831 81.1485C44.2831 80.8137 44.1641 80.5686 43.9198 80.399ZM43.3023 83.8831C42.9754 83.6779 42.5312 83.574 41.9822 83.574H39.7079L39.0193 86.1531H41.4482C42.1785 86.1531 42.7578 86.0137 43.1691 85.7401C43.5591 85.4799 43.7483 85.1326 43.7483 84.6761C43.7483 84.3307 43.6026 84.0713 43.3023 83.8831ZM43.3023 83.8831C42.9754 83.6779 42.5312 83.574 41.9822 83.574H39.7079L39.0193 86.1531H41.4482C42.1785 86.1531 42.7578 86.0137 43.1691 85.7401C43.5591 85.4799 43.7483 85.1326 43.7483 84.6761C43.7483 84.3307 43.6026 84.0713 43.3023 83.8831ZM43.9198 80.399C43.6542 80.2142 43.2686 80.121 42.7737 80.121H40.638L39.961 82.6361H41.9928C42.7018 82.6361 43.273 82.4905 43.6906 82.2036C44.0895 81.9292 44.2831 81.5846 44.2831 81.1485C44.2831 80.8137 44.1641 80.5686 43.9198 80.399ZM57.6572 80.6485C57.492 81.296 57.2983 81.939 57.0815 82.5606C56.7821 83.4203 56.5654 84.042 56.1176 84.7676C55.9435 85.0492 55.7516 85.3218 55.5446 85.582H58.7269L60.0737 80.6405L57.6572 80.6485ZM57.6572 80.6485C57.492 81.296 57.2983 81.939 57.0815 82.5606C56.7821 83.4203 56.5654 84.042 56.1176 84.7676C55.9435 85.0492 55.7516 85.3218 55.5446 85.582H58.7269L60.0737 80.6405L57.6572 80.6485ZM43.9198 80.399C43.6542 80.2142 43.2686 80.121 42.7737 80.121H40.638L39.961 82.6361H41.9928C42.7018 82.6361 43.273 82.4905 43.6906 82.2036C44.0895 81.9292 44.2831 81.5846 44.2831 81.1485C44.2831 80.8137 44.1641 80.5686 43.9198 80.399ZM43.3023 83.8831C42.9754 83.6779 42.5312 83.574 41.9822 83.574H39.7079L39.0193 86.1531H41.4482C42.1785 86.1531 42.7578 86.0137 43.1691 85.7401C43.5591 85.4799 43.7483 85.1326 43.7483 84.6761C43.7483 84.3307 43.6026 84.0713 43.3023 83.8831ZM43.3023 83.8831C42.9754 83.6779 42.5312 83.574 41.9822 83.574H39.7079L39.0193 86.1531H41.4482C42.1785 86.1531 42.7578 86.0137 43.1691 85.7401C43.5591 85.4799 43.7483 85.1326 43.7483 84.6761C43.7483 84.3307 43.6026 84.0713 43.3023 83.8831ZM43.9198 80.399C43.6542 80.2142 43.2686 80.121 42.7737 80.121H40.638L39.961 82.6361H41.9928C42.7018 82.6361 43.273 82.4905 43.6906 82.2036C44.0895 81.9292 44.2831 81.5846 44.2831 81.1485C44.2831 80.8137 44.1641 80.5686 43.9198 80.399ZM57.6572 80.6485C57.492 81.296 57.2983 81.939 57.0815 82.5606C56.7821 83.4203 56.5654 84.042 56.1176 84.7676C55.9435 85.0492 55.7516 85.3218 55.5446 85.582H58.7269L60.0737 80.6405L57.6572 80.6485ZM57.6572 80.6485C57.492 81.296 57.2983 81.939 57.0815 82.5606C56.7821 83.4203 56.5654 84.042 56.1176 84.7676C55.9435 85.0492 55.7516 85.3218 55.5446 85.582H58.7269L60.0737 80.6405L57.6572 80.6485ZM43.9198 80.399C43.6542 80.2142 43.2686 80.121 42.7737 80.121H40.638L39.961 82.6361H41.9928C42.7018 82.6361 43.273 82.4905 43.6906 82.2036C44.0895 81.9292 44.2831 81.5846 44.2831 81.1485C44.2831 80.8137 44.1641 80.5686 43.9198 80.399ZM43.3023 83.8831C42.9754 83.6779 42.5312 83.574 41.9822 83.574H39.7079L39.0193 86.1531H41.4482C42.1785 86.1531 42.7578 86.0137 43.1691 85.7401C43.5591 85.4799 43.7483 85.1326 43.7483 84.6761C43.7483 84.3307 43.6026 84.0713 43.3023 83.8831ZM43.3023 83.8831C42.9754 83.6779 42.5312 83.574 41.9822 83.574H39.7079L39.0193 86.1531H41.4482C42.1785 86.1531 42.7578 86.0137 43.1691 85.7401C43.5591 85.4799 43.7483 85.1326 43.7483 84.6761C43.7483 84.3307 43.6026 84.0713 43.3023 83.8831ZM43.9198 80.399C43.6542 80.2142 43.2686 80.121 42.7737 80.121H40.638L39.961 82.6361H41.9928C42.7018 82.6361 43.273 82.4905 43.6906 82.2036C44.0895 81.9292 44.2831 81.5846 44.2831 81.1485C44.2831 80.8137 44.1641 80.5686 43.9198 80.399ZM57.6572 80.6485C57.492 81.296 57.2983 81.939 57.0815 82.5606C56.7821 83.4203 56.5654 84.042 56.1176 84.7676C55.9435 85.0492 55.7516 85.3218 55.5446 85.582H58.7269L60.0737 80.6405L57.6572 80.6485ZM57.6572 80.6485C57.492 81.296 57.2983 81.939 57.0815 82.5606C56.7821 83.4203 56.5654 84.042 56.1176 84.7676C55.9435 85.0492 55.7516 85.3218 55.5446 85.582H58.7269L60.0737 80.6405L57.6572 80.6485ZM43.9198 80.399C43.6542 80.2142 43.2686 80.121 42.7737 80.121H40.638L39.961 82.6361H41.9928C42.7018 82.6361 43.273 82.4905 43.6906 82.2036C44.0895 81.9292 44.2831 81.5846 44.2831 81.1485C44.2831 80.8137 44.1641 80.5686 43.9198 80.399ZM43.3023 83.8831C42.9754 83.6779 42.5312 83.574 41.9822 83.574H39.7079L39.0193 86.1531H41.4482C42.1785 86.1531 42.7578 86.0137 43.1691 85.7401C43.5591 85.4799 43.7483 85.1326 43.7483 84.6761C43.7483 84.3307 43.6026 84.0713 43.3023 83.8831ZM43.3023 83.8831C42.9754 83.6779 42.5312 83.574 41.9822 83.574H39.7079L39.0193 86.1531H41.4482C42.1785 86.1531 42.7578 86.0137 43.1691 85.7401C43.5591 85.4799 43.7483 85.1326 43.7483 84.6761C43.7483 84.3307 43.6026 84.0713 43.3023 83.8831ZM43.9198 80.399C43.6542 80.2142 43.2686 80.121 42.7737 80.121H40.638L39.961 82.6361H41.9928C42.7018 82.6361 43.273 82.4905 43.6906 82.2036C44.0895 81.9292 44.2831 81.5846 44.2831 81.1485C44.2831 80.8137 44.1641 80.5686 43.9198 80.399ZM57.6572 80.6485C57.492 81.296 57.2983 81.939 57.0815 82.5606C56.7821 83.4203 56.5654 84.042 56.1176 84.7676C55.9435 85.0492 55.7516 85.3218 55.5446 85.582H58.7269L60.0737 80.6405L57.6572 80.6485ZM57.6572 80.6485C57.492 81.296 57.2983 81.939 57.0815 82.5606C56.7821 83.4203 56.5654 84.042 56.1176 84.7676C55.9435 85.0492 55.7516 85.3218 55.5446 85.582H58.7269L60.0737 80.6405L57.6572 80.6485ZM43.9198 80.399C43.6542 80.2142 43.2686 80.121 42.7737 80.121H40.638L39.961 82.6361H41.9928C42.7018 82.6361 43.273 82.4905 43.6906 82.2036C44.0895 81.9292 44.2831 81.5846 44.2831 81.1485C44.2831 80.8137 44.1641 80.5686 43.9198 80.399ZM43.3023 83.8831C42.9754 83.6779 42.5312 83.574 41.9822 83.574H39.7079L39.0193 86.1531H41.4482C42.1785 86.1531 42.7578 86.0137 43.1691 85.7401C43.5591 85.4799 43.7483 85.1326 43.7483 84.6761C43.7483 84.3307 43.6026 84.0713 43.3023 83.8831ZM43.3023 83.8831C42.9754 83.6779 42.5312 83.574 41.9822 83.574H39.7079L39.0193 86.1531H41.4482C42.1785 86.1531 42.7578 86.0137 43.1691 85.7401C43.5591 85.4799 43.7483 85.1326 43.7483 84.6761C43.7483 84.3307 43.6026 84.0713 43.3023 83.8831ZM43.9198 80.399C43.6542 80.2142 43.2686 80.121 42.7737 80.121H40.638L39.961 82.6361H41.9928C42.7018 82.6361 43.273 82.4905 43.6906 82.2036C44.0895 81.9292 44.2831 81.5846 44.2831 81.1485C44.2831 80.8137 44.1641 80.5686 43.9198 80.399ZM43.9198 80.399C43.6542 80.2142 43.2686 80.121 42.7737 80.121H40.638L39.961 82.6361H41.9928C42.7018 82.6361 43.273 82.4905 43.6906 82.2036C44.0895 81.9292 44.2831 81.5846 44.2831 81.1485C44.2831 80.8137 44.1641 80.5686 43.9198 80.399ZM43.3023 83.8831C42.9754 83.6779 42.5312 83.574 41.9822 83.574H39.7079L39.0193 86.1531H41.4482C42.1785 86.1531 42.7578 86.0137 43.1691 85.7401C43.5591 85.4799 43.7483 85.1326 43.7483 84.6761C43.7483 84.3307 43.6026 84.0713 43.3023 83.8831ZM43.3023 83.8831C42.9754 83.6779 42.5312 83.574 41.9822 83.574H39.7079L39.0193 86.1531H41.4482C42.1785 86.1531 42.7578 86.0137 43.1691 85.7401C43.5591 85.4799 43.7483 85.1326 43.7483 84.6761C43.7483 84.3307 43.6026 84.0713 43.3023 83.8831ZM43.9198 80.399C43.6542 80.2142 43.2686 80.121 42.7737 80.121H40.638L39.961 82.6361H41.9928C42.7018 82.6361 43.273 82.4905 43.6906 82.2036C44.0895 81.9292 44.2831 81.5846 44.2831 81.1485C44.2831 80.8137 44.1641 80.5686 43.9198 80.399ZM43.9198 80.399C43.6542 80.2142 43.2686 80.121 42.7737 80.121H40.638L39.961 82.6361H41.9928C42.7018 82.6361 43.273 82.4905 43.6906 82.2036C44.0895 81.9292 44.2831 81.5846 44.2831 81.1485C44.2831 80.8137 44.1641 80.5686 43.9198 80.399ZM43.3023 83.8831C42.9754 83.6779 42.5312 83.574 41.9822 83.574H39.7079L39.0193 86.1531H41.4482C42.1785 86.1531 42.7578 86.0137 43.1691 85.7401C43.5591 85.4799 43.7483 85.1326 43.7483 84.6761C43.7483 84.3307 43.6026 84.0713 43.3023 83.8831ZM43.3023 83.8831C42.9754 83.6779 42.5312 83.574 41.9822 83.574H39.7079L39.0193 86.1531H41.4482C42.1785 86.1531 42.7578 86.0137 43.1691 85.7401C43.5591 85.4799 43.7483 85.1326 43.7483 84.6761C43.7483 84.3307 43.6026 84.0713 43.3023 83.8831ZM43.9198 80.399C43.6542 80.2142 43.2686 80.121 42.7737 80.121H40.638L39.961 82.6361H41.9928C42.7018 82.6361 43.273 82.4905 43.6906 82.2036C44.0895 81.9292 44.2831 81.5846 44.2831 81.1485C44.2831 80.8137 44.1641 80.5686 43.9198 80.399ZM43.9198 80.399C43.6542 80.2142 43.2686 80.121 42.7737 80.121H40.638L39.961 82.6361H41.9928C42.7018 82.6361 43.273 82.4905 43.6906 82.2036C44.0895 81.9292 44.2831 81.5846 44.2831 81.1485C44.2831 80.8137 44.1641 80.5686 43.9198 80.399ZM43.3023 83.8831C42.9754 83.6779 42.5312 83.574 41.9822 83.574H39.7079L39.0193 86.1531H41.4482C42.1785 86.1531 42.7578 86.0137 43.1691 85.7401C43.5591 85.4799 43.7483 85.1326 43.7483 84.6761C43.7483 84.3307 43.6026 84.0713 43.3023 83.8831ZM43.9198 80.399C43.6542 80.2142 43.2686 80.121 42.7737 80.121H40.638L39.961 82.6361H41.9928C42.7018 82.6361 43.273 82.4905 43.6906 82.2036C44.0895 81.9292 44.2831 81.5846 44.2831 81.1485C44.2831 80.8137 44.1641 80.5686 43.9198 80.399ZM43.3023 83.8831C42.9754 83.6779 42.5312 83.574 41.9822 83.574H39.7079L39.0193 86.1531H41.4482C42.1785 86.1531 42.7578 86.0137 43.1691 85.7401C43.5591 85.4799 43.7483 85.1326 43.7483 84.6761C43.7483 84.3307 43.6026 84.0713 43.3023 83.8831ZM43.3023 83.8831C42.9754 83.6779 42.5312 83.574 41.9822 83.574H39.7079L39.0193 86.1531H41.4482C42.1785 86.1531 42.7578 86.0137 43.1691 85.7401C43.5591 85.4799 43.7483 85.1326 43.7483 84.6761C43.7483 84.3307 43.6026 84.0713 43.3023 83.8831ZM43.9198 80.399C43.6542 80.2142 43.2686 80.121 42.7737 80.121H40.638L39.961 82.6361H41.9928C42.7018 82.6361 43.273 82.4905 43.6906 82.2036C44.0895 81.9292 44.2831 81.5846 44.2831 81.1485C44.2831 80.8137 44.1641 80.5686 43.9198 80.399ZM43.9198 80.399C43.6542 80.2142 43.2686 80.121 42.7737 80.121H40.638L39.961 82.6361H41.9928C42.7018 82.6361 43.273 82.4905 43.6906 82.2036C44.0895 81.9292 44.2831 81.5846 44.2831 81.1485C44.2831 80.8137 44.1641 80.5686 43.9198 80.399ZM43.3023 83.8831C42.9754 83.6779 42.5312 83.574 41.9822 83.574H39.7079L39.0193 86.1531H41.4482C42.1785 86.1531 42.7578 86.0137 43.1691 85.7401C43.5591 85.4799 43.7483 85.1326 43.7483 84.6761C43.7483 84.3307 43.6026 84.0713 43.3023 83.8831ZM43.3023 83.8831C42.9754 83.6779 42.5312 83.574 41.9822 83.574H39.7079L39.0193 86.1531H41.4482C42.1785 86.1531 42.7578 86.0137 43.1691 85.7401C43.5591 85.4799 43.7483 85.1326 43.7483 84.6761C43.7483 84.3307 43.6026 84.0713 43.3023 83.8831ZM43.9198 80.399C43.6542 80.2142 43.2686 80.121 42.7737 80.121H40.638L39.961 82.6361H41.9928C42.7018 82.6361 43.273 82.4905 43.6906 82.2036C44.0895 81.9292 44.2831 81.5846 44.2831 81.1485C44.2831 80.8137 44.1641 80.5686 43.9198 80.399Z" fill="white"/>
<path d="M6.77672 88.9385L6.4951 89.9856L4.11328 98.8535H6.87623L8.88758 91.3471H12.2458L10.2193 98.8535H12.9822L15.3658 89.982L15.6466 88.9385H6.77672Z" fill="white"/>
<path d="M17.3675 88.9395L17.0876 89.9821L14.7031 98.8544H22.7228L23.3464 96.5178H18.0471L18.4717 94.9458H23.2043L23.7853 92.7779H19.0528L19.4641 91.277H24.6782L25.0326 89.9794L25.316 88.9395H17.3675Z" fill="white"/>
<path d="M26.1942 88.9395L25.9134 89.9786L25.543 91.348H28.5182L26.4918 98.8544H29.2547L31.267 91.348H34.2422L34.6056 89.975L34.8801 88.9395H26.1942Z" fill="white"/>
<path d="M35.9807 88.9395L35.7027 89.975L33.3164 98.8544H41.336L41.9597 96.5178H36.6604L37.0859 94.9458H41.8185L42.3995 92.7779H37.6669L38.0774 91.277H43.2914L43.6477 89.9714L43.9293 88.9395H35.9807Z" fill="white"/>
<path d="M52.1095 89.9883C52.1024 89.9812 52.0953 89.9741 52.0882 89.9679C51.3872 89.2823 50.2608 88.9395 48.7096 88.9395H45.4642L45.187 89.9706L42.8008 98.8544H45.5637L46.3287 96.008H47.958C49.4416 96.008 50.6339 95.6465 51.5356 94.9245C52.4382 94.2016 52.8896 93.2317 52.8896 92.0132C52.8896 91.1828 52.6292 90.507 52.1095 89.9883ZM49.5029 93.4511C49.1245 93.73 48.6003 93.8694 47.9296 93.8694H46.8955L47.5902 91.2486H48.6101C49.1387 91.2486 49.5314 91.3765 49.7863 91.6313C49.9747 91.8196 50.0697 92.0514 50.0697 92.325C50.0697 92.7975 49.8805 93.1731 49.5029 93.4511Z" fill="white"/>
<path d="M54.9695 88.9395L54.695 89.967L52.3203 98.8544H57.4633C58.7852 98.8544 59.8647 98.5241 60.7006 97.8633C61.5366 97.2025 61.9551 96.2816 61.9551 95.1012C61.9551 94.3268 61.645 93.6874 61.0267 93.182C60.4075 92.6767 59.5741 92.4244 58.5258 92.4244H56.7828L57.0946 91.277H62.1816L62.5317 89.9635L62.8053 88.9395H54.9695ZM58.0585 94.492C58.3988 94.492 58.6653 94.5746 58.859 94.7398C59.0527 94.9058 59.1495 95.1066 59.1495 95.3419C59.1495 95.7478 58.9985 96.0506 58.6955 96.2487C58.3935 96.4467 58.0106 96.5462 57.5486 96.5462H55.6776L56.2302 94.492H58.0585Z" fill="white"/>
<path d="M71.1699 88.9395L70.4316 89.9599L67.7699 93.6421L66.9819 89.9617L66.7634 88.9395H63.8449L64.1124 89.9626L65.7577 96.2629C65.4263 96.5462 65.1056 96.6874 64.7938 96.6874C64.378 96.6874 64.0333 96.5746 63.7597 96.3482L62.1445 98.3304C62.7771 98.7745 63.5846 98.9965 64.5672 98.9965C65.3321 98.9965 66.0269 98.8056 66.6505 98.4228C67.2733 98.04 67.9201 97.4006 68.5917 96.5036L73.5073 89.959L74.2731 88.9395H71.1699Z" fill="white"/>
<path d="M81.6447 89.9883C81.634 89.9777 81.6225 89.9661 81.6109 89.9555C80.9091 89.2787 79.787 88.9395 78.2447 88.9395H74.9994L74.7258 89.9581L72.3359 98.8544H75.0989L75.8638 96.008H77.4931C78.9759 96.008 80.169 95.6465 81.0708 94.9245C81.9734 94.2016 82.4247 93.2317 82.4247 92.0132C82.4247 91.1828 82.1644 90.507 81.6447 89.9883ZM79.0381 93.4511C78.6596 93.73 78.1355 93.8694 77.4647 93.8694H76.4306L77.1253 91.2486H78.1452C78.6738 91.2486 79.0665 91.3765 79.3215 91.6313C79.5098 91.8196 79.6049 92.0514 79.6049 92.325C79.6049 92.7975 79.4157 93.1731 79.0381 93.4511Z" fill="white"/>
<path d="M84.4859 88.9229L84.2087 89.9593L81.8242 98.8805H84.6174L86.6207 91.4078L86.6296 91.3741H89.0612L90.5022 89.9566L91.5532 88.9229H84.4859ZM84.5845 98.8388H81.8802L81.9886 98.432L84.2522 89.9593L84.509 89.0001L84.5179 88.9655H91.4492L90.4418 89.9566L89.0443 91.3315H86.5967L85.6781 94.757L84.5845 98.8388Z" fill="white"/>
<path d="M89.8588 88.9173C89.0583 88.9288 88.2579 88.9404 87.4574 88.9519C87.2726 88.9546 87.0878 88.9572 86.903 88.9599C86.1053 88.9715 85.3066 88.983 84.5088 88.9945H84.5017L84.2449 89.9537L81.9777 98.437L81.8604 98.8749L81.8516 98.9095H84.6012C84.6038 98.898 84.6074 98.8864 84.6101 98.8749C85.2773 96.3837 85.9444 93.8934 86.6125 91.4022H86.6205C88.1672 91.3916 89.7131 91.3809 91.2598 91.3694C91.6 90.8969 91.9412 90.4235 92.2823 89.9502H92.2832C92.5418 89.5905 92.8012 89.2308 93.0606 88.8711C91.9936 88.8862 90.9257 88.9022 89.8588 88.9173Z" fill="white"/>
<path d="M97.511 88.8711H94.8183L87.918 98.8562H90.9075L92.0979 97.0862H95.9234L96.1642 98.8562H99.0551L97.511 88.8711ZM93.4865 94.9476L95.3424 92.1003L95.6969 94.9476H93.4865Z" fill="white"/>
<path d="M93.9412 87.0485V87.719C93.3922 88.4713 92.8432 89.2235 92.2941 89.9758H92.2932C91.6998 89.9758 91.1063 89.9767 90.5129 89.9767H90.4525C88.3896 89.9776 86.3258 89.9784 84.2629 89.9793H84.2194C83.3514 89.9793 82.4843 89.9802 81.6164 89.9802C79.3216 89.9811 77.026 89.982 74.7312 89.9829C74.327 89.9829 73.9219 89.9838 73.5168 89.9838C72.4915 89.9838 71.4663 89.9847 70.4411 89.9847C69.2915 89.9856 68.1419 89.9855 66.9914 89.9864C66.0355 89.9864 65.0787 89.9873 64.1219 89.9873C63.5924 89.9873 63.0629 89.9882 62.5325 89.9882C59.9206 89.9891 57.3087 89.99 54.6959 89.9918C53.8261 89.9918 52.9564 89.9918 52.0866 89.9927C49.7865 89.9935 47.4865 89.9944 45.1855 89.9953C44.6746 89.9953 44.1629 89.9962 43.6512 89.9962C41.0029 89.9971 38.3545 89.998 35.7062 89.9998H34.6046C31.7075 90.0015 28.8104 90.0024 25.9124 90.0033C25.6192 90.0033 25.326 90.0042 25.032 90.0042L17.087 90.0069C16.5157 90.0078 15.9436 90.0078 15.3714 90.0078C12.4148 90.0095 9.45732 90.0104 6.5007 90.0113C4.6466 90.0122 2.7916 90.0131 0.9375 90.014C1.59226 89.021 2.24701 88.0281 2.90266 87.0352C4.04426 87.0352 5.18497 87.0352 6.32657 87.036H10.2551L10.2391 87.0964H11.235L11.251 87.036C12.4948 87.0369 13.7377 87.0369 14.9814 87.0369L14.9654 87.0964H20.7294L20.7454 87.0378H21.8977C22.1207 87.1275 22.3978 87.171 22.7381 87.171C23.0046 87.171 23.2525 87.1284 23.4755 87.0449C23.4817 87.0431 23.487 87.0405 23.4933 87.0378C25.0151 87.0387 26.536 87.0387 28.0579 87.0387L28.0428 87.0964H29.0387L29.0538 87.0387C29.6517 87.0387 30.2505 87.0396 30.8484 87.0396L30.8333 87.0964H36.5981L36.6132 87.0405H37.7877L37.7726 87.0964H41.4186C41.7047 87.0964 41.9757 87.0778 42.2306 87.0405C43.3056 87.0414 44.3797 87.0414 45.4547 87.0414L45.4396 87.0964L46.7597 87.0938L46.8077 87.0414C48.023 87.0414 49.2375 87.0423 50.4528 87.0423L50.4377 87.0938L51.8467 87.0964L51.861 87.0423H52.6579L52.5033 87.608L52.1763 88.8034L53.2993 88.8168L53.8457 87.608L54.0775 87.0947L59.3573 87.0813L59.249 87.608L58.9949 88.8381L60.0947 88.8017L60.4794 87.608L60.6615 87.044H61.6752L61.661 87.0964H67.4214L67.4365 87.0449H68.698L68.6838 87.0964L70.3869 87.0938L70.402 87.0449C71.326 87.0449 72.2508 87.0449 73.1747 87.0458L73.1632 87.0938L74.9729 87.0964L74.9862 87.0458H76.2397L76.2246 87.1018C76.9549 87.1018 77.6852 87.1018 78.4154 87.1009C78.4359 87.0831 78.4563 87.0645 78.4767 87.0458C79.0737 87.0467 79.6716 87.0467 80.2687 87.0467L80.2518 87.0938L82.6327 87.0964L82.646 87.0467H83.9165L83.9031 87.0964H89.6715L89.6831 87.0476C91.1028 87.0485 92.5216 87.0485 93.9412 87.0485Z" fill="white"/>
</svg>
