<svg width="140" height="113" viewBox="0 0 140 113" fill="none" xmlns="http://www.w3.org/2000/svg">
<path fill-rule="evenodd" clip-rule="evenodd" d="M69.6254 112.299C39.605 112.299 15.1211 87.2296 15.1211 56.491C15.1211 25.7524 39.605 0.682617 69.6254 0.682617C99.6457 0.682617 124.13 25.7524 124.13 56.491C124.13 87.2296 99.6457 112.299 69.6254 112.299Z" fill="white"/>
<path fill-rule="evenodd" clip-rule="evenodd" d="M69.6345 113C39.2212 113 14.418 87.6234 14.418 56.4975C14.418 25.3766 39.2261 0 69.6345 0C100.043 0 124.846 25.3766 124.846 56.4975C124.851 87.6184 100.048 113 69.6345 113Z" fill="black"/>
<path fill-rule="evenodd" clip-rule="evenodd" d="M69.6237 110.173C40.7333 110.173 17.168 86.0585 17.168 56.4969C17.168 26.9353 40.7333 2.82129 69.6237 2.82129C98.5142 2.82129 122.079 26.9303 122.079 56.4969C122.079 86.0585 98.5142 110.173 69.6237 110.173Z" fill="white"/>
<path fill-rule="evenodd" clip-rule="evenodd" d="M69.6231 105.937C43.012 105.937 21.3086 83.7295 21.3086 56.4968C21.3086 29.2692 43.012 7.06152 69.6231 7.06152C96.2341 7.06152 117.933 29.2692 117.933 56.4968C117.933 83.7245 96.2341 105.937 69.6231 105.937Z" fill="#E30613"/>
<path fill-rule="evenodd" clip-rule="evenodd" d="M69.6282 16.9463C90.973 16.9463 108.28 34.6571 108.28 56.4975C108.28 78.338 90.973 96.0488 69.6282 96.0488C48.2882 96.0488 30.9766 78.338 30.9766 56.4975C30.9766 34.6621 48.2833 16.9463 69.6282 16.9463Z" fill="white"/>
<path fill-rule="evenodd" clip-rule="evenodd" d="M0.601562 47.0801H138.638V75.3288H0.601562V47.0801Z" fill="#FFCC00"/>
<path fill-rule="evenodd" clip-rule="evenodd" d="M22.719 66.0768L17.1973 66.0818V57.6062H22.719V66.0768ZM22.719 54.7793H14.4414V68.8986H22.7239L25.4798 66.0768V57.6062L22.719 54.7793Z" fill="black"/>
<path fill-rule="evenodd" clip-rule="evenodd" d="M36.512 66.0768H30.9952V57.6012H36.512V66.0768ZM39.2728 54.7793H28.2344V68.8986H39.2728V54.7793Z" fill="black"/>
<path fill-rule="evenodd" clip-rule="evenodd" d="M50.3098 60.4331H44.7882V57.6062H50.3098V60.4331ZM42.0273 54.7843V68.9037H44.7833V63.2549H53.0658V54.7793L42.0273 54.7843Z" fill="black"/>
<path fill-rule="evenodd" clip-rule="evenodd" d="M64.1028 66.0768H58.5811V57.6012H64.1028V66.0768ZM66.8636 54.7793H55.8203V68.8986H66.8636V54.7793Z" fill="black"/>
<path fill-rule="evenodd" clip-rule="evenodd" d="M94.4573 54.7793V60.428H88.9356V54.7793H86.1797V68.8986H88.9356V63.2499L94.4573 63.2549V68.8986H97.2181V54.7793H94.4573Z" fill="black"/>
<path fill-rule="evenodd" clip-rule="evenodd" d="M108.259 66.0768H102.737V57.6012H108.259V66.0768ZM111.015 54.7793H99.9766V68.8986H111.015V54.7793Z" fill="black"/>
<path fill-rule="evenodd" clip-rule="evenodd" d="M124.82 57.6012V54.7793H113.781V68.8986H124.82V66.0768H116.542V63.2549L122.059 63.2499V60.428H116.542V57.6012H124.82Z" fill="black"/>
<path fill-rule="evenodd" clip-rule="evenodd" d="M71.0925 61.1322L69.6875 55.4986L72.3943 54.7793L73.7944 60.4029L73.7698 60.4079V60.418L71.0925 61.1322Z" fill="black"/>
<path fill-rule="evenodd" clip-rule="evenodd" d="M75.1383 68.9037V63.2499H73.7579V63.26H73.7383V63.2499H73.7579V60.428H73.7383V60.418H73.7579V60.428H75.1383V54.7793H77.8992V60.428H79.2747V60.418H79.2845V60.428H79.2747V63.2499H79.2845V63.26H79.2747V63.2499H77.8992V68.9037H75.1383Z" fill="black"/>
<path fill-rule="evenodd" clip-rule="evenodd" d="M81.9646 61.1448L83.3647 55.5111L80.6628 54.7969L79.2578 60.4205L79.2873 60.4255V60.4356L81.9646 61.1448Z" fill="black"/>
<path fill-rule="evenodd" clip-rule="evenodd" d="M81.9831 62.5303L83.3881 68.1589L80.6862 68.8782L79.2812 63.2546L79.3107 63.2496V63.2395L81.9831 62.5303Z" fill="black"/>
<path fill-rule="evenodd" clip-rule="evenodd" d="M71.0563 62.54L69.6562 68.1687L72.3581 68.888L73.7631 63.2644L73.7336 63.2593V63.2493L71.0563 62.54Z" fill="black"/>
<path fill-rule="evenodd" clip-rule="evenodd" d="M65.1308 25.2251H75.6632C76.9159 25.2251 77.2303 26.1104 77.3924 26.4977L78.031 29.39C78.1882 29.8125 78.1587 31.1555 77.0338 31.1555H63.5293C62.3798 31.1555 62.0899 30.2048 62.3454 29.5509L63.3328 26.4926C63.5981 25.8186 64.2023 25.2251 65.1308 25.2251ZM63.4212 23.7412C62.0113 23.7412 61.3875 24.541 60.8716 25.8488L59.1474 31.1656H59.1179C58.0568 31.1656 57.2266 32.0156 57.2266 33.0971V38.1573C57.2266 39.2337 58.0568 40.0889 59.1179 40.0889H81.455C82.5161 40.0889 83.3463 39.2388 83.3463 38.1573V33.0971C83.3463 32.081 82.58 31.2662 81.5877 31.2008L80.055 25.8488C79.603 24.6718 78.9546 23.7412 77.5447 23.7412H63.4212ZM76.0562 40.6774H80.4381V43.2477C80.4381 43.967 79.8978 44.5254 79.1904 44.5254H77.2991C76.6015 44.5254 76.0562 43.967 76.0562 43.2477V40.6774ZM78.989 34.1333C79.7897 34.1333 80.4381 34.7973 80.4381 35.6222C80.4381 36.4421 79.7897 37.106 78.989 37.106C78.1882 37.106 77.5349 36.4421 77.5349 35.6222C77.5349 34.7973 78.1882 34.1333 78.989 34.1333ZM61.579 34.1333C62.3798 34.1333 63.0282 34.7973 63.0282 35.6222C63.0282 36.4421 62.3798 37.106 61.579 37.106C60.7783 37.106 60.1249 36.4421 60.1249 35.6222C60.1249 34.7973 60.7783 34.1333 61.579 34.1333ZM60.1249 40.6774H64.5118V43.2477C64.5118 43.967 63.9665 44.5254 63.264 44.5254H61.3776C60.6702 44.5254 60.1249 43.967 60.1249 43.2477V40.6774Z" fill="black"/>
<path fill-rule="evenodd" clip-rule="evenodd" d="M89.9028 34.8714H95.1641C95.788 34.8714 95.9501 35.314 96.0287 35.5102L96.348 36.9538C96.4266 37.1651 96.4168 37.8391 95.8518 37.8391H89.0971C88.5224 37.8391 88.3799 37.3663 88.5076 37.0343L89.0038 35.5102C89.1364 35.1631 89.441 34.8714 89.9028 34.8714ZM89.048 34.127C88.3455 34.127 88.0311 34.5243 87.7757 35.1833L86.9111 37.8391H86.8963C86.3707 37.8391 85.9531 38.2667 85.9531 38.8049V41.335C85.9531 41.8782 86.3707 42.3008 86.8963 42.3008H98.0625C98.5881 42.3008 99.0057 41.8732 99.0057 41.335V38.8049C99.0057 38.3019 98.6225 37.8894 98.1263 37.8542L97.36 35.1833C97.134 34.5947 96.8098 34.127 96.1073 34.127H89.048ZM95.3655 42.5975H97.5565V43.8802C97.5565 44.2424 97.2863 44.519 96.9326 44.519H95.9894C95.6406 44.519 95.3655 44.2424 95.3655 43.8802V42.5975ZM96.8294 39.323C97.2322 39.323 97.5565 39.655 97.5565 40.0674C97.5565 40.4749 97.2322 40.8068 96.8294 40.8068C96.4315 40.8068 96.1073 40.4749 96.1073 40.0674C96.1073 39.655 96.4315 39.323 96.8294 39.323ZM88.1294 39.323C88.5273 39.323 88.8515 39.655 88.8515 40.0674C88.8515 40.4749 88.5273 40.8068 88.1294 40.8068C87.7265 40.8068 87.4023 40.4749 87.4023 40.0674C87.4023 39.655 87.7265 39.323 88.1294 39.323ZM87.4023 42.5975H89.5933V43.8802C89.5933 44.2424 89.3182 44.519 88.9645 44.519H88.0262C87.6725 44.519 87.4023 44.2424 87.4023 43.8802V42.5975Z" fill="black"/>
<path fill-rule="evenodd" clip-rule="evenodd" d="M45.6147 34.8714H50.8809C51.5048 34.8714 51.6669 35.314 51.7455 35.5102L52.0648 36.9538C52.1434 37.1651 52.1287 37.8391 51.5638 37.8391H44.814C44.2392 37.8391 44.0918 37.3663 44.2196 37.0343L44.7157 35.5102C44.8484 35.1631 45.1529 34.8714 45.6147 34.8714ZM44.7599 34.127C44.0575 34.127 43.7431 34.5243 43.4876 35.1833L42.623 37.8391H42.6034C42.0728 37.8391 41.6602 38.2667 41.6602 38.8049V41.335C41.6602 41.8782 42.0728 42.3008 42.6034 42.3008H53.7695C54.3 42.3008 54.7176 41.8732 54.7176 41.335V38.8049C54.7176 38.3019 54.3344 37.8894 53.8382 37.8542L53.067 35.1833C52.841 34.5947 52.5168 34.127 51.8143 34.127H44.7599ZM51.0774 42.5975H53.2684V43.8802C53.2684 44.2424 52.9982 44.519 52.6445 44.519H51.6964C51.3476 44.519 51.0725 44.2424 51.0725 43.8802V42.5975H51.0774ZM52.5463 39.323C52.9491 39.323 53.2684 39.655 53.2684 40.0674C53.2684 40.4749 52.9442 40.8068 52.5463 40.8068C52.1483 40.8068 51.8192 40.4749 51.8192 40.0674C51.8192 39.655 52.1483 39.323 52.5463 39.323ZM43.8413 39.323C44.2392 39.323 44.5684 39.655 44.5684 40.0674C44.5684 40.4749 44.2392 40.8068 43.8413 40.8068C43.4385 40.8068 43.1143 40.4749 43.1143 40.0674C43.1143 39.655 43.4385 39.323 43.8413 39.323ZM43.1143 42.5975H45.3052V43.8802C45.3052 44.2424 45.035 44.519 44.6813 44.519H43.7431C43.3894 44.519 43.1143 44.2424 43.1143 43.8802V42.5975Z" fill="black"/>
<path fill-rule="evenodd" clip-rule="evenodd" d="M138.037 74.7683L1.21339 74.7632V47.6412H138.037V74.7683ZM0 75.895H139.25V46.5195H0V75.895Z" fill="black"/>
<path d="M60.6697 89.0034C62.674 89.0034 63.9857 87.932 63.9857 86.3274C63.9857 85.1856 63.2439 84.4512 62.4087 84.1293V84.0891C63.2586 83.6565 63.6565 82.907 63.6565 82.1475C63.6565 81.0761 62.8214 79.8789 60.8024 79.8789C59.0781 79.8789 57.7664 80.8698 57.7664 82.3638C57.7664 83.1384 58.1791 83.8577 59.0142 84.2903V84.3305C58.071 84.753 57.4766 85.4824 57.4766 86.5437C57.4717 87.7409 58.4836 89.0034 60.6697 89.0034ZM60.7483 87.5749C59.9918 87.5749 59.5153 86.9763 59.53 86.3375C59.53 85.6987 59.9132 85.2108 60.5764 85.0196C61.3722 85.2359 61.9273 85.6987 61.9273 86.4733C61.9322 87.1021 61.4655 87.5749 60.7483 87.5749ZM60.709 81.2773C61.4508 81.2773 61.7554 81.8205 61.7554 82.3638C61.7554 82.9221 61.3427 83.3547 60.8809 83.4905C60.1932 83.2742 59.6626 82.8919 59.6626 82.2933C59.6626 81.735 60.0213 81.2773 60.709 81.2773ZM65.0615 80.0248V81.7249H69.0161V81.7501L65.4594 88.8525H67.5964L71.153 81.3276V80.0248H65.0615ZM73.6142 89.0034C74.3314 89.0034 74.8079 88.4753 74.8079 87.756C74.8079 87.0065 74.3314 86.4934 73.6289 86.4934C72.9264 86.4934 72.4352 87.0216 72.4352 87.756C72.4352 88.4753 72.9264 89.0034 73.6142 89.0034ZM81.5331 80.0248H76.7827L76.2129 84.6575C76.5715 84.6021 76.9006 84.577 77.3821 84.577C79.1064 84.577 79.8089 85.1353 79.8089 86.0457C79.8089 86.9813 78.9197 87.3888 78.0846 87.3888C77.3035 87.3888 76.5175 87.1423 76.1343 86.9562L75.7757 88.5054C76.2522 88.762 77.1266 89.0084 78.1779 89.0084C80.5015 89.0084 81.877 87.5548 81.877 85.9099C81.877 84.8788 81.4791 84.1444 80.8307 83.6967C80.2215 83.249 79.3864 83.0579 78.5611 83.0579C78.3498 83.0579 78.1877 83.0579 78.006 83.0831L78.1926 81.7249H81.5331V80.0248Z" fill="black"/>
<path d="M38.7148 92.0087L40.0216 93.0449L41.2399 91.4353C41.3185 91.5107 41.4315 91.6214 41.5788 91.7371C42.3059 92.3156 43.0035 92.6023 43.6863 92.557C44.2021 92.5268 44.6835 92.215 45.0372 91.7472C45.4302 91.224 45.5138 90.6003 45.3615 90.1023C45.219 89.5993 44.826 89.0611 44.1235 88.5028C43.2933 87.8438 42.7235 87.4716 42.3157 87.2402L38.7148 92.0087ZM42.9249 89.202C43.0035 89.2422 43.1558 89.3378 43.3817 89.5189C43.9074 89.9363 43.9909 90.3689 43.7256 90.721C43.3965 91.1586 42.8512 91.1083 42.3403 90.7009C42.1732 90.5701 42.0799 90.4846 42.016 90.4092L42.9249 89.202ZM55.0293 100.001L54.99 101.556L56.7487 102.159L56.7339 95.7209L54.5724 94.9815L50.8979 100.157L52.5681 100.731L53.3885 99.4482L55.0293 100.001ZM53.9977 98.3315L54.597 97.411C54.7984 97.1092 55.0195 96.7168 55.2209 96.41L55.2356 96.415C55.2258 96.7822 55.2061 97.245 55.2012 97.6072L55.1717 98.7339L53.9977 98.3315ZM67.846 97.8587L67.792 99.5437C67.7723 100.152 67.6839 100.726 67.507 101.264C67.3498 101.737 67.1337 102.195 66.8439 102.617L66.2937 102.652L66.2642 104.689L67.5906 104.73L67.6544 103.96L71.2946 104.081L71.3093 104.84L72.6406 104.881L72.7536 102.874L72.0855 102.798L72.2378 98.0096L67.846 97.8587ZM69.3492 99.2771L70.5332 99.3174L70.4251 102.693L68.5338 102.627C68.7106 102.361 68.8629 102.049 68.9857 101.712C69.1871 101.158 69.305 100.525 69.3247 99.9562L69.3492 99.2771ZM80.5645 96.4653L82.559 102.215L84.4748 101.521L84.8236 99.5186C84.9612 98.749 85.0644 97.7782 85.0889 96.8677L85.1135 96.8577C85.31 97.748 85.5753 98.5428 85.8504 99.3274L86.3711 100.831L87.8301 100.303L85.8356 94.5539L84.1604 95.1626L83.8117 97.4613C83.6938 98.256 83.5611 99.252 83.4776 100.178L83.4432 100.188C83.1829 99.3023 82.8685 98.3617 82.5639 97.4915L82.0235 95.9372L80.5645 96.4653ZM99.2418 93.2562C100.804 91.9081 100.927 90.047 99.7675 88.6285C98.6425 87.2553 96.8888 87.0239 95.3462 88.3519C93.8479 89.6396 93.6956 91.5359 94.8697 92.9644C95.975 94.3074 97.7337 94.5539 99.2369 93.2612L99.2418 93.2562ZM98.4657 92.1948C97.7828 92.7833 96.8593 92.562 96.201 91.7572C95.5427 90.9524 95.474 89.9716 96.1568 89.383C96.8396 88.7945 97.773 89.0309 98.4362 89.8357C99.0945 90.6405 99.1731 91.5912 98.4755 92.1898L98.4657 92.1948Z" fill="white"/>
<path d="M33.4184 35.6566C33.3889 36.0037 33.2219 36.557 32.9861 37.0248C32.3622 38.2672 31.3011 38.6042 30.2842 38.071C29.1151 37.4573 29.0266 36.2803 29.5375 35.2693C29.8225 34.7059 30.1663 34.3236 30.4414 34.0822L29.341 33.0611C29.0365 33.2723 28.5698 33.8558 28.1768 34.6305C27.1844 36.6073 27.4595 38.8356 29.5031 39.912C31.085 40.742 33.0058 40.3748 34.229 37.9302C34.6416 37.1052 34.8086 36.3809 34.8136 36.064L33.4184 35.6566ZM36.5821 30.7825L38.1786 31.3307L39.3773 29.6105L32.6914 27.5331L31.2225 29.6457L35.4031 35.3246L36.5379 33.6949L35.4718 32.3871L36.5821 30.7825ZM34.5188 31.366L33.7574 30.4153C33.5068 30.0984 33.1728 29.7312 32.9222 29.4093L32.9321 29.3942C33.3103 29.525 33.7868 29.696 34.1553 29.8167L35.3146 30.2141L34.5188 31.366ZM35.6339 23.9215L40.2026 28.8308L41.5486 27.518L39.7408 25.5713L41.5486 23.8108L43.3564 25.7575L44.7024 24.4446L40.1338 19.5353L38.7878 20.8481L40.4482 22.6338L38.6404 24.3943L36.98 22.6086L35.6339 23.9215ZM42.3346 17.8754L45.9109 23.5845L47.4583 22.5684L46.0288 20.2898L46.3285 20.0936C46.9671 19.6761 47.537 20.0282 48.0675 20.4809C48.4458 20.8079 48.7995 21.1449 49.2367 21.3964L50.9561 20.2646C50.2634 19.8472 49.61 19.3089 48.9763 18.8009C48.3623 18.308 47.7089 18.0665 46.9229 18.318L47.4682 14.4952L45.5179 15.7879L45.3656 19.0826L45.3018 19.1279L43.887 16.8694L42.3346 17.8754ZM53.2551 19.2737L54.945 18.489L52.8375 13.7256L54.5717 12.9208L53.9478 11.5073L48.8191 13.8865L49.443 15.3L51.1427 14.5103L53.2551 19.2737ZM55.3036 15.0435L55.6819 16.1853L58.4182 15.2346L58.0399 14.0928L55.3036 15.0435ZM58.8455 10.104L60.0147 16.7788L61.8422 16.4418L60.9334 11.276L63.2521 10.8484L64.156 16.0193L65.9834 15.6823L64.8142 9.0074L58.8455 10.104ZM72.1093 11.5023L69.4172 11.4319L69.4418 10.3957L72.3009 10.4711L72.3402 8.94201L67.6242 8.82129L67.4572 15.6018L72.3205 15.7275L72.3598 14.1984L69.3534 14.1179L69.3829 12.961L72.0749 13.0314L72.1093 11.5023ZM74.9635 15.9941L76.7909 16.3311L77.6948 11.1804L79.5714 11.5224L79.8367 9.99832L74.2954 8.98225L74.0301 10.5064L75.8674 10.8434L74.9635 15.9941ZM85.3583 14.3946L82.8087 13.5093L83.133 12.5284L85.8398 13.4691L86.3212 12.0204L81.8557 10.4711L79.7286 16.8945L84.3365 18.4941L84.818 17.0454L81.9687 16.0545L82.3322 14.9579L84.8818 15.8432L85.3583 14.3946ZM85.4762 18.9417L87.1121 19.8019L88.1192 17.7899C88.2174 17.8553 88.3697 17.9559 88.5515 18.0514C89.4603 18.5293 90.2807 18.7003 91.0175 18.5092C91.5727 18.3733 92.0393 17.9257 92.3292 17.3422C92.6583 16.6883 92.619 15.9891 92.3587 15.4811C92.0983 14.963 91.5677 14.4549 90.6884 13.9922C89.6469 13.4439 88.9543 13.1572 88.463 12.9912L85.4762 18.9417ZM89.5143 15.0032C89.6126 15.0334 89.7943 15.1038 90.0743 15.2497C90.7277 15.5917 90.9095 16.0495 90.6884 16.4871C90.4133 17.0354 89.814 17.0907 89.1753 16.7537C88.9641 16.643 88.8462 16.5726 88.7627 16.5022L89.5143 15.0032ZM95.0311 16.5927L91.214 22.0855C91.4744 22.3521 91.9362 22.7595 92.6731 23.2978C93.5377 23.9265 94.6479 24.4999 95.596 24.4396C96.1413 24.4044 96.662 24.1428 97.0403 23.5895C97.4578 22.9909 97.5119 22.3773 97.3399 21.8189C97.1287 21.1348 96.5785 20.5011 95.9792 20.0634C95.7286 19.8824 95.4486 19.7013 95.2226 19.5755L95.6648 18.9367L98.2782 20.833L99.1428 19.5856L95.0311 16.5927ZM94.4563 20.667C94.6282 20.7676 94.7658 20.8431 94.9132 20.9487C95.1686 21.1348 95.4486 21.4266 95.5469 21.7535C95.6107 21.9749 95.6009 22.2012 95.4437 22.4225C95.2718 22.669 95.0311 22.7746 94.7805 22.7897C94.4858 22.7998 94.1763 22.6841 93.9307 22.503C93.7636 22.3823 93.5868 22.2364 93.4591 22.1107L94.4563 20.667ZM100.852 21.0292L99.1919 26.1397C99.1674 26.2152 99.1379 26.2856 99.0495 26.3208C98.8333 26.4063 98.5238 26.3057 98.2438 26.009C98.0522 25.8027 97.9393 25.6518 97.8508 25.4858L96.6817 26.4315C96.7946 26.683 96.9125 26.8993 97.2122 27.2212C97.8754 27.9355 98.5533 28.1216 99.2902 28.0813C100.174 28.0361 101.265 27.6236 102.439 27.1608L105.441 25.9536L104.075 24.4899L102.13 25.4758C101.491 25.8078 101.044 26.0593 100.813 26.1749L100.793 26.1548C100.99 25.6971 101.186 25.2947 101.422 24.7464L102.311 22.5986L100.852 21.0292ZM101.098 31.366L102.164 32.9001L103.967 31.5873C104.026 31.6929 104.114 31.8488 104.232 32.0249C104.827 32.875 105.475 33.4132 106.217 33.5943C106.772 33.7351 107.386 33.5591 107.907 33.1768C108.491 32.7492 108.771 32.1154 108.766 31.537C108.771 30.9535 108.526 30.2543 107.951 29.4294C107.273 28.4536 106.782 27.8701 106.423 27.4928L101.098 31.366ZM106.453 29.7714C106.526 29.8419 106.654 29.9928 106.836 30.2543C107.263 30.868 107.219 31.3609 106.826 31.6426C106.34 31.9997 105.78 31.7633 105.362 31.1648C105.225 30.9686 105.156 30.8479 105.107 30.7473L106.453 29.7714ZM110.781 34.0922L104.748 36.894L105.514 38.6243L110.186 36.4564L111.296 38.9563L112.657 38.3225L110.781 34.0922Z" fill="white"/>
</svg>
