<svg width="318" height="39" viewBox="0 0 318 39" fill="none" xmlns="http://www.w3.org/2000/svg">
<path d="M10.3324 10.023L19.3952 0H31.5245L20.0007 11.6551L32.755 30.9906H20.3523L12.7934 18.6443L10.3324 21.1788V30.9906H0V0H10.3324V10.023Z" fill="white"/>
<path d="M40.7269 19.4864C40.7269 23.7491 42.348 25.5924 44.6723 25.5924C47.1138 25.5924 48.6178 23.7491 48.6178 19.4864C48.6178 16.1647 47.0748 13.8029 44.77 13.8029C41.6449 13.8221 40.7269 16.9519 40.7269 19.4864ZM44.6333 7.79297C52.739 7.79297 57.7197 12.478 57.7197 19.5056C57.7197 27.7621 52.0359 31.6408 44.6723 31.6408C37.3088 31.6408 31.625 27.6853 31.625 19.9665C31.625 12.1324 36.8791 7.79297 44.6333 7.79297Z" fill="white"/>
<path d="M70.6058 8.42676L74.5903 20.9651L78.5749 8.42676H89.0049V30.9881H80.9382V21.5987L81.8172 15.8384H81.6414L76.7389 30.9881H72.4614L67.5393 15.8384H67.3635L68.2425 22.1172V30.9881H60.1953V8.42676H70.6058Z" fill="white"/>
<path d="M102.774 8.42578L106.758 20.9641L110.743 8.42578H121.173V30.9871H113.106V21.5977L113.985 15.8374H113.809L108.907 30.9871H104.61L99.7073 15.8374H99.5315L100.41 22.1162V30.9871H92.3633V8.42578H102.774Z" fill="white"/>
<path d="M140.751 17.1631C140.751 15.0894 138.876 13.2461 136.727 13.2461C134.012 13.2461 132.489 14.7438 132.489 17.1631H140.751ZM132.489 21.733C132.489 24.4019 134.598 26.1684 137 26.1684C138.446 26.1684 139.754 25.5156 140.419 24.1907H149.13C147.567 29.7782 141.786 31.6408 136.434 31.6408C129.071 31.6408 123.387 27.5125 123.387 19.9281C123.387 12.5164 129.031 7.79297 136.395 7.79297C144.891 7.79297 149.872 13.2653 149.872 21.733H132.489Z" fill="white"/>
<path d="M168.149 19.6593C168.149 16.0878 166.567 14.3213 164.165 14.3213C161.977 14.3213 160.492 16.4719 160.492 19.4864C160.492 22.6354 161.84 24.786 164.204 24.786C166.626 24.786 168.149 22.7698 168.149 19.6593ZM159.75 8.42661V11.7868H159.828C161.098 9.02184 164.379 7.79297 167.016 7.79297C173.93 7.79297 177.27 13.3421 177.27 19.5441C177.27 28.415 171.665 31.6408 166.547 31.6408C164.047 31.6408 162.211 30.6423 160.688 28.7606V38.6492H151.566V8.42661H159.75Z" fill="white"/>
<path d="M195.59 17.0521C195.59 15.2856 194.282 13.8264 192.27 13.8264C188.852 13.8264 188.285 17.3018 188.285 19.9899C188.285 23.3885 189.594 25.635 192.27 25.635C194.633 25.635 195.551 24.0413 195.825 22.2748H205.024C204.243 29.1104 198.637 31.6642 192.29 31.6642C184.887 31.6642 179.203 27.5744 179.203 19.9515C179.203 12.2519 184.731 7.81641 192.29 7.81641C198.423 7.81641 204.204 10.3894 204.849 17.0713H195.59V17.0521Z" fill="white"/>
<path d="M215.34 24.6512C215.34 25.7649 216.434 26.5521 218.231 26.5521C221.434 26.5521 222.254 24.44 222.254 21.003C219.286 22.4239 215.34 21.7327 215.34 24.6512ZM207.332 15.3579C207.332 10.5768 210.789 7.77344 219.852 7.77344C230.712 7.77344 231.356 11.7289 231.356 17.1052V27.6466C231.356 28.9331 231.395 29.5859 232.587 30.5268V30.9492H223.172L222.743 28.549C220.165 30.9108 217.528 31.602 214.129 31.602C209.793 31.602 205.945 29.4899 205.945 24.8048C205.945 14.5706 222.274 19.2173 222.274 14.9931C222.274 13.361 220.262 13.1498 219.305 13.1498C218.036 13.1498 216.336 13.3994 216.102 15.3387H207.332V15.3579Z" fill="white"/>
<path d="M244.711 15.9728H251.45V8.42676H260.552V30.9881H251.45V22.5012H244.711V30.9881H235.609V8.42676H244.711V15.9728Z" fill="white"/>
<path d="M286.962 8.42578V14.9734H279.051V30.9871H269.93V14.9734H262V8.42578H286.962Z" fill="white"/>
<path d="M302.727 25.823H305.618C307.805 25.823 309.036 25.4774 309.036 23.7109C309.036 21.9828 307.844 21.5219 305.618 21.5219H302.727V25.823ZM302.727 8.42676V16.3376H307.805C314.505 16.3376 317.786 19.8706 317.786 23.6916C317.786 28.2999 314.505 30.9689 307.766 30.9689H293.977V13.5919H288.156V8.42676H302.727Z" fill="white"/>
</svg>
