<svg width="208" height="78" viewBox="0 0 208 78" fill="none" xmlns="http://www.w3.org/2000/svg">
<path d="M208 78V0H0V78H208Z" fill="#007F3E"/>
<path d="M58.7406 57.8553V31.8812C58.7406 28.2887 56.4222 25.999 52.1806 25.999C48.0199 25.999 45.5445 28.6144 45.5445 31.959V57.8504H38.9084V31.8812C38.9084 28.2887 36.6662 25.999 32.3484 25.999C28.1877 25.999 25.7123 28.6144 25.7123 31.959V57.8504H19.1523V20.8557H24.9935L25.2315 24.283C27.4689 21.5898 29.792 20.0342 34.5906 20.0342C38.5085 20.0342 41.7075 22.2412 43.3071 24.9344C45.3874 22.1586 48.7435 20.0342 54.2657 20.0342C60.7447 20.0342 65.3005 24.7691 65.3005 31.3027V57.8456H58.7406V57.8553Z" fill="white"/>
<path d="M87.1305 25.8396C83.2936 25.8396 79.4519 30.0884 78.6521 35.397H93.6095C93.6905 35.0712 93.6905 34.4976 93.6905 34.1719C93.6857 30.2488 91.1293 25.8396 87.1305 25.8396ZM100.246 35.8053L95.3662 40.9486H78.3331C78.495 46.2572 81.8511 52.7081 89.049 52.7081C92.9669 52.7081 96.0088 51.4831 98.7271 49.1156L97.2894 56.3833C95.2091 57.691 92.329 58.6681 88.0921 58.6681C79.052 58.6681 71.5352 50.9094 71.5352 39.393C71.5352 27.1424 79.2948 20.0352 86.8925 20.0352C95.4519 20.0352 100.327 27.0598 100.327 34.0018C100.327 34.4976 100.327 35.3143 100.246 35.8053Z" fill="white"/>
<path d="M125.908 26.3326H115.992V47.8926C115.992 50.751 117.991 52.4671 120.628 52.4671C121.99 52.4671 123.109 52.3018 124.066 51.8156L122.947 57.8583C122.228 58.184 121.266 58.3493 119.829 58.3493C114.069 58.3493 109.513 54.5915 109.513 47.8148V26.3326H103.434V20.8587H109.513V13.8341L115.992 10.3242V20.8587H126.869L125.908 26.3326Z" fill="white"/>
<path d="M149.399 26.2465C144.201 26.2465 138.441 29.839 138.441 38.988V57.8548H131.805V20.8553H138.041L138.279 26.4069C139.959 22.1581 144.115 20.3643 148.995 20.3643L150.033 26.2465C149.799 26.2465 149.642 26.2465 149.399 26.2465Z" fill="white"/>
<path d="M161.053 50.2594C159.882 50.7699 158.768 51.397 157.878 52.0241C159.549 53.5603 161.5 54.6978 163.671 55.3784C162.61 53.7887 161.719 52.0776 161.053 50.2594ZM158.435 40.1333H152.251C152.474 44.1147 153.922 47.6975 156.316 50.4296C157.43 49.6906 158.768 48.9517 160.272 48.2663C159.158 45.3689 158.544 42.4667 158.435 40.1333ZM168.013 48.3246C166.399 48.4948 164.728 48.835 163.057 49.4038C164.004 51.7907 165.285 54.1242 166.732 56.1173C167.18 56.2291 167.622 56.2875 168.013 56.2875V48.3246ZM168.013 40.1333H160.658C160.824 42.4667 161.381 44.9703 162.272 47.469C164.223 46.6718 166.227 46.1613 168.008 45.9912V40.1333H168.013ZM170.241 48.3246V56.2875C170.631 56.2875 171.078 56.2291 171.521 56.1173C172.968 54.129 174.249 51.7956 175.196 49.4038C173.525 48.8399 171.854 48.4948 170.241 48.3246ZM156.316 27.5667C153.922 30.2988 152.474 33.8816 152.251 37.863H158.435C158.601 35.4761 159.215 32.6322 160.272 29.73C158.768 29.0446 157.43 28.3057 156.316 27.5667ZM177.205 50.2594C176.539 52.0776 175.644 53.7839 174.587 55.3784C176.758 54.6978 178.709 53.5603 180.38 52.0241C179.49 51.397 178.371 50.7699 177.205 50.2594ZM168.013 32.0003C166.232 31.8301 164.223 31.3197 162.276 30.5224C161.386 32.9677 160.829 35.4129 160.662 37.8582H168.017V32.0003H168.013ZM170.241 40.1333V45.9912C172.021 46.1613 174.03 46.6718 175.977 47.469C176.867 44.9654 177.424 42.4618 177.591 40.1333H170.241ZM157.878 25.9722C158.768 26.541 159.829 27.1681 160.996 27.6785C161.719 25.8604 162.667 24.0957 163.671 22.6179C161.496 23.2985 159.549 24.436 157.878 25.9722ZM179.823 40.1333C179.714 42.4667 179.1 45.3641 177.986 48.2663C179.49 48.9469 180.828 49.6906 181.942 50.4296C184.336 47.6975 185.784 44.1147 186.007 40.1333H179.823ZM168.013 21.704C167.622 21.704 167.175 21.7623 166.732 21.8741C165.285 23.8624 164.004 26.084 163 28.5293C164.614 29.0981 166.399 29.4967 168.013 29.6668V21.704ZM175.977 30.5224C174.025 31.3197 172.021 31.8301 170.241 32.0003V37.8582H177.591C177.424 35.4129 176.872 32.9677 175.977 30.5224ZM171.521 21.879C171.074 21.7672 170.631 21.7088 170.241 21.7088V29.6717C171.854 29.5015 173.64 29.1029 175.253 28.5341C174.254 26.084 172.973 23.8673 171.521 21.879ZM181.937 27.5667C180.823 28.3057 179.485 29.0446 177.981 29.73C179.038 32.6322 179.652 35.4761 179.819 37.863H186.003C185.784 33.8767 184.332 30.2939 181.937 27.5667ZM174.587 22.6179C175.587 24.0957 176.539 25.8604 177.262 27.6785C178.433 27.1681 179.49 26.541 180.38 25.9722C178.709 24.436 176.758 23.2985 174.587 22.6179ZM169.127 59.1897C158.097 59.1897 149.352 50.2594 149.352 38.9957C149.352 27.732 158.097 18.8018 169.127 18.8018C180.157 18.8018 188.902 27.732 188.902 38.9957C188.902 50.2594 180.157 59.1897 169.127 59.1897Z" fill="white"/>
<path d="M185.947 17.6021C186.433 17.5875 186.547 17.3785 186.547 17.1208C186.547 16.868 186.433 16.7368 186.023 16.7368H185.4V17.6021H185.947ZM185.4 18.132V19.5953H184.881V16.2118H185.952C186.561 16.2118 187.19 16.3819 187.19 17.1451C187.19 17.534 186.956 17.8403 186.514 17.9327V17.9473C186.971 18.0396 187.023 18.2487 187.075 18.6133C187.118 18.9341 187.156 19.289 187.271 19.5904H186.614C186.576 19.4008 186.523 19.1869 186.499 18.9876C186.461 18.6959 186.461 18.4285 186.314 18.2681C186.185 18.132 186.014 18.1466 185.833 18.132H185.4ZM188.313 17.9424C188.313 16.6396 187.28 15.5798 186 15.5798C184.71 15.5798 183.667 16.6444 183.667 17.9424C183.667 19.2598 184.71 20.3245 186 20.3245C187.28 20.3196 188.313 19.255 188.313 17.9424ZM183.172 17.9424C183.172 16.3576 184.429 15.0742 185.995 15.0742C187.551 15.0742 188.803 16.3625 188.803 17.9424C188.803 19.5418 187.551 20.8252 185.995 20.8252C184.429 20.8252 183.172 19.5418 183.172 17.9424Z" fill="white"/>
</svg>
