<svg width="83" height="113" viewBox="0 0 83 113" fill="none" xmlns="http://www.w3.org/2000/svg">
<path d="M14.3556 90.7617H10.8483L6.09859 99.7589V90.7617H2.96094V112.806H6.09859V106.387L7.58091 103.569L11.1157 112.806H14.4539L9.49968 99.9242L14.3556 90.7617Z" fill="white"/>
<path d="M24.3844 107.548C24.3844 108.91 23.2914 110.015 21.9467 110.015C20.5862 110.015 19.4814 108.91 19.4814 107.548V90.7617H16.3477V107.386C16.3477 110.476 18.8601 112.991 21.9467 112.991C25.0175 112.991 27.5182 110.476 27.5182 107.386V90.7617H24.3844V107.548Z" fill="white"/>
<path d="M37.7751 107.386C37.7751 108.732 36.682 109.827 35.3373 109.827H32.872V93.7411H35.3373C36.682 93.7411 37.7751 94.8352 37.7751 96.1813V107.386ZM35.3373 90.7617H29.7383V112.802H35.3373C38.4081 112.802 40.9088 110.299 40.9088 107.225V96.3387C40.9088 93.2649 38.4081 90.7617 35.3373 90.7617Z" fill="white"/>
<path d="M49.8958 106.422H46.4161L48.1461 98.0586L49.8958 106.422ZM49.6678 90.7617H46.6481L41.9141 112.802H45.091L45.787 109.37H50.5288L51.2523 112.802H54.4568L49.6835 90.8404L49.6678 90.7617Z" fill="white"/>
<path d="M60.9193 90.582C57.8328 90.582 55.3203 93.097 55.3203 96.1866V107.396C55.3203 110.485 57.8328 113 60.9193 113C63.9941 113 66.4908 110.485 66.4908 107.396V103.668H60.6244V106.62H63.3571V107.557C63.3571 108.919 62.264 110.025 60.9193 110.025C59.5628 110.025 58.454 108.919 58.454 107.557V96.0291C58.454 94.6674 59.5589 93.5614 60.9193 93.5614C62.264 93.5614 63.3571 94.6674 63.3571 96.0291V97.4224H66.4908V96.1866C66.4908 93.097 63.9901 90.582 60.9193 90.582Z" fill="white"/>
<path d="M71.8447 96.0291C71.8447 94.6674 72.9495 93.5614 74.31 93.5614C75.6547 93.5614 76.7478 94.6674 76.7478 96.0291V107.557C76.7478 108.919 75.6547 110.025 74.31 110.025C72.9535 110.025 71.8447 108.919 71.8447 107.557V96.0291ZM74.3061 90.582C71.2195 90.582 68.707 93.097 68.707 96.1866V107.396C68.707 110.485 71.2195 113 74.3061 113C77.3808 113 79.8776 110.485 79.8776 107.396V96.1866C79.8815 93.097 77.3808 90.582 74.3061 90.582Z" fill="white"/>
<path fill-rule="evenodd" clip-rule="evenodd" d="M32.659 3.52552C53.3132 -1.31154 73.995 11.5427 78.8234 32.2133C83.6517 52.884 70.818 73.5901 50.1677 78.4271C29.5174 83.2602 8.82777 70.41 3.99547 49.7354C-0.840761 29.0647 12.0047 8.35865 32.659 3.52552Z" fill="#EF414A"/>
<path d="M41.4457 0C38.3159 0 35.1704 0.366026 32.0996 1.08234C10.1242 6.23032 -3.57057 28.31 1.56841 50.303C3.68377 59.3514 8.87388 67.4866 16.1754 73.2092C23.3668 78.8452 32.3276 81.9466 41.4024 81.9466C44.5322 81.9466 47.6738 81.5806 50.7446 80.8643C72.7121 75.7202 86.403 53.6366 81.264 31.6436C79.1526 22.5952 73.9703 14.4639 66.6688 8.74134C59.4774 3.10138 50.5205 0 41.4457 0ZM41.4418 2.50315C58.8876 2.50315 74.6899 14.4797 78.8302 32.2103C83.6585 52.881 70.8248 73.587 50.1745 78.4241C47.2374 79.1129 44.2963 79.4435 41.4024 79.4435C23.9566 79.4435 8.15041 67.4669 4.00226 49.7324C-0.830042 29.0617 12.0155 8.35563 32.6697 3.52251C35.6068 2.82982 38.5479 2.50315 41.4418 2.50315Z" fill="white"/>
<path fill-rule="evenodd" clip-rule="evenodd" d="M43.8909 34.8314C44.7048 35.5359 45.9316 35.4572 46.6354 34.6464C47.3392 33.8396 47.2527 32.6116 46.4467 31.8992C45.6367 31.1947 44.406 31.2774 43.7061 32.0881C43.0023 32.895 43.081 34.1269 43.8909 34.8314Z" fill="white"/>
<path fill-rule="evenodd" clip-rule="evenodd" d="M35.9258 54.9482C35.2298 56.4911 34.2783 57.9237 32.4303 59.7892C32.0017 60.2261 32.9808 61.0133 33.4251 61.6154C33.4998 63.3826 33.606 67.527 34.3058 68.7116L35.9336 68.6762C34.872 66.3305 35.3478 63.7683 35.391 61.0605C35.3242 60.6157 35.0608 60.2104 34.8406 59.7617C35.568 58.1205 36.3426 57.1129 36.7239 55.1135L35.9258 54.9482Z" fill="white"/>
<path fill-rule="evenodd" clip-rule="evenodd" d="M48.5946 56.5041L46.668 56.3545C46.837 58.2122 47.6391 59.3417 48.4806 60.4044C48.0952 62.5966 47.5133 65.084 47.6431 68.3468H49.3102C49.5972 65.454 50.2539 61.963 51.1071 59.9872C50.0258 59.0387 48.9642 57.3935 48.5946 56.5041Z" fill="white"/>
<path d="M47.7259 44.6551V43.8915C47.7259 43.7538 47.6119 43.6436 47.4743 43.6436C47.3367 43.6436 47.2227 43.7538 47.2227 43.8915V44.6551C47.2227 44.7141 47.2502 44.7653 47.2895 44.8085C47.4232 44.8164 47.5451 44.8243 47.6552 44.8243C47.6984 44.7849 47.7259 44.722 47.7259 44.6551Z" fill="white"/>
<path d="M44.9838 44.0759V43.3124C44.9838 43.1747 44.8697 43.0645 44.7321 43.0645C44.5945 43.0645 44.4805 43.1747 44.4805 43.3124V44.0602C44.5591 44.1429 44.6692 44.2216 44.8068 44.2924C44.9012 44.2609 44.9838 44.1861 44.9838 44.0759Z" fill="white"/>
<path fill-rule="evenodd" clip-rule="evenodd" d="M48.6366 40.6751C48.4754 40.6554 48.4715 40.6436 48.4518 40.6396C48.2867 41.2143 47.7559 41.6275 47.0874 41.6511H47.0835L45.2277 41.7062C44.9839 41.7141 44.748 41.6669 44.5356 41.5685C44.5081 41.7338 44.4806 41.9148 44.4609 42.0959C44.6615 42.5288 45.4085 42.9066 46.5252 43.0601C48.1844 43.2924 49.9656 42.9066 50.5475 42.2454C51.1255 41.5921 50.2959 40.9073 48.6366 40.6751Z" fill="white"/>
<path fill-rule="evenodd" clip-rule="evenodd" d="M38.7031 42.7305C38.8368 42.762 38.9626 42.7934 39.0963 42.8249L39.2615 42.3723L38.7346 42.3408C38.7189 42.4825 38.711 42.6124 38.7031 42.7305Z" fill="white"/>
<path fill-rule="evenodd" clip-rule="evenodd" d="M30.6095 24.7294C32.3238 25.2568 35.0683 23.6352 37.4471 23.8163C39.3698 23.9619 42.5979 24.753 44.3987 25.6936C44.4105 25.7015 44.4223 25.7054 44.438 25.7133L41.8469 32.9079C41.8784 33.5337 41.6818 34.1713 41.2375 34.679C41.2257 34.6947 41.206 34.7065 41.1942 34.7183L39.5271 39.3468L39.9006 39.3704C39.9871 39.3783 40.0736 39.394 40.1601 39.4137C40.1876 39.2996 40.2112 39.1815 40.2466 39.0713C40.5218 38.0913 40.8954 37.2766 41.2964 36.7295L42.6411 32.9905C42.6883 32.656 42.8063 32.3372 42.9793 32.046L49.5613 13.7525C49.636 13.5479 49.5298 13.3235 49.3254 13.2527C49.1956 13.2054 49.058 13.233 48.9558 13.3117C48.9597 13.292 48.9597 13.2763 48.9636 13.2566C48.1733 14.15 42.7788 13.5164 38.029 13.4062C34.5061 13.3235 30.7196 13.0598 28.156 14.3193C26.5164 15.9644 23.6422 20.9825 22.1992 23.6903C25.5885 23.1275 28.392 24.0445 30.6095 24.7294Z" fill="white"/>
<path fill-rule="evenodd" clip-rule="evenodd" d="M65.6192 39.9564C62.399 38.3978 62.2063 36.3945 59.572 34.3046C59.2692 34.3912 59.1001 34.3755 58.8996 34.2928C59.399 33.9111 60.091 33.3994 61.1801 34.4936C60.8734 33.1436 58.6165 32.4863 57.0634 33.4821C56.5719 32.9862 56.5994 32.4352 56.5365 31.8369C55.9468 32.5847 55.7738 33.4585 55.7502 34.3834C54.9166 34.0842 54.0123 34.2732 53.163 34.9501C52.0227 35.8632 52.2272 36.0561 50.7842 36.5638C50.9886 36.7488 51.6571 36.6976 51.9991 36.4693C51.4369 37.3194 50.1983 37.6776 49.2704 37.3785C49.4513 37.961 50.1983 38.1105 50.8825 38.0476C50.332 38.4884 49.7894 39.0197 48.3661 38.7324C48.8222 39.1693 49.4591 39.5038 50.2258 39.5274C49.986 39.8029 49.754 40.0469 49.526 40.2595C51.2049 40.775 51.4172 41.6448 51.1263 42.4399V43.7977C51.1263 43.8135 51.2757 43.8567 51.2599 44.085C51.2363 44.4786 50.7684 44.8289 49.8287 45.1201C49.5732 45.1752 49.2468 45.2107 48.8772 45.2343C49.0935 45.494 49.2114 45.8089 49.2114 46.1395V46.167L49.2075 46.1946L48.6688 51.929C48.6531 52.3974 48.5155 52.8027 48.2678 53.1019C48.0633 53.3459 47.6858 53.6411 47.0489 53.6411C47.0292 53.6411 47.0096 53.6411 46.986 53.6411C46.4198 53.6253 45.4604 53.3459 45.3975 51.6574V51.6299V51.6023L45.6137 47.3163C45.0161 47.2415 44.0567 47.1195 43.2625 46.9739C43.1248 46.9542 42.9833 46.9266 42.8417 46.8952V51.8739V51.8818C42.8221 52.8264 42.2205 53.4403 41.2729 53.4797L41.21 53.4836L41.1471 53.4718C40.231 53.3223 39.7945 52.7949 39.6884 51.7086L39.6844 51.6889L39.4957 46.8322C39.189 46.8007 38.8902 46.7732 38.5992 46.7495C37.5887 46.659 36.7198 46.5803 36.0396 46.4229C36.0081 46.4189 35.9767 46.4111 35.9491 46.4071C35.2178 46.2654 34.6752 45.8915 34.3371 45.3012C34.223 45.1005 34.1444 44.8958 34.0893 44.699C33.8102 44.7226 33.5861 44.758 33.4406 44.8092C32.9137 44.9902 32.4262 45.2303 31.9936 45.5295C30.1181 44.1559 27.5034 43.5852 25.4313 44.6715C22.8638 46.0214 23.6344 48.434 20.6305 48.8867C22.2622 49.5715 24.3147 48.7883 25.1561 47.0447C24.7747 49.0323 20.4024 51.5236 18.8218 47.9106C18.1848 48.6348 18.7078 49.9611 19.5256 50.4137C18.2202 50.7522 17.7169 50.0162 17.2412 49.2055C17.08 53.035 19.8008 55.1721 23.8074 53.1806C23.4496 54.0032 22.0184 54.8769 19.6789 54.7234C24.7629 56.2111 27.6568 51.6378 27.6764 49.6541C27.8534 50.4137 27.7 51.13 27.2439 52.0628C30.5074 50.3823 27.7708 46.6669 30.6568 46.4307C30.7787 46.4189 30.8927 46.4189 30.9989 46.4229C30.2951 47.2612 29.8626 48.3553 29.7996 49.7053C29.7564 50.7207 30.0985 51.6102 30.7118 52.3186C29.9255 54.6171 29.5048 56.9983 28.3409 58.7458C28.1247 59.9777 28.6437 61.3158 28.8796 62.7012C29.3593 65.5271 28.9268 66.9558 28.8363 68.6442L30.818 68.6324C31.1404 66.7118 31.1915 63.7284 30.9674 59.8911C32.7407 58.4466 34.3528 56.3095 35.3122 54.1055L35.2728 54.0858C40.9033 54.4282 42.5075 55.546 49.2153 55.7585C49.7697 57.2423 50.851 58.8048 52.0542 59.7336C52.8681 61.7881 52.6479 65.3224 52.8366 68.2388H54.6178C54.4251 64.8383 54.6178 62.2958 54.7475 59.6038C54.1224 57.3879 53.6505 55.5381 53.6663 53.9441C54.1931 53.3262 54.5863 52.5509 54.7554 51.6141L54.7751 51.6417C55.1486 47.092 55.5339 41.9755 57.0123 40.3697C58.9075 40.1768 61.2391 41.9951 64.5812 42.4281C64.9547 42.1565 65.0373 41.5937 65.0058 40.9128C65.3165 40.8656 65.5681 40.6845 65.6192 39.9564Z" fill="white"/>
<path fill-rule="evenodd" clip-rule="evenodd" d="M48.1759 45.4436C47.704 45.4515 47.3698 45.4515 46.434 45.3531C45.0146 45.2035 43.7604 44.7312 43.7014 43.7748C43.7014 43.7748 43.7761 42.1021 43.9923 41.1497C43.9845 41.13 43.7761 40.7404 43.7722 40.7207C43.7722 40.7207 43.3514 39.1739 43.5441 38.8827C43.6031 38.7961 43.6857 38.7331 43.784 38.6859L44.1968 40.2602C44.2597 40.4924 44.3855 40.6892 44.5467 40.8309C44.7079 40.9922 44.9478 41.0946 45.2112 41.0828L47.071 41.0277C47.5428 41.0119 47.9006 40.6892 47.9006 40.2602C47.9006 39.7131 47.4996 39.5203 47.0317 39.5399L45.915 39.5754L45.3882 37.576C45.3646 37.4934 45.337 37.4146 45.2977 37.3399C45.223 36.7337 44.7944 36.1001 44.0277 35.9348C43.1391 35.7498 42.5965 36.1001 41.8809 36.962C41.4366 37.4934 41.0159 38.4852 40.7289 39.662C40.8232 39.7249 40.9097 39.7918 40.9884 39.8706C41.2833 40.1697 41.4405 40.5711 41.4209 40.9765V40.9844L41.417 41.008C41.3855 41.4055 41.1928 41.7676 40.8704 42.0274C40.7249 42.1454 40.5598 42.2359 40.3829 42.295C40.3829 42.3816 40.375 42.4682 40.375 42.5587C40.375 42.7712 40.3907 42.968 40.4104 43.1648C40.8075 43.275 41.185 43.3891 41.5388 43.5111C42.4432 43.8142 42.6909 44.3849 42.7499 44.743C42.8088 44.9359 42.8403 45.1366 42.8403 45.3373V46.2544C43.0054 46.2977 43.1745 46.341 43.3593 46.3685C44.5703 46.585 46.1785 46.7621 46.2571 46.7739L46.0133 51.6346C46.0487 52.5398 46.3593 53.0081 47.0042 53.0239C47.6923 53.0436 48.0343 52.5713 48.0501 51.8904L48.5927 46.1363C48.5966 45.6876 48.2231 45.4436 48.1759 45.4436Z" fill="white"/>
<path fill-rule="evenodd" clip-rule="evenodd" d="M42.1512 44.8824C42.1158 44.5636 41.872 44.2684 41.349 44.0913C40.2088 43.7096 39.045 43.4301 38.0698 43.2176C38.0816 42.9342 38.0974 42.639 38.1288 42.2809L37.0711 42.2022C36.2572 42.1077 35.8326 41.5724 35.923 40.8286C35.9624 40.5216 36.1825 40.2776 36.4696 40.1241C36.328 40.2658 36.2376 40.4468 36.2219 40.6515C36.1825 41.1434 36.6072 41.5803 37.1734 41.6197L39.7212 41.7771C40.2835 41.8165 40.775 41.4504 40.8143 40.9585V40.9545C40.8497 40.4626 40.4211 40.0296 39.8589 39.9863L38.4394 39.8958L38.4512 39.7108C38.6203 38.9552 38.868 38.2507 39.1511 37.8256C39.6111 37.1368 39.2887 35.7514 38.0777 35.4956C37.193 35.3146 36.6504 35.6649 35.9388 36.5189C35.0069 37.6406 34.1458 41.3914 34.539 43.8394C34.6412 44.4692 34.7671 45.5554 36.0724 45.8073C36.1078 45.8152 36.1471 45.8191 36.1825 45.8231V45.827C37.0869 46.0356 38.4394 46.1065 39.906 46.2599C39.969 46.2757 40.0319 46.2875 40.0948 46.2954L40.3032 51.6519C40.3936 52.5493 40.6924 52.7736 41.2508 52.8642C41.8523 52.8366 42.2141 52.506 42.2298 51.8684V45.3311C42.2259 45.1737 42.1983 45.0241 42.1512 44.8824Z" fill="white"/>
<path fill-rule="evenodd" clip-rule="evenodd" d="M38.0904 34.4423C38.8768 35.131 40.076 35.0484 40.7641 34.2651C41.4522 33.4741 41.3657 32.2776 40.5793 31.5888C39.7929 30.9001 38.5937 30.9827 37.9056 31.7659C37.2136 32.5531 37.3001 33.7535 38.0904 34.4423Z" fill="white"/>
<path d="M49.1556 43.7841C49.1556 43.6463 49.0455 43.5361 48.904 43.5361C48.7664 43.5361 48.6523 43.6463 48.6523 43.7841V44.5476C48.6523 44.6814 48.7664 44.7956 48.904 44.7956C49.0416 44.7956 49.1556 44.6854 49.1556 44.5476V43.7841Z" fill="white"/>
<path d="M50.4056 43.3983C50.4056 43.2606 50.2955 43.1504 50.154 43.1504C50.0164 43.1504 49.9023 43.2606 49.9023 43.3983V44.1619C49.9023 44.2996 50.0124 44.4098 50.154 44.4098C50.2916 44.4098 50.4056 44.2996 50.4056 44.1619V43.3983Z" fill="white"/>
<path d="M46.068 43.5107C45.9304 43.5107 45.8164 43.6209 45.8164 43.7587V44.5222C45.8164 44.5734 45.8439 44.6128 45.8715 44.6521C45.9815 44.6718 46.0995 44.6915 46.2175 44.7112C46.2764 44.6679 46.3197 44.6049 46.3197 44.5262V43.7626C46.3197 43.6209 46.2057 43.5107 46.068 43.5107Z" fill="white"/>
</svg>
