<svg width="160" height="66" viewBox="0 0 160 66" fill="none" xmlns="http://www.w3.org/2000/svg">
<path d="M147.359 4.77078C147.127 4.44005 147.452 3.92305 147.852 4.05138C148.263 4.40558 148.298 5.21298 148.938 5.25258C149.818 5.52245 150.183 4.52365 150.551 3.95898C150.825 4.08072 151.16 4.29485 151.005 4.66518C150.85 5.22105 150.178 5.49898 149.641 5.49678C148.866 5.52098 147.741 5.61632 147.359 4.77078Z" fill="#F4CEA2"/>
<path d="M18.8358 6.12283C20.2404 5.80603 21.6575 6.6633 22.2657 7.9063C22.5559 8.6653 22.6382 9.50863 22.4707 10.305C22.348 11.1117 21.7736 11.7534 21.1741 12.2645C19.9201 13.322 17.8147 13.0052 16.8847 11.672C16.0597 10.6277 15.9686 9.12877 16.4564 7.92023C16.9376 7.02703 17.7765 6.2167 18.8358 6.12283ZM19.198 6.41103C18.8204 6.50343 18.4127 6.5995 18.1107 6.86057C17.3864 7.62617 17.2615 8.75037 17.3284 9.7543C17.3107 10.5654 17.5186 11.4094 18.0755 12.0218C18.7785 12.7008 19.9686 12.5916 20.6893 12.002C21.2299 11.5106 21.3871 10.7399 21.404 10.0388C21.3791 9.1933 21.4349 8.30303 21.0536 7.5191C20.7282 6.82977 19.9855 6.3047 19.198 6.41103Z" fill="#F4CEA2"/>
<path d="M27.6106 7.10291C28.2365 6.40405 29.1842 6.02711 30.1208 6.08505C30.7158 6.10778 31.2712 6.34098 31.8464 6.46784C31.9794 6.30798 32.1175 6.15031 32.2791 6.01758C32.3239 6.78684 32.3687 7.55685 32.3702 8.32831C32.1021 7.84578 31.9015 7.30458 31.4909 6.91811C30.5395 6.08138 28.7941 6.30798 28.2505 7.51211C27.7487 8.67005 27.7032 10.0326 28.1432 11.2176C28.5759 12.2634 29.8967 12.5692 30.9149 12.3697C31.6209 12.1585 32.0198 11.5146 32.5472 11.057C32.4973 11.5044 32.1307 11.8197 31.8369 12.127C30.8753 13.0598 29.2238 13.1778 28.1425 12.3873C27.2867 11.8483 26.7496 10.8605 26.7195 9.85438C26.6086 8.86218 26.9979 7.86998 27.6106 7.10291Z" fill="#F4CEA2"/>
<path d="M58.7672 6.08203C58.8223 6.0835 58.934 6.0857 58.9891 6.08716C59.7795 7.9447 60.5443 9.8125 61.3244 11.6744C61.4875 12.0866 61.81 12.4452 62.2618 12.5412C62.2736 12.575 62.2971 12.6424 62.3088 12.6762C61.4699 12.6872 60.6324 12.6872 59.7942 12.6835C59.7994 12.6388 59.8089 12.5486 59.8133 12.5038C60.0433 12.4525 60.2798 12.3946 60.5083 12.3271C60.3489 11.7192 60.127 11.1303 59.8574 10.5634C59.0148 10.5576 58.1722 10.5568 57.3303 10.5678C57.1334 11.0584 56.88 11.5292 56.7389 12.0396C56.6243 12.4268 57.1937 12.4364 57.4339 12.5097C57.4383 12.5522 57.4479 12.638 57.453 12.6813C56.786 12.685 56.1204 12.6857 55.4556 12.6813C55.4644 12.6417 55.482 12.5625 55.4916 12.5229C55.7428 12.4217 56.0249 12.3198 56.174 12.0763C56.3973 11.7302 56.5053 11.3268 56.6706 10.9521C56.9828 10.2356 57.3031 9.52063 57.5801 8.78877C57.9143 7.86037 58.3786 6.9877 58.7672 6.08203ZM57.5257 10.1696C58.2633 10.2026 59.0008 10.1894 59.7399 10.1872C59.3344 9.33877 59.0008 8.46023 58.6468 7.58977C58.1553 8.3935 57.86 9.29403 57.5257 10.1696Z" fill="#F4CEA2"/>
<path d="M76.1398 6.84886C76.7459 6.30912 77.5753 6.03339 78.3856 6.08692C78.9696 6.04659 79.4735 6.42206 80.0517 6.42279C80.2258 6.32966 80.3698 6.19106 80.5314 6.07812C80.574 6.81659 80.6592 7.55139 80.7422 8.28546C80.6849 8.28473 80.5703 8.28253 80.513 8.28179C80.2985 7.79193 80.1435 7.23679 79.7137 6.88332C78.9181 6.24899 77.662 6.25706 76.9112 6.96033C75.929 8.14906 75.7622 9.94939 76.4542 11.3156C76.9317 12.2741 78.1299 12.5498 79.1069 12.3716C79.8445 12.1985 80.2192 11.4806 80.8304 11.1022C80.2441 12.6855 78.1718 13.3594 76.7099 12.5916C75.4956 11.9859 74.8403 10.5977 74.96 9.27766C75.0342 8.36099 75.4809 7.48392 76.1398 6.84886Z" fill="#F4CEA2"/>
<path d="M7.23242 6.19727C8.98743 6.26107 10.7446 6.22807 12.5011 6.23613C12.4857 6.74287 12.4622 7.2496 12.4306 7.7556C12.3752 7.72795 12.3139 7.79335 12.2974 7.68201C12.2519 7.3754 12.1441 6.94716 11.9553 6.76487C11.0392 6.46933 10.0548 6.638 9.10937 6.60133C9.11305 8.06873 9.10056 9.53613 9.10423 11.0035C9.11598 11.412 9.10056 11.8285 9.20708 12.2275C9.37561 12.4323 9.8722 12.4668 10.1274 12.5174C10.2075 12.5334 10.1708 12.6111 10.1705 12.6935C9.29231 12.7177 8.22416 12.7019 7.27136 12.6858C7.27356 12.6447 7.2765 12.5633 7.27797 12.5223C7.53655 12.4489 7.98688 12.5421 8.11764 12.2179C8.31378 11.2397 8.20065 10.2321 8.23224 9.24207C8.1933 8.39653 8.33435 7.52973 8.12351 6.69887C7.93398 6.41507 7.53068 6.44587 7.23536 6.33293C7.23463 6.2992 7.23316 6.231 7.23242 6.19727Z" fill="#F4CEA2"/>
<path d="M36.1793 6.1875C37.0586 6.22637 37.9401 6.24177 38.8209 6.2073C38.829 6.2381 38.8452 6.30117 38.854 6.33197C38.5851 6.41263 38.3229 6.5131 38.0753 6.6451C38.5726 7.9629 39.3932 9.12377 40.0852 10.3426C40.3012 9.83877 40.5333 9.3423 40.7229 8.8275C40.9866 8.1213 41.3517 7.44517 41.4575 6.6891C41.2591 6.5703 41.0615 6.45223 40.858 6.3437C40.8647 6.30703 40.8786 6.23443 40.8852 6.19777C41.5434 6.21537 42.2046 6.2381 42.8628 6.20143C42.868 6.2337 42.8775 6.29897 42.8827 6.33123C42.472 6.5087 42.0503 6.74997 41.8836 7.1929C41.5295 7.93283 41.2445 8.70503 40.9058 9.45303C40.5025 10.4086 40.1646 11.4198 39.521 12.2485C39.2081 12.6738 38.6902 12.9606 38.1495 12.8821C37.8858 12.8484 37.6066 12.6672 37.5552 12.393C37.5824 12.2265 37.5809 12.0905 37.7488 12.0166C38.0011 11.9768 38.0852 12.1225 38.2251 12.1814C38.4557 12.2783 38.6383 12.2408 39.0568 12.0703C39.3249 11.9266 39.4483 11.6288 39.6209 11.3956C39.1838 10.5978 38.7783 9.78083 38.2714 9.02403C37.791 8.3105 37.5199 7.4723 36.9675 6.80497C36.7207 6.6099 36.4444 6.4603 36.1616 6.32683C36.166 6.29163 36.1748 6.2227 36.1793 6.1875Z" fill="#F4CEA2"/>
<path d="M46.4572 6.27867C48.2607 6.17673 50.0694 6.28893 51.8728 6.19727C51.867 6.2332 51.8538 6.30507 51.8471 6.34027C51.5695 6.44367 51.1551 6.407 51.0295 6.72233C50.8414 7.4476 50.9252 8.20807 50.901 8.94873C50.9259 10.0993 50.8201 11.2771 51.1059 12.4042C51.3505 12.4372 51.5981 12.4687 51.8442 12.5025C51.8611 13.2211 51.8743 13.942 51.8295 14.6599C51.4953 14.2031 51.4071 13.5959 50.9847 13.1999C50.4565 12.7173 49.6741 12.7049 49.0012 12.6755C48.3658 12.6968 47.698 12.6015 47.0905 12.8347C46.292 13.0305 45.7887 13.8063 45.6433 14.5749C45.6014 14.5822 45.5184 14.5969 45.4765 14.6035C45.4729 13.9141 45.4721 13.2248 45.4817 12.5362C46.0033 12.4064 46.5094 12.1035 46.7401 11.6019C47.4732 10.1639 47.5974 8.48673 47.5173 6.90273C47.4255 6.4158 46.8224 6.41433 46.4572 6.27867ZM48.1263 6.60353C48.0043 7.75267 47.9948 8.9172 47.745 10.0495C47.5952 10.8664 47.2058 11.6115 46.7805 12.3162C47.8383 12.3294 48.8976 12.3426 49.954 12.2656C49.957 10.378 49.9548 8.4904 49.954 6.60207C49.3443 6.60133 48.7353 6.60133 48.1263 6.60353Z" fill="#F4CEA2"/>
<path d="M68.8009 6.21094C69.5436 6.23514 70.3385 6.54094 70.6984 7.23467C71.0768 7.9218 70.8887 8.87 70.276 9.3628C69.6061 9.95827 68.6261 9.81454 67.8077 9.70454C67.8011 10.4313 67.782 11.158 67.8011 11.8847C67.8063 12.0571 67.8334 12.2485 67.9635 12.3746C68.1897 12.4575 68.4424 12.4589 68.6812 12.5C68.6834 12.5462 68.6878 12.6386 68.69 12.6848C67.7541 12.6892 66.8189 12.6899 65.8845 12.6855C65.8977 12.6401 65.9234 12.5484 65.9367 12.5029C66.1725 12.4868 66.4193 12.4729 66.6588 12.4589C66.9166 10.5185 66.7183 8.55027 66.7741 6.59887C66.4744 6.472 66.1585 6.3862 65.8507 6.28354C66.8329 6.22487 67.8173 6.21387 68.8009 6.21094ZM67.807 6.6546C67.8033 7.57567 67.8033 8.49747 67.8048 9.41854C68.2191 9.45447 68.6496 9.4926 69.0544 9.38627C69.9756 8.93087 70.0101 7.47007 69.2351 6.85847C68.8311 6.53507 68.2808 6.65827 67.807 6.6546Z" fill="#F4CEA2"/>
<path d="M103.798 6.19336C105.48 6.25423 107.166 6.25643 108.849 6.20436C108.902 6.67883 108.931 7.15623 108.952 7.63436C108.906 7.62776 108.815 7.61383 108.77 7.60723C108.637 7.22883 108.485 6.68836 108.016 6.64363C107.249 6.57103 106.478 6.60036 105.711 6.59963C105.708 7.43343 105.71 8.26723 105.711 9.10176C106.387 9.06069 107.099 9.19123 107.762 9.01743C108.055 8.81576 108.094 8.41169 108.26 8.11543C108.28 8.91329 108.282 9.71189 108.266 10.5098C108.113 10.2076 108.066 9.81089 107.77 9.60849C107.106 9.40609 106.393 9.48383 105.711 9.45083C105.708 10.3536 105.707 11.2563 105.716 12.159C105.769 12.2118 105.823 12.2654 105.878 12.3182C106.638 12.305 107.422 12.3974 108.17 12.2228C108.785 12.0454 108.987 11.3861 109.377 10.9512C109.272 11.5357 109.06 12.093 108.892 12.6606C107.191 12.7112 105.489 12.6878 103.788 12.6834C103.802 12.6467 103.831 12.5734 103.845 12.536C104.105 12.4619 104.448 12.5052 104.663 12.302C104.799 12.041 104.709 11.722 104.758 11.444C104.762 10.0984 104.764 8.75196 104.756 7.40629C104.731 7.12763 104.779 6.78516 104.59 6.54683C104.365 6.39063 104.068 6.40309 103.812 6.34369C103.808 6.30556 103.801 6.23076 103.798 6.19336Z" fill="#F4CEA2"/>
<path d="M113.088 6.26522C114.04 6.15009 115 6.25129 115.956 6.25935C115.621 6.37009 115.087 6.43022 115.016 6.86582C114.928 7.65415 114.969 8.44909 114.969 9.24035C115.972 9.24182 116.977 9.24182 117.982 9.23962C117.97 8.44835 118.032 7.65049 117.946 6.86215C117.901 6.42069 117.349 6.40749 117.024 6.33709C117.037 6.30262 117.061 6.23369 117.073 6.19922C118.013 6.22855 118.954 6.22269 119.896 6.23222C119.573 6.37375 119.248 6.50649 118.935 6.66782C118.982 8.52829 118.839 10.4005 119.002 12.2529C119.194 12.4839 119.577 12.437 119.857 12.5184C119.859 12.5536 119.863 12.624 119.865 12.6592C118.918 12.6944 117.972 12.6914 117.027 12.6856C117.027 12.6394 117.03 12.547 117.031 12.5008C117.313 12.4744 117.602 12.4384 117.882 12.379C117.99 11.4426 117.99 10.4973 117.962 9.55642C116.971 9.52929 115.981 9.51755 114.992 9.54982C114.972 10.4797 114.912 11.4206 115.059 12.3446C115.371 12.426 115.692 12.4905 115.995 12.6108C115.042 12.7076 114.086 12.6995 113.132 12.6834C113.135 12.6445 113.138 12.5668 113.14 12.5279C113.444 12.4883 113.752 12.423 114.029 12.2837C114.003 10.4093 114.016 8.53415 114.019 6.65902C113.724 6.49402 113.403 6.38329 113.088 6.26522Z" fill="#F4CEA2"/>
<path d="M123.481 6.19336C124.447 6.24176 125.417 6.22856 126.386 6.25276C126.07 6.38843 125.589 6.41043 125.433 6.77563C125.362 7.59549 125.397 8.41976 125.402 9.24183C126.38 9.24256 127.358 9.24256 128.338 9.24109C128.337 8.39409 128.375 7.54563 128.311 6.70083C128.114 6.41409 127.724 6.38623 127.431 6.25789C128.379 6.23076 129.329 6.22269 130.28 6.25203C130.027 6.34956 129.759 6.40309 129.533 6.55269C129.289 6.72576 129.335 7.08363 129.306 7.33589C129.27 8.68009 129.292 10.0258 129.289 11.3707C129.298 11.6978 129.27 12.1194 129.539 12.3644C129.757 12.4568 130.005 12.459 130.241 12.5022C130.244 12.5477 130.25 12.6394 130.253 12.6848C129.316 12.6907 128.38 12.6907 127.446 12.6848C127.459 12.643 127.486 12.5594 127.5 12.5176C127.754 12.4802 128.023 12.4436 128.281 12.4003C128.354 11.447 128.342 10.4907 128.34 9.53516C127.36 9.53369 126.38 9.53443 125.402 9.53589C125.414 10.424 125.334 11.323 125.447 12.2045C125.636 12.5228 126.112 12.4487 126.422 12.6166C125.447 12.7083 124.467 12.7017 123.49 12.6856C123.492 12.6438 123.494 12.5594 123.496 12.5176C123.743 12.4656 124.041 12.5015 124.273 12.3688C124.472 12.2316 124.373 11.9192 124.434 11.7352C124.47 10.3902 124.442 9.04529 124.45 7.70036C124.414 7.34909 124.489 6.96703 124.334 6.63703C124.117 6.42216 123.779 6.41336 123.507 6.33563C123.501 6.29969 123.487 6.22856 123.481 6.19336Z" fill="#F4CEA2"/>
<path d="M139.317 6.26987C140.237 6.16134 141.173 6.24054 142.1 6.19141C142.114 6.22294 142.141 6.28601 142.154 6.31754C141.909 6.40847 141.566 6.34687 141.373 6.55807C141.126 7.01494 141.227 7.56787 141.188 8.06507C141.217 9.49801 141.09 10.9441 141.308 12.3675C141.613 12.4357 141.929 12.4856 142.22 12.6088C141.263 12.7093 140.301 12.6968 139.342 12.6807C139.357 12.6447 139.388 12.5743 139.404 12.5391C139.628 12.4746 139.903 12.4731 140.107 12.3345C140.319 12.1864 140.262 11.8703 140.299 11.6591C140.327 10.1932 140.329 8.72507 140.298 7.25914C140.285 7.00761 140.29 6.66881 140.048 6.50967C139.82 6.39527 139.552 6.34907 139.317 6.26987Z" fill="#F4CEA2"/>
<path d="M84.8586 6.24006C86.6437 6.23126 88.4288 6.23493 90.214 6.23639C90.211 6.75119 90.2096 7.26599 90.2081 7.78079C90.1684 7.77492 90.0891 7.76246 90.0494 7.75659C89.9517 7.37452 89.8305 6.90446 89.4441 6.71672C88.9504 6.59866 88.4377 6.61112 87.9366 6.57592C87.9462 8.17459 87.9095 9.77253 87.9418 11.3712C87.9337 11.7181 88.0064 12.0576 88.0696 12.3964C88.3157 12.4265 88.5625 12.4558 88.8108 12.4844C88.813 12.535 88.8175 12.6369 88.8197 12.6883C87.908 12.6905 86.9971 12.6905 86.0861 12.6839C86.1008 12.6457 86.1295 12.5695 86.1434 12.5306C86.4226 12.4822 86.7069 12.4221 86.9794 12.3363C86.9809 10.4179 86.9809 8.49946 86.9794 6.58106C86.4887 6.61112 85.9752 6.56786 85.5065 6.74459C85.1194 6.93673 85.043 7.40899 84.9004 7.77492C84.8549 7.76466 84.7631 7.74486 84.7175 7.73459C84.7778 7.23739 84.8439 6.74092 84.8586 6.24006Z" fill="#F4CEA2"/>
<path d="M93.8396 6.27815C94.9547 6.21948 96.0728 6.22095 97.1909 6.22461C97.8109 6.19015 98.4442 6.38448 98.9334 6.76728C99.4286 7.14275 99.6548 7.86582 99.4095 8.44515C99.2567 8.89395 98.8504 9.18288 98.4449 9.38822C98.9547 9.52388 99.4756 9.84142 99.6827 10.3452C99.7929 10.7713 99.8054 11.2545 99.6078 11.6579C99.3749 12.3164 98.6205 12.5811 97.9887 12.6574C96.6172 12.7373 95.2427 12.6721 93.8712 12.6794C93.8851 12.6427 93.9123 12.5687 93.9263 12.532C94.1643 12.4719 94.4559 12.51 94.6771 12.3743C94.9254 12.1404 94.7748 11.7363 94.8416 11.4423C94.8541 9.84655 94.8232 8.25008 94.8468 6.65435C94.5316 6.47835 94.1797 6.38668 93.8396 6.27815ZM95.7952 6.67341C95.7929 7.48302 95.7922 8.29261 95.7944 9.10295C96.457 9.15208 97.1395 9.21148 97.7889 9.03182C98.5647 8.70622 98.6895 7.56515 98.096 7.01442C97.4657 6.48348 96.554 6.37055 95.7952 6.67341ZM95.7944 9.58988C95.7915 10.4787 95.7915 11.3675 95.7952 12.2555C96.5731 12.3032 97.4723 12.4946 98.1591 12.0377C98.9636 11.5193 98.7762 10.178 97.9402 9.80915C97.2747 9.45201 96.5136 9.52242 95.7944 9.58988Z" fill="#F4CEA2"/>
<path d="M133.877 6.2795C134.86 6.22083 135.85 6.20177 136.836 6.26997C136.564 6.3895 136.258 6.42397 135.995 6.55377C135.796 6.6777 135.818 6.9373 135.791 7.1441C135.739 7.78577 135.752 8.43037 135.753 9.07423C136.794 9.1373 138.131 9.0317 138.836 9.98063C139.511 10.9288 138.852 12.3933 137.732 12.6016C136.464 12.7798 135.175 12.6624 133.901 12.6742C133.917 12.6404 133.951 12.5737 133.968 12.54C134.224 12.4644 134.625 12.5099 134.774 12.221C134.903 11.9328 134.837 11.5998 134.877 11.2955C134.878 9.95057 134.898 8.6049 134.864 7.25997C134.837 7.03557 134.878 6.6931 134.634 6.55963C134.387 6.4445 134.127 6.38143 133.877 6.2795ZM135.757 9.49663C135.755 10.4412 135.755 11.3864 135.758 12.3317C136.247 12.3713 136.788 12.4476 137.228 12.1814C138.018 11.7964 138.279 10.5644 137.608 9.9579C137.102 9.51423 136.4 9.4431 135.757 9.49663Z" fill="#F4CEA2"/>
<path d="M145.715 6.26884C146.694 6.22558 147.679 6.21091 148.661 6.26738C148.415 6.38178 148.142 6.44851 147.901 6.56584C147.683 6.71471 147.704 7.03884 147.68 7.26251C147.623 8.53851 147.664 9.81671 147.672 11.0942C148.623 9.93405 149.56 8.76218 150.448 7.55364C150.69 7.31751 150.789 6.85771 150.522 6.60764C150.3 6.38398 149.953 6.38764 149.673 6.28204C150.631 6.22044 151.594 6.21678 152.554 6.26518C152.252 6.45291 151.746 6.45291 151.673 6.86798C151.578 7.85138 151.636 8.84211 151.621 9.82918C151.629 10.6835 151.577 11.5466 151.745 12.3907C151.998 12.4208 152.246 12.4508 152.503 12.4816C152.505 12.533 152.51 12.6364 152.512 12.6877C151.579 12.6906 150.647 12.6921 149.716 12.6862C149.719 12.6452 149.723 12.5616 149.725 12.5205C149.984 12.42 150.573 12.541 150.633 12.1465C150.729 10.7106 150.658 9.26964 150.664 7.83231C149.814 8.89711 148.992 9.98318 148.157 11.0582C147.906 11.3684 147.562 11.7087 147.683 12.1516C147.872 12.5146 148.353 12.4472 148.682 12.6188C147.702 12.7082 146.718 12.7031 145.738 12.684C145.752 12.6474 145.781 12.574 145.795 12.5374C146.053 12.4633 146.398 12.5051 146.613 12.3027C146.749 12.0416 146.658 11.7226 146.708 11.4447C146.7 9.92818 146.73 8.41018 146.7 6.89438C146.648 6.42944 146.033 6.43238 145.715 6.26884Z" fill="#F4CEA2"/>
<path d="M7.95241 15.7715C8.16177 15.7898 8.36967 15.8155 8.57757 15.8434C8.6503 16.5914 8.87582 17.3474 9.35186 17.9414C9.66848 18.2678 10.1151 18.4973 10.5794 18.4782C11.1583 18.5017 11.7849 18.5369 12.2999 18.2238C13.5414 17.5352 14.9666 17.2286 16.3822 17.247C17.4856 17.3196 18.6198 17.379 19.6402 17.849C20.0625 18.1132 20.6915 18.5248 20.795 18.6301C22.0269 19.5637 22.7969 20.5514 23.447 21.9902C24.0839 23.283 24.3792 24.7394 24.3212 26.179C24.3102 30.3348 24.3183 34.4906 24.3183 38.6464C24.3014 41.0011 23.5396 43.4299 21.8404 45.121C21.4995 45.4473 21.1366 45.7524 20.8362 46.1176C23.2736 45.6196 25.6435 44.8518 28.0362 44.1808C28.1008 36.714 28.0391 29.2458 28.0677 21.7782C28.1331 20.7501 27.8363 19.6684 27.1127 18.9138C26.3385 18.1468 25.1851 18.091 24.1647 18.0206C24.1574 17.8571 24.1508 17.6943 24.1478 17.5315C28.4402 17.5154 32.7326 17.5352 37.0257 17.5205C38.6698 17.4992 40.4101 17.8146 41.7559 18.8148C42.2474 19.1866 42.6426 19.678 42.924 20.2243C43.3405 21.1263 43.422 22.128 43.53 23.1019C43.6321 25.5798 43.4955 28.0614 43.6005 30.5394C43.6931 31.6731 43.3603 32.8655 42.6022 33.7279C41.93 34.6204 40.9287 35.1733 39.9216 35.6074C39.4514 35.8128 38.921 35.7666 38.4215 35.7908C36.9522 35.7937 35.483 35.7783 34.0138 35.7871C34.013 37.9644 34.0093 40.1424 34.0152 42.3204C35.2215 42.0483 36.4086 41.6956 37.6207 41.4433C40.0501 40.9754 42.4626 40.4064 44.9148 40.0639C45.6259 39.9128 46.3509 39.849 47.065 39.717C47.1172 34.9357 47.0804 30.1536 47.0848 25.3716C47.0026 23.8 47.065 22.2219 46.9489 20.6533C46.6947 19.8268 46.1137 19.0972 45.3812 18.641C44.95 18.366 44.4204 18.3242 43.9304 18.2311C43.9003 18.0463 43.8694 17.86 43.8452 17.676C46.4905 17.6701 49.1352 17.6686 51.7805 17.6767C53.3923 23.1261 54.8784 28.6129 56.5298 34.0513C56.8222 32.9161 57.083 31.7684 57.4745 30.6618C57.6281 30.2695 57.6303 29.8405 57.7552 29.4401C58.5934 26.3198 59.3816 23.1855 60.2015 20.06C60.4424 19.224 60.6562 18.38 60.8501 17.5315C67.4206 17.5315 73.9925 17.5022 80.5629 17.5462C80.5541 17.7757 80.535 18.0052 80.5093 18.234C79.6343 18.3924 78.6536 18.5112 78.0402 19.2336C77.5208 19.8246 77.4261 20.6416 77.4444 21.3976C77.4099 26.242 77.4371 31.0879 77.4297 35.933C77.6384 35.9272 77.8764 35.9345 78.0924 35.9323C78.6639 33.7198 79.0547 31.4641 79.6365 29.2546C79.7622 28.8791 79.8209 28.4882 79.8856 28.0996C80.6554 24.5693 81.501 21.0566 82.2922 17.5315C85.1814 17.5183 88.0707 17.5278 90.96 17.5256C91.0246 17.8006 91.0569 18.0815 91.0885 18.3631C90.016 18.4819 88.9038 18.7217 88.0149 19.3656C87.591 19.6582 87.3449 20.1429 87.3185 20.6533C87.2031 22.3708 87.314 24.0934 87.2656 25.813C87.1385 29.135 87.2222 32.4607 87.2002 35.7849C90.6309 35.7255 94.0571 35.8846 97.4834 36.0122C97.4834 30.0766 97.4863 24.1418 97.4819 18.2069C96.8406 18.1658 96.1838 18.391 95.7849 18.9109C94.9629 19.931 94.5493 21.2018 94.1945 22.4448C93.4746 25.0284 93.1028 27.6918 92.8303 30.3546C92.5776 31.8836 92.582 33.4382 92.4248 34.9775C92.186 34.9724 91.984 34.9812 91.7548 34.979C91.7533 29.1614 91.7533 23.3439 91.7548 17.5264C97.5826 17.5256 103.41 17.5249 109.237 17.5264C109.243 20.093 109.23 22.659 109.241 25.2256C109.351 28.4897 109.323 31.7574 109.288 35.023C109.065 35.0318 108.863 35.0464 108.649 35.0574C108.533 32.7687 108.461 30.4748 108.127 28.2037C107.955 26.429 107.61 24.68 107.197 22.9472C106.843 21.6433 106.436 20.3196 105.652 19.202C105.239 18.5391 104.525 18.0558 103.735 18.0045C103.691 20.9246 103.8 23.847 103.661 26.7649C103.645 30.0862 103.659 33.4082 103.656 36.7294C106.07 36.7764 108.466 37.091 110.848 37.4613C111.847 32.589 112.789 27.705 113.665 22.8086C113.846 21.8992 113.995 20.9701 113.917 20.041C113.856 19.4044 113.515 18.7518 112.882 18.5186C111.944 18.2098 110.931 18.2487 109.968 18.4115C109.937 18.1658 109.91 17.9194 109.887 17.6738C113.054 17.6694 116.223 17.6745 119.391 17.6708C120.672 23.5756 121.862 29.5024 123.123 35.4124C123.362 36.7148 123.722 37.99 123.939 39.2968C124 39.5007 123.983 39.7984 124.226 39.8835C124.997 40.1842 125.782 40.4562 126.575 40.6953C126.571 38.961 126.607 37.2252 126.515 35.493C126.502 34.7392 126.416 33.9846 126.457 33.23C126.571 32.38 126.831 31.5477 127.217 30.7814C127.666 29.96 128.381 29.27 129.259 28.9238C130.625 28.3804 132.149 28.4758 133.573 28.7104C132.824 28.2631 132.199 27.5151 132.116 26.6241C131.952 24.9602 131.942 23.2845 131.927 21.6132C131.479 22.1852 131.125 22.8797 130.437 23.2016C129.508 23.5969 128.423 23.6695 127.476 23.2999C126.607 23.0572 125.922 22.3825 125.513 21.6008C125.303 20.9488 125.035 20.2221 125.365 19.554C125.538 18.8918 126 18.3191 126.604 17.9994C127.484 17.5418 128.505 17.3592 129.491 17.478C130.233 17.6452 130.978 17.8806 131.632 18.2736C132.105 18.7114 132.662 19.2512 132.657 19.9464C132.757 22.1449 132.855 24.3449 132.906 26.5449C133 27.0362 133.243 27.5422 133.688 27.8084C134.214 28.2338 134.882 28.3782 135.524 28.53C135.645 25.6216 135.661 22.7059 135.543 19.7968C135.567 19.3648 135.429 18.9109 135.119 18.6029C134.456 17.995 133.486 18.2311 132.675 18.1013C132.674 17.9942 132.673 17.7801 132.672 17.673C136.751 17.684 140.83 17.6459 144.909 17.6928C144.916 17.8065 144.932 18.0331 144.939 18.1468C144.225 18.2164 143.471 18.3264 142.894 18.7899C141.94 19.4411 141.707 20.701 141.779 21.7782C141.873 24.0567 141.857 26.3374 141.859 28.618C142.648 28.5066 143.471 28.291 144.06 27.7212C144.587 27.243 144.779 26.5038 144.785 25.8145C144.789 24.3222 144.869 22.8313 144.867 21.3382C144.879 20.514 144.891 19.6237 145.39 18.9256C145.995 17.8578 147.297 17.4208 148.466 17.453C149.43 17.467 150.494 17.4831 151.321 18.0507C151.609 18.2773 151.965 18.4643 152.115 18.8178C152.286 19.2233 152.47 19.6244 152.635 20.0329C152.863 20.5939 152.478 21.1564 152.205 21.6257C151.432 22.967 149.761 23.6996 148.246 23.3894C147.631 23.2537 147.008 23.041 146.538 22.6076C146.19 22.329 145.954 21.9476 145.701 21.589C145.635 23.2324 145.889 24.8868 145.649 26.5222C145.427 27.3171 144.808 27.903 144.252 28.4802C145.094 28.5696 145.924 28.7544 146.777 28.7332C147.537 28.7134 148.344 28.816 148.986 29.2546C149.965 29.8874 150.601 30.9354 150.878 32.05C151.404 33.6568 151.234 35.3706 151.258 37.0323C151.207 39.4743 151.424 41.9141 151.293 44.3561C151.272 45.1342 151.532 45.9753 152.179 46.4564C152.919 47.0482 153.885 47.1032 154.775 47.3085C154.817 47.5006 154.809 47.6766 154.867 47.8746C153.546 47.8658 152.229 47.948 150.914 48.0609C149.613 48.2171 148.334 47.8446 147.097 47.4889C145.601 46.9411 144.128 46.3258 142.619 45.8147C142.801 46.229 143.059 46.6404 143.469 46.8626C143.969 47.1948 144.589 47.233 145.155 47.3862C145.154 47.5732 145.156 47.761 145.162 47.9494C141 48.1166 136.833 47.9971 132.669 48.0316C132.644 47.8108 132.686 47.615 132.68 47.4009C133.464 47.1758 134.276 46.8524 134.795 46.1938C135.352 45.4898 135.545 44.5871 135.628 43.7137C134.707 43.3624 133.763 43.0522 132.787 42.8982C132.572 44.7206 131.805 46.6903 130.092 47.5901C128.91 48.2809 127.511 48.099 126.207 48.1034C122.64 47.9568 119.067 48.0682 115.498 48.0294C115.465 47.7918 115.451 47.5652 115.418 47.3312C116.216 47.2359 117.091 47.164 117.718 46.5979C118.337 46.0479 118.405 45.1239 118.283 44.3583C118.026 42.7032 117.734 41.051 117.61 39.3782C115.567 39.0306 113.499 38.87 111.46 38.4924C111.091 40.5369 110.719 42.5807 110.362 44.6274C110.315 44.9846 110.245 45.3505 110.294 45.7106C110.442 46.2723 110.845 46.7644 111.395 46.9763C112.225 47.3012 113.14 47.2293 114.012 47.31C114.01 47.5006 114.011 47.6928 114.014 47.8849C111.808 47.8988 109.604 47.86 107.401 47.9032C105.004 48.0294 102.602 47.9062 100.205 47.9817C97.7809 48.0844 95.3537 48.0118 92.9295 48.0316C92.9295 47.8526 92.9302 47.4948 92.9309 47.3158C94.0013 47.2271 95.1201 47.2916 96.1412 46.9147C96.8487 46.5128 97.3769 45.7384 97.4393 44.9208C97.5818 43.3712 97.5436 41.8144 97.5759 40.2619C97.6435 39.1128 97.6369 37.9622 97.631 36.813C95.1076 36.8658 92.5871 36.7067 90.0645 36.739C89.0837 36.7441 88.1052 36.684 87.126 36.6598C87.0753 38.936 87.2494 41.2094 87.1943 43.4864C87.1914 44.3473 87.1348 45.374 87.8099 46.0296C88.4784 46.8839 89.645 47.0152 90.6485 47.1061C90.6485 47.3892 90.6499 47.673 90.6529 47.9582C87.591 47.959 84.5298 47.9604 81.4694 47.959C79.9958 47.9333 78.5236 47.8592 77.0499 47.882C77.0507 47.6473 77.0727 47.4258 77.0823 47.1948C78.1695 47.2432 79.292 46.911 80.0575 46.1095C80.4733 45.6548 80.7546 45.085 80.9074 44.491C81.1006 41.9156 80.9794 39.3313 81.0308 36.7507C80.2999 36.7382 79.5719 36.717 78.8446 36.6656C78.3179 39.0834 77.7074 41.4822 77.1778 43.9C76.8604 45.2002 76.604 46.5158 76.2624 47.8094C69.3533 47.8152 62.445 47.8123 55.5366 47.8108C55.5374 47.6363 55.5388 47.288 55.5388 47.1134C56.4982 47.0628 57.5847 47.0401 58.3473 46.3662C59.0768 45.8228 59.328 44.8658 59.3456 43.9982C59.3853 42.1605 59.3442 40.322 59.3566 38.4843C58.3502 38.4938 57.3497 38.5833 56.3484 38.6588C55.4455 41.6281 54.6521 44.6311 53.8 47.6158C53.4393 46.7035 53.2505 45.737 52.9647 44.8012C52.4461 43.0816 51.9693 41.3502 51.4595 39.629C50.2231 39.8197 48.9985 40.0888 47.7511 40.2018C47.7416 41.7337 47.7482 43.2678 47.8613 44.7961C47.9201 45.5228 48.3116 46.2518 49.0073 46.5524C50.0439 47.087 51.2509 46.8245 52.3601 46.8795C52.3498 47.1897 52.333 47.4992 52.3116 47.8094C49.0279 47.8152 45.7449 47.8116 42.4611 47.8116V47.0841C43.5249 47.0086 44.7715 47.343 45.6846 46.6258C46.6294 46.0244 46.9754 44.8416 46.9239 43.779C46.8835 42.7186 46.8542 41.6582 46.863 40.5978C45.4062 40.7122 43.9561 40.9285 42.5192 41.1984C41.5509 41.4829 40.535 41.5775 39.5851 41.9244C37.7228 42.4194 35.8554 42.8968 33.9748 43.3133C33.9374 44.2388 33.8815 45.2845 34.5662 46.0142C35.3934 46.944 36.7186 47.0188 37.872 47.1142C37.8903 47.288 37.9285 47.6348 37.9469 47.8086C33.4033 47.8167 28.8597 47.8116 24.316 47.8108C24.3153 47.5197 24.316 47.2293 24.316 46.9396C25.404 46.8421 26.7616 47.1596 27.5711 46.2224C27.9722 45.8814 27.9972 45.3344 28.0935 44.8548C26.5721 45.2346 25.0881 45.7553 23.5565 46.0992C22.3517 46.4417 21.1498 46.7988 19.9715 47.2242C18.752 47.7111 17.4422 47.8732 16.1581 48.1012C15.1091 48.2442 13.9517 48.2801 12.9048 48.0741C12.3007 47.7787 11.9812 47.6446 11.7172 47.5059C10.497 46.6787 9.58547 46.1425 8.71127 44.9149C7.72174 43.4996 7.14947 41.7726 7.19942 40.0397C7.20457 38.8869 7.11641 37.7356 7.12155 36.5835C7.3581 36.5879 7.59612 36.6011 7.8334 36.6121C7.86499 37.8529 7.89731 39.0937 7.94139 40.3345C7.93551 40.8251 8.07289 41.2981 8.19042 41.7711C8.53423 42.9613 8.96618 44.1867 9.85213 45.0916C10.4905 45.8125 11.3581 46.3273 12.3065 46.515C13.5318 46.7504 14.8968 46.7673 15.9994 46.1088C16.9111 45.6365 17.4275 44.6876 17.7471 43.7518C18.1746 42.5125 18.0593 41.1793 18.0747 39.8923C18.0461 36.4801 18.1159 33.0664 18.0417 29.655C17.7853 30.0935 17.6714 30.5958 17.4466 31.049C16.9596 32.1021 16.1361 33.0312 15.0745 33.527C13.8896 33.9171 12.618 33.7396 11.3948 33.8225C10.7961 33.8687 10.2114 34.2581 9.98363 34.8184C9.81026 35.3471 9.739 35.9074 9.5289 36.4266C9.18216 34.7986 8.90962 33.0224 9.57812 31.4399C10.0196 30.2717 11.1274 29.512 12.269 29.1145C13.4459 28.6796 14.7131 28.761 15.9436 28.7368C16.8486 28.6987 17.7735 28.0944 17.9572 27.1734C18.1937 25.8556 18.0262 24.5033 18.0777 23.1723C18.0505 21.8897 18.1306 20.4766 17.443 19.3296C17.0602 18.6183 16.2514 18.3103 15.5234 18.0888C14.6169 17.8292 13.6229 18.0294 12.8457 18.5464C12.103 18.9776 11.555 19.6501 10.9276 20.2221C10.4354 20.6731 10.2106 21.3133 9.98583 21.922C9.23358 24.1124 8.66279 26.3924 8.56875 28.7141C8.37628 28.7258 8.18381 28.7376 7.99134 28.75C7.87895 26.9908 7.95241 25.2271 7.93478 23.4656C7.94727 20.9012 7.90686 18.336 7.95241 15.7715ZM66.0417 19.6486C65.7052 20.2522 65.4973 20.9349 65.5252 21.6308C65.5311 26.6424 65.5238 31.654 65.5311 36.6656C67.6057 36.4207 69.7023 36.3892 71.7695 36.0753C71.7695 31.4069 71.7827 26.7385 71.7651 22.0708C71.7555 20.8264 71.4161 19.4162 70.3245 18.677C68.975 17.6767 66.885 18.2604 66.0417 19.6486ZM34.1607 18.4188C34.1673 22.1068 34.0071 25.7918 34.0079 29.4797C33.9498 31.2837 33.9028 33.0884 33.9631 34.8932C34.777 34.8932 35.6174 34.9643 36.4079 34.7252C37.0007 34.5404 37.3644 33.8988 37.3151 33.2945C37.3313 29.0162 37.3056 24.7372 37.3262 20.4582C37.2784 19.9361 37.4474 19.2754 36.9721 18.8984C36.2389 18.1372 35.0892 18.377 34.1607 18.4188ZM114.654 22.0488C113.894 26.0389 113.176 30.037 112.417 34.0271C113.836 34.0256 115.255 34.0286 116.676 34.0227C116.603 33.2813 116.441 32.5538 116.311 31.8212C115.814 28.5542 115.178 25.3107 114.654 22.0488ZM47.8562 26.5163C47.7849 30.8122 47.8371 35.1095 47.829 39.4054C48.9978 39.189 50.1688 38.9837 51.3295 38.7285C50.8409 37.2648 50.5655 35.7343 50.0035 34.2948C49.8558 33.7976 49.822 33.2732 49.6545 32.7804C49.0521 30.6934 48.4571 28.6041 47.8562 26.5163ZM57.9778 32.1344C57.4599 34.0117 56.9397 35.8883 56.4196 37.7649C57.3937 37.6637 58.3686 37.5691 59.339 37.4364C59.3743 33.9464 59.361 30.455 59.3449 26.9644C58.8329 28.6723 58.4244 30.4088 57.9778 32.1344ZM80.4542 29.7078C80.0119 31.7611 79.4757 33.7946 79.09 35.8597C79.7298 35.859 80.3704 35.8531 81.0117 35.8355C81.0338 33.0474 81.0558 30.257 80.9963 27.4696C80.7627 28.2015 80.6547 28.9664 80.4542 29.7078ZM133.826 29.8244C132.997 30.3802 132.655 31.4538 132.672 32.4108C132.669 35.5869 132.67 38.7644 132.677 41.9412C133.697 42.2096 134.725 42.4546 135.753 42.701C135.764 38.2841 135.756 33.8665 135.756 29.4489C135.096 29.2964 134.39 29.4643 133.826 29.8244ZM141.857 29.4562C141.854 30.774 141.833 32.0918 141.89 33.4089C141.989 35.7387 141.872 38.0722 141.958 40.4034C142.029 41.8063 141.979 43.2114 142.03 44.615C143.379 45.1129 144.692 45.7062 146.049 46.1872C145.725 45.4502 145.094 44.8071 145.032 43.9748C144.909 43.2803 144.79 42.5807 144.795 41.8738C144.78 38.6948 144.809 35.5158 144.79 32.3368C144.799 31.5345 144.601 30.6846 144.044 30.0796C143.471 29.5046 142.619 29.4452 141.857 29.4562ZM112.143 35.46C111.986 36.1428 111.915 36.8416 111.801 37.5317C113.638 37.8302 115.473 38.1484 117.323 38.364C117.162 37.2904 116.997 36.2168 116.945 35.1315C115.522 35.1836 114.108 35.0083 112.689 34.9834C112.292 34.7663 112.193 35.2268 112.143 35.46ZM77.4165 36.5938C77.44 37.0418 77.4657 37.4906 77.5201 37.9372C77.7126 37.4906 77.8757 37.0316 78.0821 36.5901C77.8654 36.5938 77.6237 36.5857 77.4165 36.5938ZM65.5296 37.5559C65.5274 39.4838 65.5267 41.4118 65.523 43.3397C65.5473 43.9022 65.4797 44.5057 65.7515 45.0249C66.052 45.6886 66.4472 46.4307 67.1789 46.6962C68.0655 47.0973 69.1116 47.1215 70.0277 46.7952C70.6786 46.5656 71.206 46.0428 71.5117 45.4319C71.7886 44.7477 71.7666 43.9887 71.7768 43.2656C71.771 41.1837 71.7739 39.1018 71.7702 37.0198C69.6898 37.1944 67.6116 37.4004 65.5296 37.5559ZM103.653 37.5339C103.776 39.3936 103.707 41.2585 103.728 43.1212C103.726 43.7284 103.83 44.3334 103.992 44.9186C104.252 45.8484 104.971 46.647 105.882 46.9792C106.826 47.2689 108.027 47.2997 108.768 46.5378C109.57 45.6064 109.638 44.329 109.871 43.1798C110.085 41.5577 110.51 39.973 110.706 38.3479C109.141 37.9644 107.528 37.8177 105.926 37.7048C105.17 37.6256 104.415 37.5222 103.653 37.5339ZM124.387 40.8889C124.812 42.756 125.147 44.6428 125.544 46.5158C125.696 46.8274 126.123 46.7915 126.399 46.8678C126.759 45.14 126.507 43.358 126.565 41.6076C125.843 41.356 125.125 41.0891 124.387 40.8889Z" fill="#F4CEA2"/>
<path d="M14.7685 51.2877C15.4818 51.2533 16.176 51.0868 16.8783 50.9746C16.3501 52.893 15.7602 54.7938 15.2085 56.7049C15.9872 55.8901 16.4617 54.7183 17.5453 54.2409C17.8663 54.0869 18.3071 54.0927 18.5642 54.3626C18.8147 54.6178 18.7589 55.0321 18.7809 55.3555C18.6215 56.7305 18.219 58.1114 17.4028 59.2466C17.0737 59.7181 16.5565 60.1244 15.9438 60.0577C15.5898 59.9682 15.1622 59.7834 15.0674 59.3903C15.0395 59.0728 15.3363 58.7699 15.6449 58.7435C15.9416 58.8279 16.1003 59.1447 16.3868 59.2503C16.5176 59.2539 16.6439 59.1828 16.7262 59.0845C17.164 58.5045 17.3286 57.7814 17.5203 57.095C17.7312 56.3771 17.776 55.6247 17.7951 54.8818C17.4748 54.8576 17.1464 54.9353 16.9003 55.1495C16.2046 55.7237 15.7661 56.5355 15.29 57.2857C14.8125 57.986 14.6715 58.8301 14.3864 59.6133C14.0897 59.614 13.7929 59.6155 13.4968 59.6177C13.9303 57.7961 14.4849 56.0053 15.0579 54.224C15.243 53.3579 15.6147 52.5256 15.6089 51.6265C15.329 51.5943 15.0491 51.5635 14.7685 51.5363C14.7685 51.4527 14.7685 51.3699 14.7685 51.2877Z" fill="#F4CEA2"/>
<path d="M31.286 51.3241C31.599 51.2435 31.9229 51.1988 32.2476 51.1988C32.8904 51.2369 33.4546 51.5874 34.0827 51.693C34.3317 51.6197 34.4647 51.3762 34.616 51.1855C34.666 51.1973 34.7659 51.2215 34.8158 51.2332C34.6851 51.8206 34.4765 52.3911 34.4133 52.9939C34.3557 53.2334 34.3192 53.6006 34.2453 53.9635C34.2037 54.1679 33.998 54.0595 33.998 54.0595C33.9352 53.5108 34.0614 52.8619 33.7 52.3801C33.0785 51.4803 31.4535 51.3902 30.9121 52.4175C30.8261 52.7981 30.7754 53.2521 31.0002 53.6011C31.6247 54.6168 32.6693 55.2761 33.3679 56.2323C33.9571 57.2803 33.6192 58.8753 32.4695 59.3989C31.6798 59.9269 30.6675 59.8726 29.8043 59.5719C29.4825 59.4685 29.1622 59.3395 28.8162 59.3534C28.5341 59.3964 28.4037 59.6317 28.2822 59.8461C28.2822 59.8461 28.1856 59.8243 28.1455 59.8235C28.2307 59.3057 28.3608 58.7983 28.4996 58.2937C28.6134 57.8765 28.8232 56.6141 28.8232 56.6141L28.9903 56.6421C29.0248 57.3674 28.9698 58.1493 29.4502 58.7499C30.1187 59.4986 31.4946 59.6167 32.1756 58.821C32.5003 58.3913 32.6392 57.8017 32.4636 57.2832C31.9038 56.0094 30.6072 55.2863 29.927 54.0961C29.3672 52.9881 30.1782 51.6556 31.286 51.3242V51.3241Z" fill="#F4CEA2"/>
<path d="M8.16024 51.3371C10.2443 51.329 12.3292 51.3261 14.4133 51.3385C14.1406 51.9035 13.9868 52.9515 13.8435 53.694C13.8435 53.694 13.7299 53.6807 13.5751 53.6683C13.531 53.2474 13.6192 52.8191 13.5443 52.4026C13.5061 52.1782 13.3173 51.9941 13.0895 51.9721C12.5995 51.9069 12.1037 51.9193 11.6115 51.9113C11.2331 53.2687 10.8137 54.6136 10.4449 55.9732C10.1503 56.9529 9.79403 57.9312 9.70294 58.9564C9.80872 59.4433 10.4214 59.3678 10.8041 59.4272C10.7924 59.469 10.7703 59.5511 10.7586 59.5929C9.57144 59.631 8.38282 59.6222 7.19495 59.6156C7.19935 59.5731 7.2067 59.488 7.21037 59.4448C7.56519 59.3436 8.00964 59.378 8.28732 59.0979C8.44233 58.9131 8.53342 58.6843 8.60541 58.457C8.99035 57.0893 9.36648 55.7187 9.80358 54.3672C10.1665 53.5855 10.2818 52.7216 10.5308 51.9025C9.85941 51.9567 9.0932 51.8343 8.52534 52.2853C8.07208 52.5265 8.01809 53.155 7.84105 53.5803C7.72571 53.6119 7.59531 53.5862 7.47924 53.6185C7.76428 52.8749 7.90018 52.088 8.16024 51.3371Z" fill="#F4CEA2"/>
<path d="M57.9193 51.3603C59.0139 51.3243 60.11 51.3295 61.2053 51.339C61.1876 51.4138 61.17 51.4893 61.1531 51.5656C60.8277 51.6573 60.4405 51.6895 60.2003 51.9579C59.8411 52.3877 59.7801 52.9575 59.584 53.4635C59.3886 53.9864 59.2798 54.5341 59.1366 55.0717C60.3898 55.0783 61.6424 55.0753 62.8964 55.0783C63.1748 54.0582 63.5913 53.0601 63.6839 52.0012C63.5862 51.5854 63.0595 51.669 62.7311 51.5942C62.7421 51.5157 62.7546 51.4373 62.7678 51.3603C63.8888 51.3229 65.0106 51.3295 66.1331 51.3427C66.1125 51.4123 66.092 51.4835 66.0721 51.5539C65.6864 51.6565 65.1965 51.7196 64.9731 52.0973C64.7366 52.5013 64.6587 52.9699 64.5228 53.4121C64.0644 54.9595 63.5788 56.4995 63.1344 58.0512C63.0815 58.4172 62.8251 58.8997 63.1256 59.2231C63.368 59.339 63.6493 59.3698 63.9109 59.4358C63.9013 59.4754 63.8837 59.556 63.8741 59.5956C62.8082 59.6323 61.7423 59.625 60.6763 59.6213C60.6793 59.5692 60.6837 59.4651 60.6859 59.4123C60.9614 59.3668 61.2369 59.3199 61.5138 59.2752C62.1926 58.129 62.41 56.7892 62.7605 55.5212C61.5094 55.5102 60.2583 55.5095 59.008 55.5234C58.7494 56.0617 58.6018 56.6388 58.4762 57.2204C58.2749 57.8767 58.0839 58.5528 58.1456 59.2473C58.4225 59.3052 58.6995 59.3683 58.9779 59.4233C58.9823 59.4724 58.9904 59.5707 58.9948 59.6198C57.8995 59.6198 56.8049 59.6404 55.7111 59.603C55.7133 59.567 55.7177 59.4944 55.7199 59.4578C56.154 59.3221 56.7527 59.2972 56.9092 58.7934C57.2082 57.898 57.4646 56.9886 57.7122 56.0778C57.8525 55.464 58.1926 54.9118 58.2793 54.2855C58.3763 53.4913 58.8493 52.7719 58.745 51.9499C58.6473 51.5788 58.1779 51.6668 57.8833 51.5935C57.8943 51.515 57.9061 51.4373 57.9193 51.3603Z" fill="#F4CEA2"/>
<path d="M114.173 51.3354C114.864 51.3332 115.556 51.331 116.248 51.3494C116.542 53.553 116.683 55.7787 117.059 57.9721C117.483 57.3686 117.882 56.7474 118.338 56.1666C119.148 55.1341 119.817 53.9952 120.692 53.0126C121.095 52.4743 121.424 51.884 121.821 51.3406C122.463 51.3347 123.106 51.3362 123.751 51.353C123.762 51.4308 123.775 51.5092 123.789 51.5884C123.338 51.6794 122.687 51.6486 122.554 52.2198C122.035 53.5538 121.729 54.9588 121.285 56.3177C121.04 57.2036 120.686 58.0931 120.708 59.0266C120.831 59.3948 121.343 59.3185 121.638 59.4483C121.643 59.4894 121.655 59.573 121.66 59.6148C120.506 59.6236 119.352 59.6236 118.2 59.617C118.202 59.5744 118.207 59.4908 118.209 59.449C118.571 59.397 119.023 59.3984 119.265 59.0692C119.647 58.583 119.717 57.9398 119.913 57.3722C120.295 55.929 120.738 54.5027 121.109 53.0573C120.216 54.1184 119.518 55.3233 118.664 56.4152C117.909 57.4742 117.148 58.5302 116.424 59.6104C116.331 59.6133 116.238 59.6162 116.148 59.6206C115.859 57.4375 115.682 55.2404 115.377 53.0602C114.905 54.6831 114.376 56.2891 113.935 57.9215C113.861 58.3021 113.666 58.7084 113.796 59.1007C113.967 59.3808 114.377 59.3361 114.666 59.4329C114.636 59.4908 114.607 59.5502 114.581 59.6104C113.676 59.6221 112.773 59.6221 111.87 59.6155C111.885 59.5766 111.915 59.4989 111.93 59.46C112.234 59.3808 112.584 59.375 112.855 59.1931C113.024 59.0193 113.167 58.8103 113.261 58.5852C113.711 57.12 114.079 55.6306 114.574 54.18C114.898 53.4665 114.945 52.6686 115.134 51.917C114.795 51.7776 114.441 51.6801 114.088 51.5892C114.115 51.5041 114.143 51.419 114.173 51.3354Z" fill="#F4CEA2"/>
<path d="M86.9404 51.7391C87.2593 51.6584 87.6059 51.8938 87.7565 52.0229C87.736 52.3382 87.6801 52.7313 87.3701 52.9007C87.0219 53.0562 86.5606 52.8472 86.4981 52.4636C86.3784 52.1432 86.648 51.8337 86.9404 51.7391Z" fill="#F4CEA2"/>
<path d="M36.7012 53.4269C36.9826 53.1226 37.1398 52.6929 37.5358 52.5117C37.419 53.1006 37.2441 53.6763 37.0928 54.2571C37.4101 54.2585 37.7312 54.2644 38.0507 54.2681C38.0118 54.3766 37.9736 54.4859 37.9369 54.5959C37.6136 54.6113 37.2926 54.6289 36.9716 54.645C36.5903 56.174 35.9409 57.6414 35.7168 59.2071C36.3552 59.1315 36.6168 58.462 37.1317 58.1709C36.9686 58.8162 36.4654 59.3552 35.8733 59.6405C35.5817 59.6632 35.1754 59.8231 34.9323 59.5833C34.67 59.2379 34.8214 58.7744 34.9132 58.3989C35.2129 57.1332 35.7477 55.9357 35.9431 54.6428C35.7352 54.6384 35.3187 54.6296 35.1101 54.6245C35.1159 54.5783 35.127 54.4851 35.1321 54.4389C35.7249 54.2321 36.295 53.9131 36.7012 53.4269Z" fill="#F4CEA2"/>
<path d="M46.201 53.6036C46.5293 53.2494 46.7233 52.7346 47.2015 52.5469C47.0979 53.1247 46.9297 53.6887 46.7762 54.2548C47.0737 54.2592 47.372 54.2651 47.6717 54.2709C47.6327 54.3795 47.5945 54.488 47.5571 54.598C47.2537 54.6127 46.9525 54.6295 46.6513 54.6457C46.2796 56.171 45.6537 57.6267 45.3753 59.1747C45.9666 59.1469 46.3156 58.5903 46.6917 58.2038C46.724 58.2507 46.7887 58.3439 46.821 58.3901C46.4456 58.8381 46.1209 59.3969 45.5648 59.6382C45.2584 59.6741 44.6671 59.8619 44.54 59.4461C44.4827 58.3043 44.947 57.2255 45.2922 56.1593C45.4135 55.6562 45.5178 55.148 45.639 54.6449C45.4311 54.6413 45.0146 54.6325 44.8059 54.6288C44.8089 54.5767 44.814 54.4733 44.8169 54.4213C45.3121 54.2189 45.8461 54.0253 46.201 53.6036Z" fill="#F4CEA2"/>
<path d="M89.8827 53.7199C90.2309 53.3723 90.5049 52.9602 90.7988 52.5664C90.8502 52.5811 90.953 52.6089 91.0045 52.6236C90.8788 53.1729 90.729 53.7163 90.5769 54.2597C90.8722 54.2626 91.169 54.2663 91.468 54.2714C91.4541 54.3792 91.4423 54.4877 91.4305 54.597C91.1066 54.6161 90.7892 54.6381 90.4697 54.6615C90.1031 55.8488 89.749 57.0405 89.4081 58.2358C89.3178 58.5643 89.2362 58.8987 89.2252 59.2405C89.81 59.0762 90.1471 58.5196 90.621 58.1823C90.477 58.8137 89.9304 59.2808 89.4228 59.6387C89.0357 59.7633 88.6008 59.7135 88.2592 59.4942C88.3267 58.3077 88.7396 57.182 89.1128 56.0659C89.2179 55.6002 89.3354 55.1375 89.4566 54.6755C89.1275 54.6454 88.8028 54.6219 88.4781 54.5926C88.9247 54.2685 89.4808 54.1093 89.8827 53.7199Z" fill="#F4CEA2"/>
<path d="M22.4162 54.3527C22.9289 54.1261 23.521 54.0476 24.0698 54.1789C24.3901 54.3322 24.8742 54.5441 24.7545 55.0017C24.7971 55.4901 24.4944 55.9191 24.133 56.2117C23.2294 56.934 22.0613 57.2486 20.9205 57.3022C20.9815 57.7238 20.8125 58.2489 21.1519 58.5943C21.4435 59.0468 22.0474 59.1392 22.5403 59.0937C23.1956 58.9492 23.6981 58.4894 24.2549 58.1484C24.2726 58.2042 24.3078 58.3156 24.3254 58.3706C23.7355 58.8759 23.1192 59.4215 22.3545 59.6378C21.7697 59.6804 21.0806 59.8622 20.5686 59.4714C19.7495 58.914 19.715 57.7906 20.0118 56.9362C20.3401 55.757 21.3003 54.8154 22.4162 54.3527ZM22.3831 54.7553C21.6904 55.3258 21.1548 56.1098 20.9778 56.9971C21.7366 56.9135 22.5477 56.772 23.1354 56.241C23.668 55.8714 23.9574 55.2576 23.9214 54.6101C23.4226 54.4598 22.8121 54.4099 22.3831 54.7553Z" fill="#F4CEA2"/>
<path d="M39.5078 55.1298C40.0499 54.5504 40.811 54.0518 41.6397 54.1464C41.9622 54.2578 42.184 54.546 42.4147 54.7858C42.4837 54.6201 42.5543 54.4558 42.6263 54.2923C42.9385 54.2571 43.2492 54.2014 43.5614 54.1662C43.1662 55.8469 42.494 57.4544 42.2222 59.1645C42.7269 59.0516 43.0575 58.6402 43.3903 58.2845C43.3961 58.9299 42.746 59.3405 42.2634 59.6383C41.9423 59.6845 41.3818 59.859 41.2613 59.4234C41.1982 58.9959 41.4207 58.572 41.4413 58.1459C40.9308 58.7671 40.36 59.397 39.5791 59.6691C39.2242 59.6764 38.7864 59.8128 38.4881 59.5517C37.9842 59.1352 37.9497 58.3879 38.0731 57.7947C38.2435 56.7761 38.8503 55.899 39.5078 55.1298ZM41.1717 54.5196C40.8294 54.5805 40.5576 54.8225 40.3225 55.063C39.6099 55.8844 39.1427 56.9323 39.0296 58.0154C39.0435 58.3645 39.0347 58.8419 39.4218 58.9878C39.9478 59.1389 40.4319 58.814 40.7802 58.4539C41.6705 57.5629 42.3177 56.3148 42.1385 55.0293C42.0158 54.6113 41.6059 54.3304 41.1717 54.5196Z" fill="#F4CEA2"/>
<path d="M48.8564 55.4478C49.6079 54.5509 50.8046 53.954 51.9925 54.1659C52.3216 54.2884 52.7403 54.4857 52.7837 54.8831C52.8946 55.4478 52.4318 55.8753 52.0682 56.2317C51.1962 56.9805 50.0266 57.2569 48.9019 57.3075C48.8733 57.8649 48.8307 58.6151 49.4375 58.8893C50.4138 59.4855 51.4496 58.6994 52.2504 58.1626C52.2665 58.2147 52.2981 58.3188 52.3135 58.3709C51.6149 58.9656 50.8568 59.6733 49.879 59.6945C49.5198 59.6843 49.126 59.7774 48.791 59.6073C48.0718 59.2846 47.6656 58.4486 47.7846 57.6815C47.8441 56.8301 48.3546 56.1027 48.8564 55.4478ZM50.2037 54.8853C49.5433 55.4074 49.1716 56.2031 48.9629 57.001C49.7732 56.9027 50.6379 56.7275 51.2505 56.1459C51.6935 55.7976 51.9021 55.2425 51.9234 54.6917C51.3864 54.3617 50.6592 54.4629 50.2037 54.8853Z" fill="#F4CEA2"/>
<path d="M66.7268 55.171C67.4203 54.5998 68.2673 54.0688 69.2054 54.1275C69.6668 54.1055 70.2119 54.3299 70.3404 54.8117C70.5652 55.413 70.048 55.8926 69.6646 56.2696C68.7639 56.9846 67.5885 57.2574 66.4579 57.297C66.4932 57.7003 66.4844 58.1278 66.6423 58.5084C66.9722 58.9844 67.59 59.2051 68.1549 59.0694C68.8198 58.911 69.3399 58.4322 69.9547 58.1608C69.6712 58.7644 69.024 59.079 68.4906 59.4236C67.6928 59.7749 66.6232 59.9274 65.9195 59.3019C65.5977 58.9404 65.4633 58.4542 65.417 57.9826C65.4207 56.912 65.9503 55.8904 66.7268 55.171ZM68.224 54.6108C67.338 55.105 66.804 56.0444 66.5476 56.9992C67.4894 56.9149 68.5178 56.667 69.1239 55.8765C69.417 55.5414 69.6587 54.9606 69.3259 54.58C68.9939 54.404 68.5612 54.4714 68.224 54.6108Z" fill="#F4CEA2"/>
<path d="M71.1342 54.5438C71.8424 54.3524 72.5763 54.271 73.3021 54.172C73.031 55.0872 72.7526 56.0002 72.4976 56.9198C73.1603 55.9995 73.701 54.9479 74.6486 54.2776C74.8719 54.128 75.2657 54.0048 75.431 54.2842C75.7263 54.7154 75.4134 55.3021 75.0842 55.6006C74.714 55.7487 74.5303 55.305 74.4282 55.0337C73.8376 55.2874 73.5327 55.9049 73.1559 56.3874C72.4301 57.3327 72.0356 58.473 71.7491 59.6156C71.4273 59.6148 71.1122 59.6192 70.7941 59.62C70.9851 58.8698 71.3054 58.1628 71.5544 57.4339C71.6572 56.5121 72.1355 55.6534 72.1046 54.7176C71.7814 54.6619 71.4538 54.5988 71.1342 54.5438Z" fill="#F4CEA2"/>
<path d="M75.9046 54.6384C76.5842 54.3201 77.346 54.3033 78.0688 54.1441C77.8301 54.9486 77.5972 55.7545 77.3783 56.5649C77.9175 55.6929 78.4817 54.7682 79.4124 54.2607C79.8099 53.9835 80.4909 54.0884 80.5878 54.6318C80.7134 55.3893 80.3395 56.1095 80.2264 56.8457C80.8259 55.8477 81.4378 54.7631 82.5103 54.2013C82.8387 54.0246 83.3169 54.1067 83.4822 54.4602C83.7173 55.3145 83.1987 56.0816 83.0804 56.9037C82.9357 57.6399 82.6514 58.3469 82.5654 59.0956C82.9805 58.8961 83.3008 58.5559 83.6101 58.2237C83.6571 58.253 83.7518 58.3109 83.7988 58.3395C83.3228 58.9929 82.741 59.8891 81.7875 59.6859C81.6391 59.5723 81.5348 59.3853 81.5759 59.1953C81.7875 58.0557 82.1761 56.9587 82.4618 55.8374C82.5426 55.5074 82.5617 55.1664 82.5691 54.8291C81.9021 54.8716 81.4672 55.4495 81.0837 55.932C80.6018 56.6521 80.1184 57.3899 79.8459 58.2185C79.6865 58.6791 79.5696 59.1535 79.411 59.6148C79.0914 59.6148 78.7785 59.6199 78.4626 59.6221C78.6176 58.7201 79.0775 57.9061 79.2148 57.0019C79.3456 56.2547 79.7665 55.492 79.5146 54.7257C79.181 54.8584 78.8762 55.0557 78.6396 55.327C78.0292 55.9936 77.4694 56.7343 77.1498 57.5871C76.8464 58.2376 76.7245 58.9526 76.4563 59.617C76.1493 59.6089 75.8488 59.6067 75.5454 59.5965C75.8966 58.2735 76.3866 56.9946 76.7061 55.6629C76.723 55.3959 76.9963 55.0359 76.7568 54.7939C76.5202 54.5981 76.1853 54.6802 75.9046 54.6384Z" fill="#F4CEA2"/>
<path d="M85.0739 54.4814C85.7806 54.3457 86.5035 54.2907 87.2043 54.1191C86.9141 55.1722 86.6093 56.2209 86.3242 57.2747C86.1707 57.9039 85.8321 58.5067 85.9327 59.1747C86.3617 58.9811 86.7018 58.6394 86.9443 58.2405C86.9979 58.2507 87.1037 58.2727 87.1573 58.283C86.9891 58.7853 86.5689 59.1498 86.1744 59.4783C85.777 59.7893 85.2348 59.6925 84.8014 59.5069C84.8851 58.7032 85.1107 57.9244 85.3994 57.1727C85.5911 56.4042 85.8372 55.6503 86.0319 54.8825C85.9459 54.8011 85.8622 54.7197 85.7792 54.6383C85.5375 54.6493 85.3075 54.6735 85.0695 54.6955C85.071 54.642 85.0732 54.5349 85.0739 54.4814Z" fill="#F4CEA2"/>
<path d="M93.2886 54.846C93.8102 54.4463 94.4192 54.0144 95.1193 54.139C95.4984 54.216 95.7209 54.5526 95.9017 54.8636C95.9494 54.6795 95.9994 54.4962 96.0515 54.3143C96.4012 54.263 96.7479 54.183 97.0984 54.1317C96.7891 55.2009 96.4335 56.2569 96.1397 57.3312C95.9347 57.9164 95.7636 58.5163 95.7408 59.1396C96.1874 59.0208 96.4842 58.6432 96.7722 58.3066C96.8405 58.3594 96.9088 58.4122 96.9801 58.4664C96.6547 58.8632 96.3535 59.309 95.9039 59.5782C95.5652 59.7205 95.1781 59.6633 94.8233 59.7117C94.7476 59.1748 94.8159 58.6395 94.9437 58.1174C94.4273 58.6967 93.9446 59.3897 93.1748 59.6464C92.7832 59.6757 92.3116 59.8077 91.9693 59.5488C91.5211 59.1184 91.3999 58.4393 91.5167 57.8475C91.757 56.6888 92.4188 55.6387 93.2886 54.846ZM94.7226 54.5174C94.1305 54.6619 93.6736 55.154 93.3783 55.6636C92.9169 56.4344 92.4886 57.2975 92.5628 58.2237C92.5423 58.5148 92.615 58.9233 92.95 59.0098C93.3775 59.0876 93.8337 58.9387 94.1202 58.6094C95.0605 57.6752 95.8627 56.3662 95.5887 54.9875C95.5197 54.6062 95.0958 54.3568 94.7226 54.5174Z" fill="#F4CEA2"/>
<path d="M99.0597 54.7372C99.7811 54.1234 100.811 53.9921 101.712 54.1872C102.405 54.5465 103.206 54.4805 103.965 54.4981C103.904 54.7093 103.842 54.9205 103.784 55.1332C103.448 55.1354 103.121 55.1449 102.789 55.1493C102.854 55.5739 102.943 56.0359 102.745 56.4393C102.375 57.1359 101.709 57.7094 100.9 57.7908C100.239 57.8715 99.5408 58.0533 99.0898 58.5777C99.9302 59.1453 100.992 59.1027 101.914 59.454C102.85 59.8053 102.816 61.247 101.997 61.6958C101.48 61.9561 100.94 62.2297 100.347 62.2436C99.4182 62.3001 98.3757 62.3543 97.5691 61.8043C97.2297 61.5887 97.0409 61.1553 97.1548 60.7615C97.3913 60.1455 97.9952 59.8082 98.5491 59.5215C98.4786 59.2758 98.3442 59.0169 98.3875 58.7603C98.6086 58.3122 99.0971 58.1017 99.5262 57.8957C98.8591 57.6544 98.1671 57.1 98.2251 56.3161C98.1759 55.6744 98.6013 55.131 99.0597 54.7372ZM100.597 54.4446C99.8178 54.6294 99.4343 55.4471 99.3175 56.1716C99.2198 56.6483 99.3249 57.2958 99.8369 57.4938C100.316 57.7739 100.853 57.3999 101.237 57.1337C101.671 56.5632 101.913 55.7807 101.742 55.0723C101.677 54.5333 101.053 54.3625 100.597 54.4446ZM98.9039 59.6549C98.1509 59.8141 97.6088 60.9434 98.2141 61.5257C98.8092 61.9664 99.6202 61.8967 100.317 61.8564C100.821 61.8087 101.382 61.6921 101.726 61.2881C101.964 61.0079 101.916 60.4741 101.551 60.3281C100.839 60.07 100.091 59.9395 99.3653 59.729C99.2132 59.6909 99.0604 59.6388 98.9039 59.6549Z" fill="#F4CEA2"/>
<path d="M105.78 54.8498C106.357 54.3826 107.092 54.0827 107.844 54.1348C108.287 54.1172 108.8 54.3166 108.971 54.7537C109.181 55.347 108.766 55.875 108.355 56.2468C107.456 56.9544 106.291 57.2419 105.166 57.3006C105.168 57.7464 105.077 58.2568 105.382 58.6316C105.819 59.1126 106.598 59.2696 107.179 58.9579C107.665 58.7614 108.068 58.4152 108.517 58.1505C108.533 58.2048 108.566 58.3126 108.582 58.3661C107.97 58.8831 107.342 59.4441 106.545 59.6465C105.904 59.7132 105.166 59.8306 104.629 59.3796C104.168 58.8985 103.934 58.2048 104.069 57.5426C104.294 56.4829 104.88 55.4746 105.78 54.8498ZM106.73 54.6928C105.918 55.2091 105.432 56.0906 105.186 56.9977C106.332 56.9442 107.62 56.4528 108.087 55.3198C108.17 55.0426 108.156 54.5975 107.813 54.5095C107.444 54.4604 107.045 54.4816 106.73 54.6928Z" fill="#F4CEA2"/>
<path d="M124.481 54.1658C124.804 53.9928 125.161 54.2766 125.214 54.5904C125.253 55.1514 125.006 55.6699 124.848 56.195C124.638 57.1226 124.28 58.0166 124.144 58.9604C125.117 59.1298 125.652 58.1552 126.143 57.5018C126.893 56.5616 127.256 55.3978 127.598 54.2656C127.9 54.267 128.204 54.2692 128.511 54.2729C128.189 55.4983 127.83 56.7134 127.464 57.9264C127.339 58.329 127.268 58.744 127.233 59.1635C127.688 59.0557 127.968 58.6751 128.218 58.3092C128.268 58.3216 128.369 58.3466 128.42 58.359C128.142 58.8936 127.729 59.3608 127.203 59.6629C126.931 59.6409 126.518 59.8484 126.333 59.5683C126.203 59.4165 126.221 59.2068 126.264 59.0271C126.424 58.3253 126.638 57.6374 126.842 56.9474C126.172 57.8149 125.68 58.8577 124.745 59.4825C124.389 59.7714 123.905 59.6592 123.484 59.7142C123.37 59.4788 123.212 59.2442 123.216 58.9743C123.393 57.5282 124.081 56.1847 124.179 54.7276C123.755 54.8266 123.493 55.1786 123.243 55.5049C123.194 55.4924 123.094 55.4682 123.045 55.4558C123.401 54.9219 123.831 54.3367 124.481 54.1658Z" fill="#F4CEA2"/>
<path d="M130.032 55.6535C129.948 54.874 130.651 54.1348 131.424 54.1275C131.824 54.0769 132.177 54.2859 132.559 54.3475C132.875 54.4208 133.14 54.2199 133.414 54.1055C133.293 54.7222 133.164 55.3375 133.037 55.9527C132.954 55.9513 132.871 55.9498 132.792 55.9498C132.7 55.5516 132.739 55.0515 132.397 54.7625C132.018 54.3621 131.406 54.5007 130.931 54.6115C130.928 54.9422 130.809 55.3294 131.016 55.6279C131.533 56.348 132.309 56.9405 132.543 57.8279C132.823 58.5773 132.214 59.2483 131.612 59.5886C130.691 59.9553 129.693 59.3341 128.777 59.6979C128.874 59.0701 128.987 58.4453 129.106 57.822C129.184 57.8088 129.264 57.7956 129.345 57.7839C129.451 58.3368 129.494 59.0701 130.075 59.3517C130.559 59.4067 131.377 59.6025 131.573 58.966C131.844 58.3969 131.473 57.8484 131.129 57.4194C130.696 56.8782 130.106 56.3883 130.032 55.6535Z" fill="#F4CEA2"/>
<path d="M135.822 54.8449C136.504 54.2971 137.409 54.0287 138.279 54.1563C138.759 54.2392 139.176 54.6983 139.042 55.2094C138.992 55.7264 138.577 56.1033 138.191 56.4084C137.309 56.9848 136.263 57.2686 135.215 57.3111C135.233 57.57 135.269 58.087 135.287 58.3459C135.479 58.9523 136.196 59.1877 136.777 59.099C137.448 58.9142 138.029 58.5116 138.625 58.1655C138.355 58.7529 137.75 59.0785 137.224 59.3982C136.688 59.7634 136.003 59.704 135.391 59.6908C134.629 59.5962 134.119 58.8145 134.137 58.0833C134.033 56.7912 134.808 55.5841 135.822 54.8449ZM136.479 54.9153C135.808 55.4338 135.463 56.2148 135.239 57.0075C136.25 56.9078 137.404 56.5895 137.963 55.6619C138.275 55.359 138.139 54.9285 138.122 54.5509C137.553 54.4805 136.898 54.457 136.479 54.9153Z" fill="#F4CEA2"/>
<path d="M141.015 54.1741C141.325 54.0172 141.576 54.2775 141.842 54.3802C141.814 55.2352 141.441 56.0104 141.259 56.8324C141.08 57.513 140.896 58.1935 140.678 58.863C140.954 58.899 141.268 59.0237 141.516 58.8374C142.25 58.2918 142.745 57.4961 143.221 56.7327C143.655 55.9576 143.89 55.093 144.206 54.268C144.511 54.2643 144.829 54.2651 145.141 54.2636C144.692 55.566 144.362 56.9036 143.976 58.2243C143.888 58.5323 143.816 58.8476 143.817 59.1696C144.304 59.0016 144.555 58.5221 144.933 58.2038C144.976 58.7611 144.463 59.1124 144.098 59.4417C143.807 59.7108 143.374 59.6697 143.018 59.7445C142.937 59.5341 142.811 59.3185 142.856 59.0853C142.972 58.4157 143.207 57.7741 143.325 57.1053C142.702 57.9017 142.231 58.8528 141.373 59.4343C140.993 59.7027 140.445 59.8215 140.018 59.6228C139.674 59.2921 139.812 58.7252 139.89 58.3116C140.184 57.1522 140.648 56.0243 140.75 54.8231C140.693 54.807 140.58 54.7755 140.522 54.7593C140.271 55.0072 140.022 55.255 139.791 55.5212C139.738 55.5044 139.631 55.4699 139.578 55.453C139.948 54.939 140.378 54.3648 141.015 54.1741Z" fill="#F4CEA2"/>
<path d="M146.076 54.5244C146.763 54.3755 147.466 54.3051 148.153 54.1489C147.953 54.9856 147.661 55.7967 147.444 56.6283C148.037 55.7732 148.525 54.7671 149.5 54.2714C149.797 54.1562 150.176 54.0499 150.462 54.2486C150.67 54.366 150.843 54.5852 150.733 54.8544C150.733 55.5474 150.435 56.1868 150.301 56.8571C150.882 56.0028 151.386 55.0678 152.202 54.4041C152.477 54.2046 152.823 54.1188 153.16 54.1298C153.506 54.2054 153.748 54.575 153.682 54.9284C153.718 55.5378 153.395 56.079 153.278 56.6606C153.094 57.4592 152.853 58.2416 152.643 59.0329C153.167 59.0168 153.436 58.499 153.753 58.1544C153.781 58.2519 153.913 58.3575 153.838 58.4624C153.533 58.8804 153.177 59.2661 152.768 59.5836C152.454 59.7391 152.082 59.665 151.746 59.6518C151.723 59.2646 151.707 58.873 151.825 58.4983C152.06 57.7811 152.211 57.0412 152.424 56.3181C152.587 55.826 152.628 55.3083 152.667 54.7957C152.272 54.9196 151.882 55.1066 151.611 55.4264C150.583 56.6371 149.942 58.1074 149.468 59.6078C149.153 59.6115 148.85 59.6181 148.543 59.6232C148.752 58.6508 149.217 57.7525 149.36 56.7647C149.449 56.1135 149.994 55.3824 149.602 54.7356C148.913 55.0274 148.401 55.6082 147.991 56.2147C147.308 57.2436 146.916 58.4272 146.608 59.613C146.282 59.6122 145.968 59.6166 145.649 59.6174C146.073 57.9908 146.702 56.4164 146.949 54.7458C146.659 54.6894 146.365 54.6725 146.071 54.6659C146.072 54.6307 146.075 54.5596 146.076 54.5244Z" fill="#F4CEA2"/>
</svg>
