<?xml version="1.0" standalone="no"?>
<!DOCTYPE svg PUBLIC "-//W3C//DTD SVG 20010904//EN"
 "http://www.w3.org/TR/2001/REC-SVG-20010904/DTD/svg10.dtd">
<svg version="1.0" xmlns="http://www.w3.org/2000/svg"
 width="192.000000pt" height="192.000000pt" viewBox="0 0 192.000000 192.000000"
 preserveAspectRatio="xMidYMid meet">
<metadata>
Created by potrace 1.14, written by Peter Selinger 2001-2017
</metadata>
<g transform="translate(0.000000,192.000000) scale(0.100000,-0.100000)"
fill="#000000" stroke="none">
<path d="M0 1626 l0 -295 23 -4 22 -4 -22 -8 -23 -7 0 -654 0 -654 188 1 c103
0 180 3 172 6 -26 10 -80 55 -80 67 0 6 15 11 32 11 23 0 34 -5 36 -17 2 -10
11 -18 21 -18 10 0 23 -11 29 -24 10 -23 16 -25 87 -25 41 0 75 4 75 8 0 5 -9
19 -19 33 -11 13 -23 38 -27 54 -4 16 -12 36 -18 44 -14 17 -37 82 -41 113 -1
12 -6 30 -10 40 -4 11 -3 17 5 17 7 0 10 6 7 14 -3 8 1 20 9 27 12 9 16 6 25
-20 6 -17 15 -31 20 -31 6 0 5 8 -1 19 -14 27 -13 31 7 24 12 -5 15 -2 10 10
-4 11 -1 17 7 17 8 0 16 -6 19 -12 3 -9 11 -6 26 10 25 25 61 30 61 6 0 -12 9
-14 38 -12 24 2 41 -2 49 -12 9 -12 10 -9 5 15 -3 17 -11 35 -19 40 -16 12 -8
45 11 45 6 0 22 -7 34 -16 12 -8 37 -14 55 -13 18 2 37 0 42 -3 6 -3 30 -2 55
2 25 5 48 5 51 2 10 -11 38 -113 43 -160 3 -23 10 -50 15 -60 5 -10 20 -47 31
-83 12 -35 27 -76 33 -91 l12 -28 269 0 c167 0 266 4 261 9 -6 5 -26 11 -45
13 -45 4 -41 23 5 23 36 0 46 9 20 19 -8 3 -15 12 -15 21 0 21 -9 19 -30 -7
-16 -20 -21 -21 -45 -10 -23 11 -26 16 -20 42 5 25 3 30 -12 30 -20 0 -59 81
-48 100 3 5 3 20 0 31 -5 15 -10 18 -18 10 -15 -15 -27 -14 -27 4 0 9 -7 18
-16 22 -10 4 -14 13 -10 26 6 26 -10 48 -31 40 -19 -7 -33 13 -33 48 0 15 -7
29 -15 33 -8 3 -15 13 -15 22 0 10 5 14 15 10 17 -6 21 9 5 19 -5 3 -10 15
-10 26 0 12 -16 36 -35 55 -29 28 -34 38 -26 53 9 16 5 23 -25 42 -19 13 -44
40 -55 59 -17 28 -22 31 -30 19 -8 -16 4 -117 21 -171 9 -29 1 -40 -22 -35 -7
2 -10 2 -6 0 5 -3 8 -14 8 -25 0 -14 -6 -19 -22 -16 -19 2 -22 8 -20 35 2 22
-2 34 -15 42 -10 6 -12 11 -5 11 20 0 14 20 -6 20 -10 0 -22 3 -25 7 -4 3 -20
8 -36 9 -25 3 -28 1 -25 -21 1 -15 -2 -23 -8 -19 -5 3 -7 8 -4 11 6 6 -19 33
-30 33 -3 0 -1 -6 5 -14 9 -11 8 -15 -5 -20 -16 -6 -43 18 -44 38 0 5 -9 1
-20 -9 -17 -16 -21 -16 -34 -2 -17 16 -54 27 -112 32 -27 2 -34 -1 -30 -12 3
-8 1 -11 -4 -8 -6 4 -9 14 -8 23 2 10 -11 24 -34 36 -20 12 -39 29 -42 40 -3
11 -10 16 -19 13 -10 -4 -27 12 -51 48 -29 43 -34 60 -30 85 6 28 8 29 24 15
23 -21 28 -20 66 22 24 26 31 39 22 43 -40 16 -69 46 -78 81 -7 26 -19 42 -37
51 -20 9 -31 26 -41 61 -7 26 -17 47 -23 47 -5 0 -9 -4 -9 -10 0 -15 -40 -12
-41 3 0 6 -2 22 -5 35 -3 17 2 25 20 32 13 5 27 14 31 19 8 14 40 14 68 -1 50
-26 58 -28 67 -23 6 4 6 14 -2 28 -10 20 -10 21 7 7 20 -16 40 -19 70 -9 11 4
30 3 43 -2 18 -7 22 -14 17 -30 -7 -20 -4 -19 30 7 36 27 38 28 51 9 8 -11 12
-25 10 -32 -3 -7 -2 -12 2 -12 16 3 38 -2 51 -10 11 -7 9 -19 -13 -64 -31 -67
-32 -79 -6 -102 15 -14 29 -16 60 -11 50 8 54 -9 6 -29 -19 -8 -44 -26 -55
-41 -17 -21 -24 -24 -35 -15 -19 16 -48 1 -99 -52 l-38 -40 16 -33 c9 -19 14
-38 11 -43 -6 -8 53 -56 60 -48 2 2 -6 17 -18 32 -15 20 -18 30 -10 33 7 2 19
10 26 18 18 17 75 8 72 -12 -1 -7 -10 -22 -20 -33 -10 -11 -13 -22 -8 -25 13
-8 42 3 42 15 0 5 5 9 10 9 20 0 9 -29 -12 -33 -22 -3 -21 -4 7 -16 28 -12 67
-10 145 6 21 4 39 7 103 12 5 1 7 13 5 29 l-3 27 -117 5 c-116 6 -146 13 -118
30 9 6 19 5 24 0 14 -14 26 -12 26 4 0 8 8 17 18 19 21 6 141 2 162 -6 45 -16
50 -15 61 4 6 12 9 30 6 40 -3 10 -1 21 4 24 4 3 6 12 2 21 -4 10 -9 11 -17 5
-8 -7 -16 -4 -24 10 -7 10 -21 19 -32 19 -13 0 -18 5 -14 15 4 11 2 13 -9 10
-8 -4 -17 1 -21 12 -3 10 -9 23 -12 30 -3 6 4 13 17 15 26 3 39 28 15 28 -19
0 -22 19 -3 21 6 1 -1 4 -18 8 -24 5 -30 13 -37 46 -9 43 -47 144 -60 159 -17
21 -7 36 22 36 20 0 30 5 30 15 0 15 -16 19 -55 15 -19 -2 -19 -1 -2 18 13 15
16 29 11 59 -8 54 12 72 43 37 12 -14 22 -27 23 -29 0 -3 0 -25 0 -50 0 -38 3
-45 19 -45 11 0 22 -4 26 -9 8 -13 -16 -26 -43 -22 -26 3 -26 3 -6 -37 16 -33
28 -44 18 -17 -5 12 2 14 41 10 41 -4 48 -2 52 15 7 25 23 26 23 3 1 -10 7
-29 14 -42 l13 -24 22 22 c17 17 20 29 15 56 -6 31 -4 34 23 37 16 2 27 8 26
16 -2 6 3 12 10 12 27 0 25 100 -3 161 -25 53 -28 54 -112 64 -42 5 -64 2 -88
-10 -31 -16 -70 -13 -70 6 0 6 -5 7 -11 4 -7 -5 -5 -13 6 -25 13 -15 55 -88
55 -97 0 -2 -5 -3 -10 -3 -6 0 -19 14 -29 31 -12 20 -21 27 -26 19 -4 -6 -14
-9 -22 -5 -10 3 -26 -6 -44 -27 -16 -17 -32 -28 -36 -25 -4 4 8 22 25 40 40
42 40 59 0 76 -38 15 -162 41 -196 41 -37 0 -148 -56 -193 -97 -23 -21 -49
-56 -59 -79 -17 -38 -22 -41 -91 -62 -81 -23 -178 -39 -144 -23 11 5 46 19 78
31 61 24 70 34 82 90 9 42 61 109 115 147 45 32 50 43 19 43 -27 0 -19 22 12
32 14 5 2 6 -31 3 -57 -5 -194 -37 -243 -56 -19 -8 -31 -9 -38 -2 -7 7 -1 12
18 16 15 3 42 11 58 17 17 6 31 11 32 11 2 0 21 6 44 14 23 8 52 15 64 15 12
0 29 7 36 17 13 15 12 15 -7 5 -12 -6 -48 -15 -80 -18 -33 -4 -78 -15 -101
-25 -24 -10 -43 -14 -43 -9 0 5 5 12 10 15 7 4 4 19 -10 42 -11 20 -19 38 -16
40 2 3 11 -8 20 -24 l16 -28 -2 32 c-1 17 -6 29 -10 27 -4 -3 -8 4 -8 16 0 12
4 19 9 16 4 -3 7 2 6 12 -3 29 -17 52 -32 52 -8 0 -11 -4 -8 -10 3 -5 2 -10
-4 -10 -5 0 -13 5 -16 10 -3 6 -44 10 -91 10 l-84 0 0 -294z m161 247 c12 -15
12 -16 -2 -11 -9 4 -22 1 -28 -5 -6 -6 -11 -7 -11 -1 0 8 20 34 26 34 1 0 8
-8 15 -17z m259 -208 c0 -8 -4 -15 -9 -15 -5 0 -11 7 -15 15 -3 9 0 15 9 15 8
0 15 -7 15 -15z m-90 -10 c17 -20 11 -25 -18 -14 -13 5 -20 13 -17 19 9 14 21
12 35 -5z m-202 -10 c-5 -5 -108 -45 -115 -45 -2 0 -3 5 -3 10 0 6 9 10 20 10
11 0 20 4 20 9 0 5 8 12 18 14 25 7 66 8 60 2z m260 -44 c-13 -14 -24 -28 -26
-30 -1 -3 -8 1 -14 7 -10 10 -6 18 17 36 38 31 54 22 23 -13z m-114 -23 c6 -4
7 -8 2 -8 -16 0 -46 32 -46 49 0 10 5 8 17 -9 9 -14 22 -28 27 -32z m197 -171
c-10 -9 -11 -8 -5 6 3 10 9 15 12 12 3 -3 0 -11 -7 -18z m-424 -9 c-3 -8 -6
-5 -6 6 -1 11 2 17 5 13 3 -3 4 -12 1 -19z m591 -41 c4 -18 -14 -22 -37 -8 -7
5 -10 14 -6 20 10 17 39 9 43 -12z m462 3 c0 -5 -5 -10 -11 -10 -5 0 -7 5 -4
10 3 6 8 10 11 10 2 0 4 -4 4 -10z m-822 -28 c2 -12 9 -22 17 -22 7 0 20 -13
29 -30 17 -35 -1 -43 -22 -10 -7 12 -17 18 -22 15 -11 -7 -16 2 -25 44 -5 26
-4 32 6 29 8 -3 15 -14 17 -26z m-178 8 c0 -5 -12 -10 -26 -10 -14 0 -23 4
-19 10 3 6 15 10 26 10 10 0 19 -4 19 -10z m100 -30 c0 -16 -4 -30 -10 -30 -5
0 -10 14 -10 30 0 17 5 30 10 30 6 0 10 -13 10 -30z m-60 -21 c0 -24 -4 -38
-10 -34 -17 10 -11 75 7 75 2 0 3 -18 3 -41z m-73 -28 c14 -23 5 -35 -14 -20
-14 12 -18 39 -5 39 4 0 13 -9 19 -19z m113 0 c0 -5 3 -18 6 -28 5 -16 4 -16
-10 1 -18 23 -20 36 -6 36 6 0 10 -4 10 -9z m62 -33 c-7 -7 -12 -8 -12 -2 0
14 12 26 19 19 2 -3 -1 -11 -7 -17z m718 -43 c0 -8 -4 -15 -9 -15 -13 0 -22
16 -14 24 11 11 23 6 23 -9z m-684 -6 c7 -12 -22 -46 -32 -37 -8 9 5 48 16 48
5 0 12 -5 16 -11z m74 -50 c0 -10 -4 -21 -10 -24 -5 -3 -10 1 -10 9 0 8 -9 20
-21 26 -16 9 -18 14 -8 26 10 13 14 12 30 -2 11 -10 19 -25 19 -35z m575 21
c37 -14 24 -27 -30 -28 -29 0 -45 4 -45 12 0 28 29 34 75 16z m-646 -95 c11
-44 23 -56 36 -35 10 17 20 12 38 -20 18 -29 18 -30 -2 -30 -12 0 -21 5 -21
11 0 6 -6 9 -14 6 -24 -10 -85 80 -71 104 12 19 23 8 34 -36z m701 -75 c8 -15
21 -20 50 -20 39 0 60 -13 40 -25 -6 -3 -27 -6 -48 -5 -20 0 -46 1 -57 1 -11
1 -31 -2 -44 -7 -18 -5 -23 -4 -19 7 3 8 18 18 34 24 39 12 39 12 24 30 -8 10
-9 15 -2 15 6 0 16 -9 22 -20z m-730 -30 c0 -11 -4 -20 -10 -20 -5 0 -10 9
-10 20 0 11 5 20 10 20 6 0 10 -9 10 -20z m70 -40 c0 -22 -18 -36 -30 -24 -11
12 7 57 20 49 5 -3 10 -15 10 -25z m545 -10 c-3 -5 -10 -10 -16 -10 -5 0 -9 5
-9 10 0 6 7 10 16 10 8 0 12 -4 9 -10z m-479 -35 c10 -24 0 -34 -20 -20 -10 8
-15 18 -11 24 9 16 25 14 31 -4z m-49 -57 c-3 -7 -5 -2 -5 12 0 14 2 19 5 13
2 -7 2 -19 0 -25z m156 -25 c-7 -18 -23 -5 -23 18 0 16 2 18 14 7 7 -7 11 -19
9 -25z m-103 7 c0 -5 -2 -10 -4 -10 -3 0 -8 5 -11 10 -3 6 -1 10 4 10 6 0 11
-4 11 -10z m-66 -46 c11 -28 6 -39 -9 -20 -8 11 -15 23 -15 28 0 14 18 9 24
-8z m88 -19 c6 -27 -6 -43 -17 -25 -5 8 -12 7 -22 -2 -14 -11 -15 -10 -8 12
16 54 39 61 47 15z m-12 -94 c0 -20 -13 -35 -23 -25 -7 8 4 44 14 44 5 0 9 -9
9 -19z m-68 -13 c-7 -7 -12 -8 -12 -2 0 14 12 26 19 19 2 -3 -1 -11 -7 -17z
m468 18 c0 -15 -14 -35 -21 -30 -15 9 -10 34 6 34 8 0 15 -2 15 -4z m-500 -43
c0 -20 -24 -11 -28 10 -2 12 1 15 12 11 9 -3 16 -13 16 -21z m-74 -34 c2 -48
23 -112 31 -91 6 14 33 16 33 2 0 -5 0 -13 0 -17 0 -5 -9 -9 -20 -9 -11 -1
-26 -6 -33 -13 -21 -16 -27 -3 -27 55 0 40 -4 55 -17 63 -15 8 -16 12 -3 35
19 37 35 27 36 -25z m790 -11 c4 -13 2 -24 -4 -26 -8 -2 -8 -11 -1 -29 12 -31
5 -41 -16 -23 -15 12 -21 80 -8 93 12 12 22 7 29 -15z m-86 -3 c0 -8 -4 -15
-10 -15 -5 0 -10 7 -10 15 0 8 5 15 10 15 6 0 10 -7 10 -15z m-568 -43 c-7 -2
-12 -12 -12 -23 0 -10 -4 -19 -10 -19 -15 0 -12 17 7 47 11 17 19 21 22 12 2
-7 -1 -15 -7 -17z m728 -20 c0 -13 -12 -22 -22 -16 -10 6 -1 24 13 24 5 0 9
-4 9 -8z m-945 -22 c3 -5 -1 -10 -9 -10 -9 0 -16 5 -16 10 0 6 4 10 9 10 6 0
13 -4 16 -10z m180 -71 c9 -17 14 -37 11 -45 -3 -7 2 -28 11 -46 31 -62 33
-68 33 -88 0 -11 7 -23 15 -26 21 -9 19 -47 -4 -61 -21 -13 -31 -1 -31 37 0 9
-6 23 -14 29 -12 10 -16 8 -21 -10 -7 -22 -8 -22 -20 7 -9 23 -9 36 2 61 19
47 17 66 -7 60 -30 -8 -35 12 -9 39 24 26 20 45 -6 24 -13 -10 -15 -9 -15 7 0
19 17 43 32 43 4 0 15 -14 23 -31z m965 11 c0 -5 -2 -10 -4 -10 -3 0 -8 5 -11
10 -3 6 -1 10 4 10 6 0 11 -4 11 -10z m-1067 -63 c3 -8 2 -19 -3 -26 -5 -9 -9
-4 -12 13 -5 27 6 36 15 13z m14 -107 c-5 -25 -4 -28 11 -23 15 6 15 5 3 -10
-13 -16 -15 -16 -26 -1 -13 19 -8 64 7 64 6 0 8 -12 5 -30z m190 -32 c-3 -8
-6 -5 -6 6 -1 11 2 17 5 13 3 -3 4 -12 1 -19z m-142 -75 c-4 -10 -10 -31 -13
-48 -5 -28 -31 -66 -33 -48 -6 45 17 113 38 113 11 0 13 -5 8 -17z m204 -30
c15 -53 15 -55 -21 -51 -60 6 -76 88 -17 88 24 0 30 -5 38 -37z"/>
<path d="M278 1913 c7 -3 16 -2 19 1 4 3 -2 6 -13 5 -11 0 -14 -3 -6 -6z"/>
<path d="M255 1890 c3 -5 8 -10 11 -10 2 0 4 5 4 10 0 6 -5 10 -11 10 -5 0 -7
-4 -4 -10z"/>
<path d="M255 1860 c3 -5 8 -10 11 -10 2 0 4 5 4 10 0 6 -5 10 -11 10 -5 0 -7
-4 -4 -10z"/>
<path d="M784 1775 c-17 -13 -16 -14 21 -8 22 3 51 10 65 14 20 6 16 7 -21 8
-25 1 -54 -5 -65 -14z"/>
<path d="M1138 1773 c-17 -4 -17 -6 -1 -21 15 -16 15 -17 0 -20 -36 -7 -14
-20 38 -24 44 -2 55 0 55 12 -1 43 -42 67 -92 53z"/>
<path d="M608 1761 c-65 -9 -68 -17 -8 -24 56 -7 76 -2 84 19 6 15 1 15 -76 5z"/>
<path d="M750 1748 c0 -11 46 -21 59 -13 20 12 11 20 -24 21 -19 0 -35 -3 -35
-8z"/>
<path d="M850 1720 c0 -5 15 -11 33 -15 17 -4 42 -13 54 -21 23 -14 57 -9 47
7 -3 5 -10 6 -16 3 -5 -4 -20 -2 -31 3 -44 20 -87 31 -87 23z"/>
<path d="M1230 1661 c0 -6 4 -13 10 -16 6 -3 7 1 4 9 -7 18 -14 21 -14 7z"/>
<path d="M510 1625 c7 -9 15 -13 17 -11 7 7 -7 26 -19 26 -6 0 -6 -6 2 -15z"/>
<path d="M405 1537 c-4 -10 -5 -21 -1 -24 10 -10 18 4 13 24 -4 17 -4 17 -12
0z"/>
<path d="M745 1109 c-4 -6 -5 -12 -2 -15 2 -3 7 2 10 11 7 17 1 20 -8 4z"/>
<path d="M543 1103 c-14 -5 -18 -33 -5 -33 10 0 32 22 32 32 0 9 -8 9 -27 1z"/>
<path d="M1333 1063 c4 -21 25 -129 48 -240 l42 -203 46 0 46 0 48 233 c26
127 47 236 47 240 0 5 -17 7 -37 5 l-37 -3 -31 -152 c-16 -83 -32 -154 -36
-157 -3 -3 -18 61 -33 142 -16 81 -31 153 -34 160 -2 6 -20 12 -39 12 -36 0
-36 0 -30 -37z"/>
<path d="M596 913 c-11 -11 -6 -23 9 -23 8 0 15 4 15 9 0 13 -16 22 -24 14z"/>
<path d="M567 883 c-4 -7 -14 -10 -22 -6 -9 3 -15 -1 -15 -11 0 -9 5 -16 10
-16 6 0 10 -5 10 -12 0 -6 -14 1 -31 18 -26 24 -30 25 -20 7 26 -51 87 -45 79
8 -2 16 -6 20 -11 12z"/>
<path d="M1580 755 c0 -24 5 -35 15 -35 13 0 15 -29 15 -205 l0 -205 40 0 40
0 0 91 c0 81 2 90 18 87 13 -2 19 -18 25 -68 14 -112 13 -110 53 -110 l36 0
-7 82 c-4 46 -11 94 -16 106 -6 14 -5 39 0 60 6 21 13 81 17 135 l7 97 -122 0
-121 0 0 -35z m159 -72 c-1 -70 -13 -118 -32 -121 -15 -3 -17 6 -17 77 0 80 0
81 25 81 22 0 25 -4 24 -37z"/>
<path d="M1235 620 c-3 -5 -1 -10 4 -10 6 0 11 5 11 10 0 6 -2 10 -4 10 -3 0
-8 -4 -11 -10z"/>
<path d="M1077 590 c3 -11 9 -20 15 -20 5 0 4 9 -2 20 -6 11 -12 20 -14 20 -2
0 -2 -9 1 -20z"/>
<path d="M1340 421 c0 -25 6 -27 13 -6 4 8 2 17 -3 20 -6 4 -10 -3 -10 -14z"/>
<path d="M586 355 c-6 -16 11 -20 32 -6 11 7 10 10 -3 15 -22 8 -22 8 -29 -9z"/>
<path d="M1490 246 c0 -3 14 -12 30 -21 17 -9 30 -13 30 -11 0 3 -13 12 -30
21 -16 9 -30 13 -30 11z"/>
<path d="M1461 222 c2 -5 21 -29 42 -52 29 -31 42 -39 50 -31 8 8 6 11 -7 11
-12 0 -16 5 -12 18 4 12 -4 23 -27 37 -44 27 -50 29 -46 17z"/>
<path d="M1878 89 c10 -14 10 -18 -3 -23 -15 -5 -15 -7 0 -22 21 -21 17 -24
-25 -15 -25 5 -36 13 -40 30 l-5 24 -35 -31 c-31 -28 -33 -37 -7 -33 4 0 7 -3
7 -9 0 -6 32 -10 75 -10 l75 0 0 28 c0 18 -10 37 -27 53 -15 13 -22 17 -15 8z"/>
<path d="M1740 75 c-7 -8 -8 -15 -2 -15 5 0 15 7 22 15 7 8 8 15 2 15 -5 0
-15 -7 -22 -15z"/>
<path d="M1660 20 c0 -16 7 -20 31 -20 24 0 30 3 25 16 -3 9 -6 18 -6 20 0 2
-11 4 -25 4 -18 0 -25 -5 -25 -20z"/>
</g>
</svg>
