<svg width="102" height="40" viewBox="0 0 102 40" fill="none" xmlns="http://www.w3.org/2000/svg">
<path d="M96.0746 0.556748C95.9156 0.329925 96.1385 -0.0246437 96.4128 0.0633698C96.6941 0.306287 96.7178 0.860017 97.1562 0.887176C97.7601 1.07226 98.0092 0.387259 98.2633 0C98.4506 0.083487 98.6801 0.230344 98.5744 0.484325C98.4667 0.865549 98.0062 1.05717 97.6383 1.05717C97.1068 1.07125 96.3363 1.13663 96.0746 0.556748Z" fill="#8B8D8E"/>
<path d="M8.02607 1.48485C8.98834 1.26758 9.95915 1.85551 10.3759 2.70799C10.5784 3.23181 10.6272 3.80254 10.5163 4.35308C10.4322 4.90631 10.0387 5.34638 9.628 5.69692C8.76891 6.42215 7.32652 6.20489 6.68938 5.29055C6.1242 4.57437 6.06179 3.54638 6.39496 2.71704C6.72461 2.10446 7.30086 1.54872 8.02507 1.48435L8.02607 1.48485ZM8.27318 1.682C8.0145 1.74537 7.73518 1.81125 7.52834 1.9903C7.03311 2.51586 6.94856 3.28686 6.99335 3.97437C6.98128 4.53062 7.1237 5.1095 7.50518 5.52945C7.98682 5.99516 8.80212 5.92023 9.29584 5.51587C9.66625 5.1789 9.77395 4.65032 9.78552 4.16951C9.76841 3.58963 9.80666 2.97907 9.54546 2.44143C9.32251 1.96867 8.8137 1.60857 8.27419 1.6815L8.27318 1.682Z" fill="#8B8D8E"/>
<path d="M14.036 2.15642C14.2524 1.91932 14.5192 1.73365 14.8167 1.61303C15.1143 1.4924 15.4351 1.4399 15.7557 1.45936C16.1633 1.47495 16.5438 1.63488 16.9379 1.72189C17.0267 1.60983 17.1259 1.50643 17.2343 1.41309C17.265 1.94066 17.2957 2.46925 17.2967 2.99783C17.113 2.6669 16.9756 2.29372 16.6928 2.03069C16.041 1.45684 14.8452 1.61225 14.4728 2.43807C14.127 3.24553 14.1012 4.15418 14.4009 4.97989C14.6988 5.69557 15.6047 5.90529 16.2997 5.76849C16.7834 5.62365 17.0546 5.18207 17.418 4.86824C17.3838 5.17503 17.1326 5.39129 16.9313 5.60202C16.2725 6.24175 15.1412 6.32273 14.4004 5.78056C13.814 5.41091 13.4441 4.73346 13.4255 4.04343C13.3495 3.36296 13.6162 2.68249 14.036 2.15642Z" fill="#8B8D8E"/>
<path d="M35.3835 1.45996L35.5344 1.46348C36.076 2.73741 36.5999 4.01839 37.1344 5.29533C37.2461 5.57798 37.467 5.82392 37.7765 5.8898L37.8087 5.98234C37.234 5.98989 36.6603 5.98989 36.086 5.98737C36.0896 5.95669 36.0961 5.89483 36.0991 5.86415C36.2566 5.82895 36.4187 5.78922 36.5752 5.74295C36.4647 5.32673 36.3154 4.92177 36.1293 4.53339C35.5521 4.52937 34.9748 4.52886 34.3981 4.53641C34.2632 4.87287 34.0895 5.19575 33.9954 5.5458C33.9169 5.81135 34.307 5.81788 34.4715 5.86818C34.4746 5.89735 34.4811 5.95619 34.4846 5.98586C34.0276 5.98855 33.5715 5.98855 33.1162 5.98586C33.1223 5.9587 33.1343 5.90439 33.1409 5.87723C33.313 5.80782 33.5062 5.73792 33.6084 5.57094C33.7594 5.33356 33.8354 5.05694 33.9486 4.79994C34.1625 4.30858 34.3819 3.81822 34.5717 3.31629C34.7977 2.67756 35.1157 2.07907 35.3835 1.45996ZM34.5329 4.26331C35.0362 4.28595 35.5435 4.27689 36.0498 4.27538C35.772 3.69349 35.5435 3.09098 35.3009 2.49399C34.9627 3.0432 34.7604 3.6608 34.5314 4.2613L34.5329 4.26331Z" fill="#8B8D8E"/>
<path d="M47.2826 1.98322C47.7057 1.61172 48.2591 1.42323 48.8211 1.45916C49.2238 1.4315 49.5665 1.689 49.9626 1.6895C50.0818 1.62563 50.1805 1.53058 50.2912 1.45312C50.3204 1.95958 50.3788 2.46352 50.4356 2.96696L50.2806 2.96796C50.1337 2.632 50.029 2.25128 49.7331 2.00887C49.188 1.57383 48.3274 1.57936 47.8131 2.05916C47.1402 2.87442 47.026 4.10912 47.5 5.04608C47.8272 5.70342 48.648 5.89252 49.3174 5.77031C49.8206 5.65162 50.0793 5.15924 50.498 4.89973C50.0954 5.98556 48.6767 6.44776 47.6752 5.92119C46.8433 5.50576 46.3943 4.55371 46.4764 3.64843C46.5365 3.01468 46.8227 2.42367 47.2826 1.98322Z" fill="#8B8D8E"/>
<path d="M0.0766602 1.53424C1.27898 1.57799 2.48282 1.55536 3.68615 1.56089C3.67575 1.90825 3.65897 2.25561 3.63582 2.60297C3.59808 2.58386 3.5558 2.62862 3.54473 2.55268C3.51353 2.34245 3.43955 2.04975 3.3102 1.92351C2.68262 1.72234 2.00823 1.8365 1.36052 1.81135C1.36052 2.81722 1.35448 3.82309 1.35699 4.82896C1.36505 5.10909 1.35699 5.39476 1.42745 5.66835C1.5427 5.80867 1.8804 5.83231 2.05806 5.86701C2.11291 5.87808 2.08775 5.93139 2.08775 5.98822C1.48382 6.00482 0.754069 5.99375 0.101321 5.98269C0.101321 5.95452 0.104844 5.8987 0.10585 5.87053C0.283003 5.82024 0.591511 5.88411 0.681094 5.66182C0.815468 4.9909 0.737964 4.29987 0.759605 3.62091C0.732931 3.04103 0.82956 2.44656 0.68512 1.87674C0.555275 1.6821 0.278977 1.70322 0.0766602 1.62527V1.53223V1.53424Z" fill="#8B8D8E"/>
<path d="M19.9076 1.52785C20.5115 1.5545 21.1154 1.56506 21.7194 1.54143C21.7249 1.56255 21.736 1.6058 21.742 1.62692C21.5575 1.68066 21.3788 1.7526 21.2085 1.84168C21.5493 2.74696 22.1114 3.54159 22.5855 4.37747C22.7335 4.03196 22.8925 3.69147 23.0223 3.33841C23.203 2.85408 23.4531 2.39038 23.5256 1.87185C23.3897 1.79038 23.2544 1.70941 23.1149 1.63497C23.1195 1.60983 23.129 1.56003 23.1336 1.53439C23.5865 1.54646 24.0395 1.56205 24.4884 1.5369C24.4919 1.55903 24.4985 1.60379 24.502 1.62592C24.2206 1.74763 23.9318 1.91309 23.8175 2.21687C23.5749 2.72433 23.3797 3.25392 23.1477 3.76691C22.8714 4.42072 22.6399 5.11578 22.199 5.68409C21.9846 5.9758 21.6298 6.17244 21.2594 6.11863C21.0787 6.09549 20.8874 5.97127 20.8522 5.78317C20.8708 5.66901 20.8698 5.57546 20.9851 5.52517C21.1577 5.49751 21.2156 5.59759 21.3112 5.63782C21.4692 5.70471 21.594 5.67906 21.8809 5.56188C22.0646 5.46129 22.1492 5.26012 22.2674 5.09918C21.9655 4.55199 21.6902 3.99273 21.3429 3.47269C21.0138 2.98334 20.8281 2.40848 20.4496 1.95081C20.2782 1.82075 20.0925 1.71072 19.896 1.6229L19.9081 1.52734L19.9076 1.52785Z" fill="#8B8D8E"/>
<path d="M26.948 1.59001C28.1835 1.5201 29.4226 1.59705 30.6581 1.53418C30.6541 1.55882 30.645 1.60811 30.6405 1.63477C30.4503 1.70568 30.1664 1.68053 30.0804 1.8968C29.9515 2.3942 30.0089 2.91574 29.9923 3.4237C30.0094 4.21281 29.9369 5.02052 30.1327 5.79353C30.3003 5.81616 30.4699 5.83779 30.6385 5.86092C30.6501 6.3538 30.6591 6.84818 30.6284 7.34055C30.4009 7.02471 30.339 6.60828 30.0487 6.33821C29.6868 6.00728 29.1508 5.99873 28.6898 5.97861C28.2545 5.99319 27.797 5.92832 27.3813 6.08775C26.8342 6.22203 26.4895 6.75413 26.3898 7.28121L26.2756 7.30082C26.2756 6.82807 26.2726 6.35531 26.2791 5.88305C26.6364 5.79403 26.9837 5.58632 27.1412 5.24231C27.6445 4.25606 27.7286 3.10585 27.6737 2.01951C27.6108 1.68556 27.1976 1.68456 26.9475 1.59151L26.948 1.59001ZM28.0914 1.8118C28.0079 2.5999 28.0013 3.39856 27.8302 4.17559C27.7296 4.73586 27.4608 5.24684 27.1694 5.73016C27.8941 5.73921 28.6199 5.74827 29.3436 5.69546C29.3456 4.4009 29.3456 3.10618 29.3436 1.8113C28.9258 1.81163 28.5085 1.8118 28.0914 1.8118Z" fill="#8B8D8E"/>
<path d="M42.2556 1.54395C42.7644 1.56054 43.309 1.77027 43.5556 2.24805C43.8148 2.7193 43.6859 3.36959 43.2662 3.70656C42.8072 4.11494 42.1358 4.01637 41.5752 3.94093C41.5706 4.43933 41.5576 4.93774 41.5706 5.43615C41.5742 5.55434 41.5928 5.68762 41.6819 5.77211C41.8369 5.82894 42.01 5.82995 42.1736 5.85811L42.1776 5.98586C41.5364 5.98887 40.8957 5.98887 40.2556 5.98586C40.2646 5.95467 40.2822 5.89181 40.2913 5.86062C40.4529 5.84956 40.622 5.84 40.786 5.83045C40.9627 4.49969 40.8268 3.14981 40.865 1.81151C40.6597 1.7245 40.4433 1.66566 40.2324 1.59524C40.9053 1.55501 41.5797 1.54495 42.2536 1.54495L42.2556 1.54395ZM41.5726 1.84671C41.5703 2.4784 41.5703 3.11025 41.5726 3.74227C41.8565 3.76691 42.1514 3.79256 42.4282 3.72014C43.0593 3.40782 43.0825 2.40597 42.552 1.98653C42.2782 1.76624 41.8993 1.85073 41.5737 1.84822L41.5726 1.84671Z" fill="#8B8D8E"/>
<path d="M66.2345 1.53125C67.387 1.57316 68.5405 1.57568 69.695 1.53879C69.7313 1.86419 69.7514 2.19261 69.766 2.51952L69.6407 2.50091C69.5496 2.24139 69.4459 1.87073 69.1243 1.84005C68.5989 1.78976 68.071 1.81038 67.5451 1.80988C67.5451 2.38171 67.5451 2.95355 67.5451 3.52589C68.0086 3.49772 68.4962 3.58724 68.9507 3.46805C69.152 3.32974 69.1782 3.05263 69.2914 2.84944C69.3055 3.39663 69.307 3.94399 69.2959 4.49152C69.1908 4.28431 69.1586 4.01222 68.9557 3.87341C68.5028 3.7346 68.0126 3.78792 67.5466 3.76528C67.5466 4.38439 67.5466 5.00351 67.5506 5.62262C67.5863 5.65883 67.6236 5.69554 67.6613 5.73175C68.1822 5.7227 68.7182 5.78607 69.2315 5.66637C69.6528 5.54466 69.7912 5.09253 70.0584 4.79429C69.9864 5.19663 69.8415 5.57735 69.7262 5.96662C68.5607 6.00133 67.3946 5.98523 66.2295 5.98222C66.2391 5.95707 66.2587 5.90678 66.2682 5.88163C66.4464 5.83134 66.6814 5.86051 66.8289 5.72119C66.922 5.54215 66.8606 5.32337 66.8938 5.13276C66.8968 4.20971 66.8968 3.28666 66.8938 2.36361C66.8762 2.17249 66.9094 1.93762 66.7801 1.77417C66.6256 1.66704 66.4222 1.67358 66.2466 1.63485C66.2441 1.6087 66.2396 1.5574 66.237 1.53427L66.2345 1.53125Z" fill="#8B8D8E"/>
<path d="M72.5952 1.58187C73.2495 1.50291 73.9037 1.57231 74.558 1.57785C74.3285 1.65379 73.9626 1.69503 73.9138 1.99377C73.8534 2.53443 73.8816 3.07961 73.8816 3.62227C74.5691 3.62227 75.2569 3.62227 75.945 3.62227C75.9365 3.07961 75.9792 2.53242 75.9198 1.99176C75.8897 1.69 75.5112 1.67994 75.2887 1.63166C75.2973 1.60802 75.3139 1.56075 75.322 1.53711C75.9661 1.55723 76.6108 1.5532 77.256 1.55974C77.0346 1.65681 76.8122 1.74784 76.5978 1.85848C76.63 3.13443 76.5318 4.41842 76.6436 5.68883C76.7749 5.84725 77.0376 5.81507 77.2294 5.87089C77.2294 5.89503 77.2334 5.94331 77.2349 5.96746C76.5862 5.9916 75.938 5.98958 75.2903 5.98556C75.2903 5.95388 75.2903 5.89051 75.2933 5.85882C75.4891 5.84221 75.6839 5.81433 75.8766 5.77533C75.95 5.13309 75.9506 4.48481 75.9314 3.83954C75.2525 3.82093 74.5726 3.81289 73.8962 3.83501C73.8826 4.47273 73.8418 5.118 73.942 5.7517C74.1612 5.7996 74.3771 5.86107 74.5887 5.93577C73.9344 6.00216 73.2802 5.99662 72.6259 5.98606C72.6259 5.95941 72.6299 5.9061 72.6314 5.87944C72.8422 5.85818 73.0479 5.80156 73.2399 5.71196C73.2223 4.42647 73.2314 3.14046 73.2334 1.85446C73.0279 1.74848 72.8148 1.6582 72.5957 1.58439L72.5952 1.58187Z" fill="#8B8D8E"/>
<path d="M79.7154 1.53125C80.3772 1.56444 81.0415 1.55539 81.7053 1.57199C81.4889 1.66503 81.1598 1.68012 81.0511 1.93058C81.0007 2.49286 81.0264 3.05816 81.0299 3.62195C81.701 3.62195 82.372 3.62195 83.043 3.62195C83.043 3.04106 83.0682 2.45916 83.0244 1.87978C82.8895 1.68314 82.6218 1.66402 82.4205 1.57802C83.0697 1.55941 83.7209 1.55388 84.3722 1.574C84.199 1.64089 84.0153 1.6776 83.8603 1.7802C83.6938 1.89889 83.725 2.14433 83.7053 2.31734C83.6802 3.23921 83.6958 4.1621 83.6938 5.08347C83.6993 5.30778 83.6802 5.59697 83.8644 5.76495C84.0153 5.82831 84.1839 5.82982 84.3455 5.8595L84.3535 5.98473C83.712 5.98875 83.071 5.98875 82.4305 5.98473C82.4396 5.95606 82.4582 5.89873 82.4678 5.87006C82.6419 5.84441 82.8261 5.81977 83.0028 5.78959C83.0531 5.13578 83.0445 4.48196 83.0435 3.82463C82.3725 3.82463 81.7015 3.82463 81.0304 3.82463C81.0385 4.43368 80.9836 5.05028 81.0611 5.6548C81.191 5.87308 81.5141 5.82228 81.7295 5.93745C81.0611 6.00032 80.3903 5.99579 79.7209 5.98473C79.7209 5.95606 79.7209 5.89822 79.7244 5.86956C79.894 5.83385 80.0979 5.85849 80.2574 5.76897C80.3933 5.67492 80.3253 5.46067 80.3671 5.33443C80.3923 4.41205 80.3731 3.48967 80.3782 2.5683C80.3535 2.32739 80.4048 2.06537 80.2987 1.83905C80.1477 1.69169 79.9187 1.68817 79.7325 1.63234L79.7144 1.53477L79.7154 1.53125Z" fill="#8B8D8E"/>
<path d="M90.566 1.58604C91.1966 1.51161 91.8378 1.56592 92.4729 1.53223C92.4824 1.55385 92.5006 1.59711 92.5096 1.61873C92.342 1.6811 92.107 1.63885 91.9746 1.78369C91.805 2.09702 91.874 2.47623 91.8478 2.81722C91.8679 3.79996 91.7809 4.79174 91.9298 5.76794C92.1387 5.81471 92.3551 5.84891 92.5549 5.9334C91.9007 6.0023 91.2399 5.99375 90.5831 5.98369L90.6254 5.88663C90.7763 5.84237 90.9676 5.84136 91.1075 5.74631C91.2474 5.65125 91.2137 5.42795 91.2389 5.28311C91.258 4.27724 91.258 3.27137 91.2389 2.2655C91.2293 2.093 91.2333 1.86316 91.0672 1.75151C90.9107 1.67305 90.7275 1.64136 90.564 1.58705L90.566 1.58604Z" fill="#8B8D8E"/>
<path d="M53.2558 1.56321C54.4788 1.55718 55.7017 1.55969 56.9247 1.56321C56.9227 1.91627 56.9213 2.26933 56.9206 2.62239L56.8119 2.6058C56.745 2.34377 56.661 2.02139 56.3972 1.89264C56.059 1.81166 55.7078 1.82021 55.3645 1.79607C55.3711 2.89247 55.3459 3.98836 55.368 5.08476C55.3625 5.32264 55.4123 5.5555 55.4556 5.78886C55.6234 5.80965 55.7926 5.82977 55.9634 5.84921L55.9674 5.98601C55.343 5.98601 54.7188 5.98501 54.0948 5.983C54.1048 5.95684 54.1244 5.90454 54.134 5.87788C54.3277 5.84617 54.519 5.80165 54.7067 5.7446C54.7067 4.42893 54.7067 3.11326 54.7067 1.79758C54.3705 1.8182 54.0188 1.78853 53.7002 1.90974C53.435 2.0415 53.3826 2.36539 53.285 2.61384L53.1597 2.58618C53.1994 2.2472 53.2457 1.90672 53.2558 1.56321Z" fill="#8B8D8E"/>
<path d="M59.4102 1.59105C60.1741 1.55082 60.9401 1.55182 61.7061 1.55434C62.1358 1.53127 62.5595 1.66336 62.8999 1.92651C63.2391 2.18401 63.3941 2.68091 63.226 3.07722C63.1213 3.38502 62.843 3.58318 62.5652 3.724C62.9145 3.81704 63.2698 4.03481 63.4132 4.37781C63.4887 4.67002 63.4973 5.00145 63.3629 5.27806C63.2034 5.73071 62.6865 5.91126 62.2557 5.96356C61.3161 6.01838 60.3744 5.97362 59.4348 5.97865L59.4726 5.87807C59.6356 5.83682 59.8354 5.86298 59.9869 5.76993C60.157 5.6095 60.0538 5.33238 60.0996 5.13071C60.1082 4.03632 60.0871 2.94143 60.1032 1.84705C59.8873 1.72634 59.6462 1.66348 59.4132 1.58904L59.4102 1.59105ZM60.7489 1.86214C60.7489 2.41737 60.7489 2.97278 60.7489 3.52836C61.2018 3.56205 61.6704 3.60279 62.1153 3.47806C62.6467 3.25476 62.7323 2.47219 62.3256 2.09449C61.8938 1.73037 61.2688 1.65291 60.7494 1.86063L60.7489 1.86214ZM60.7494 3.8608C60.7474 4.47035 60.7474 5.07974 60.7494 5.68896C61.2824 5.72165 61.8984 5.85292 62.3689 5.53808C62.9225 5.18251 62.7917 4.26264 62.2179 4.00966C61.762 3.76474 61.2406 3.81302 60.7479 3.85878L60.7494 3.8608Z" fill="#8B8D8E"/>
<path d="M86.8389 1.59165C87.5137 1.54596 88.1909 1.54378 88.866 1.58511C88.6798 1.66709 88.47 1.69072 88.2898 1.77974C88.1534 1.86474 88.1685 2.04278 88.1504 2.18209C88.1142 2.62216 88.1232 3.06424 88.1242 3.50581C88.8368 3.54906 89.7533 3.47664 90.238 4.12744C90.7 4.77773 90.2485 5.78209 89.483 5.92492C88.6144 6.04714 87.7312 5.96667 86.858 5.97522L86.9043 5.88318C87.0794 5.83289 87.3542 5.86256 87.4579 5.6644C87.5465 5.46675 87.5012 5.23842 87.5283 5.0297C87.5283 4.10732 87.5429 3.18444 87.5193 2.26357C87.5012 2.10967 87.5294 1.8748 87.3623 1.78326C87.1927 1.7043 87.0145 1.66105 86.8434 1.59114L86.8389 1.59165ZM88.1267 3.79802C88.1267 4.4458 88.1267 5.09391 88.1267 5.74236C88.4619 5.76952 88.8313 5.82182 89.1333 5.64177C89.6748 5.37773 89.8535 4.5328 89.394 4.11688C89.0472 3.81512 88.5661 3.76482 88.1257 3.80053L88.1267 3.79802Z" fill="#8B8D8E"/>
<path d="M94.9468 1.58229C95.6191 1.54809 96.2927 1.54809 96.965 1.58229C96.7964 1.66075 96.6097 1.70652 96.4446 1.78698C96.2936 1.88757 96.3092 2.11138 96.2936 2.26477C96.2549 3.13988 96.283 4.01649 96.2886 4.8926C96.9398 4.09696 97.582 3.29327 98.1904 2.46444C98.356 2.30249 98.424 1.98715 98.2408 1.81565C98.0898 1.66477 97.8512 1.66477 97.6595 1.59235C98.3165 1.55077 98.9754 1.54691 99.6328 1.58078C99.426 1.70953 99.0792 1.70953 99.0289 1.99419C98.964 2.66863 99.0037 3.34809 98.9932 4.02504C98.9987 4.61096 98.963 5.20291 99.0782 5.78179L99.5976 5.84415L99.6011 5.98548C98.962 5.98548 98.3233 5.98849 97.6857 5.98548C97.6857 5.95731 97.6907 5.89998 97.6922 5.87181C97.8694 5.80291 98.273 5.88589 98.3142 5.61532C98.3797 4.63057 98.3309 3.64231 98.3354 2.65656C97.7531 3.38682 97.1899 4.13166 96.6177 4.86947C96.4456 5.08221 96.2101 5.31557 96.2926 5.61934C96.4224 5.87081 96.7521 5.82051 96.977 5.93971C96.3057 6.00107 95.6318 5.99755 94.9604 5.98447L94.9992 5.88388C95.1763 5.83359 95.4129 5.86175 95.5598 5.72294C95.6529 5.5439 95.5905 5.32512 95.6253 5.13451C95.6197 4.09444 95.6404 3.05337 95.6192 2.01632C95.584 1.69746 95.1627 1.69947 94.9448 1.58732L94.9468 1.58229Z" fill="#8B8D8E"/>
<path d="M0.569353 8.10212C0.712786 8.1147 0.855213 8.1323 0.99764 8.15242C1.04797 8.66541 1.20197 9.18393 1.52809 9.59131C1.745 9.81512 2.05099 9.97253 2.36906 9.95946C2.76565 9.97555 3.19494 9.99969 3.54773 9.78494C4.39827 9.31269 5.37462 9.10246 6.34444 9.11503C7.09935 9.16533 7.87741 9.20556 8.57646 9.52794C8.86584 9.709 9.29665 9.99114 9.36761 10.0636C10.2116 10.7038 10.739 11.3813 11.1844 12.368C11.619 13.2609 11.8248 14.2477 11.7833 15.2398C11.7758 18.0899 11.7833 20.94 11.7833 23.7896C11.7718 25.4046 11.2499 27.0703 10.0858 28.23C9.85226 28.4538 9.60365 28.6631 9.39781 28.9135C11.0677 28.572 12.6912 28.0455 14.3299 27.5853C14.3742 22.4644 14.3299 17.3425 14.3515 12.2212C14.3963 11.517 14.193 10.7742 13.6973 10.2567C13.1668 9.73062 12.3767 9.6924 11.6776 9.64412C11.6726 9.53197 11.6681 9.42031 11.6661 9.30866C14.6067 9.2976 17.5473 9.30866 20.4885 9.30112C21.6148 9.28653 22.8071 9.50229 23.7291 10.1888C24.0646 10.4473 24.338 10.7776 24.5293 11.1554C24.8146 11.774 24.8705 12.4631 24.9445 13.1289C25.0144 14.8284 24.9208 16.5303 24.9948 18.2297C25.0582 19.0072 24.8302 19.825 24.3109 20.4165C23.8504 21.0285 23.1644 21.4077 22.4744 21.7055C22.1523 21.8463 21.7889 21.8146 21.4467 21.8312C20.4402 21.8312 19.4336 21.8227 18.4271 21.8287C18.4271 23.3219 18.424 24.8156 18.4271 26.3093C19.2534 26.1227 20.0667 25.8808 20.8971 25.7058C22.559 25.3875 24.2107 24.9967 25.8916 24.7623C26.3788 24.6587 26.8755 24.6149 27.3647 24.5244C27.4005 21.2453 27.3753 17.9657 27.3783 14.686C27.3219 13.6082 27.3647 12.5259 27.2852 11.4502C27.1022 10.8775 26.7216 10.3884 26.2112 10.0701C25.9158 9.8815 25.5529 9.85284 25.2173 9.78896C25.1966 9.66222 25.1755 9.53448 25.1589 9.40824C26.9707 9.40422 28.7825 9.40422 30.5942 9.40824C31.6994 13.146 32.7161 16.909 33.8489 20.6388C34.0502 19.8602 34.2279 19.0731 34.4961 18.3142C34.6013 18.0451 34.6028 17.7509 34.6884 17.4763C35.2626 15.3363 35.8026 13.1868 36.3643 11.0433C36.5294 10.4699 36.6758 9.89106 36.8087 9.30917C41.31 9.30917 45.8123 9.28905 50.3136 9.31922C50.3075 9.47664 50.2945 9.63406 50.2768 9.79098C49.6774 9.89961 49.0056 9.98109 48.5853 10.4765C48.2295 10.8818 48.1646 11.4421 48.1772 11.9606C48.1535 15.283 48.1721 18.6064 48.1671 21.9293C48.31 21.9253 48.4731 21.9293 48.6201 21.9293C49.0116 20.4119 49.2793 18.8649 49.6769 17.3496C49.7546 17.0904 49.8117 16.8256 49.8475 16.5574C50.375 14.1363 50.9547 11.7293 51.4963 9.30967C53.4757 9.30062 55.455 9.30715 57.4349 9.30564C57.4757 9.49518 57.5051 9.68697 57.523 9.87999C56.7882 9.96147 56.0262 10.1259 55.4173 10.5675C55.2756 10.6686 55.159 10.8007 55.0763 10.9538C54.9936 11.1069 54.947 11.2768 54.9402 11.4507C54.8612 12.6285 54.9372 13.8099 54.9039 14.9893C54.8169 17.2676 54.8743 19.5484 54.8592 21.8292C57.2094 21.7885 59.5567 21.8976 61.905 21.9851C61.905 17.9144 61.905 13.844 61.905 9.77388C61.4656 9.74571 61.0157 9.90011 60.7424 10.2567C60.1793 10.9563 59.8959 11.8279 59.6529 12.6803C59.1596 14.4522 58.905 16.2788 58.7183 18.105C58.5451 19.1536 58.5482 20.2198 58.4405 21.2735C58.2769 21.2699 58.1385 21.2735 57.9815 21.2735C57.9815 17.2835 57.9815 13.2936 57.9815 9.30363C61.9741 9.30363 65.9668 9.30363 69.9594 9.30363C69.9635 11.0639 69.9544 12.8242 69.9594 14.5844C70.0349 16.823 70.0158 19.0641 69.9916 21.3036C69.8407 21.3097 69.7007 21.3197 69.5538 21.3273C69.4743 19.7576 69.4249 18.1844 69.196 16.6269C69.0787 15.4098 68.8437 14.2103 68.5593 13.0218C68.3167 12.1276 68.0379 11.2198 67.5024 10.4533C67.2201 10.0007 66.7309 9.66725 66.1894 9.63205C66.1592 11.6347 66.2337 13.6389 66.1391 15.6401C66.128 17.9179 66.1391 20.1962 66.136 22.474C67.7898 22.5061 69.431 22.7219 71.0631 22.9769C71.7469 19.6354 72.3901 16.2857 72.9927 12.9278C73.117 12.3041 73.2186 11.6669 73.1653 11.0297C73.1235 10.5932 72.89 10.1455 72.4567 9.98561C71.8135 9.77388 71.12 9.80053 70.4602 9.91218C70.439 9.7437 70.4204 9.57471 70.4043 9.40623C72.5744 9.40321 74.7451 9.40623 76.9157 9.40623C77.7929 13.4559 78.6082 17.5206 79.4723 21.5737C79.6359 22.4669 79.883 23.3415 80.0315 24.2393C80.0732 24.3791 80.0612 24.5833 80.2283 24.6416C80.756 24.8478 81.2928 25.0334 81.8387 25.1984C81.8357 24.0089 81.8604 22.8185 81.7975 21.6305C81.7884 21.1135 81.73 20.596 81.7582 20.0785C81.8374 19.4938 82.0133 18.9263 82.2786 18.3992C82.5861 17.8359 83.0758 17.3626 83.6777 17.1253C84.6133 16.7526 85.6571 16.818 86.6329 16.9789C86.1196 16.6721 85.6913 16.1591 85.6349 15.5481C85.5227 14.4069 85.5157 13.2577 85.5051 12.1115C85.1981 12.5038 84.9555 12.9801 84.4845 13.2009C83.8483 13.4719 83.105 13.5217 82.4557 13.2683C81.8609 13.1018 81.3913 12.6391 81.111 12.103C80.9671 11.6559 80.7839 11.1574 81.0103 10.6993C81.0711 10.4729 81.1778 10.2615 81.3238 10.0781C81.4697 9.89466 81.6519 9.74319 81.8589 9.63305C82.4675 9.31871 83.1565 9.19414 83.8367 9.27547C84.345 9.39014 84.8554 9.55158 85.3038 9.82115C85.6279 10.1229 86.0084 10.4916 86.0084 10.9683C86.0768 12.4771 86.1443 13.9859 86.179 15.4947C86.2434 15.8317 86.41 16.1787 86.715 16.3613C87.0748 16.653 87.5328 16.7521 87.9732 16.8562C88.0562 14.8616 88.0668 12.8619 87.9862 10.8668C88.0028 10.5705 87.9077 10.2592 87.6958 10.048C87.2429 9.63104 86.5766 9.79299 86.021 9.70397C86.021 9.63054 86.021 9.48368 86.021 9.41025C88.8151 9.4178 91.6073 9.39165 94.404 9.42383C94.409 9.50179 94.4196 9.6572 94.4246 9.73515C93.9355 9.78293 93.4181 9.85837 93.0235 10.1762C92.3693 10.6228 92.2102 11.4869 92.2595 12.2257C92.3245 13.7883 92.3129 15.3524 92.3144 16.9165C92.8554 16.8401 93.4186 16.6922 93.8242 16.3015C94.1851 15.9735 94.3164 15.4666 94.3205 14.9938C94.3235 13.9704 94.3783 12.9479 94.3768 11.9259C94.3849 11.3606 94.3929 10.7501 94.7352 10.2713C95.1494 9.53901 96.0437 9.23926 96.8424 9.26139C97.5027 9.27094 98.2319 9.28201 98.7986 9.67128C98.9959 9.82668 99.2395 9.95493 99.3421 10.1973C99.4594 10.4755 99.5852 10.7506 99.6985 11.0307C99.855 11.4155 99.5908 11.8012 99.404 12.1231C98.8746 13.0429 97.7296 13.5454 96.6919 13.3301C96.2706 13.2371 95.8434 13.0912 95.5213 12.794C95.2832 12.6029 95.1217 12.3414 94.948 12.0954C94.9027 13.2225 95.0769 14.3586 94.9128 15.4787C94.7618 16.0238 94.3361 16.4257 93.9566 16.8215C94.5333 16.8828 95.102 17.0096 95.6863 16.995C96.2067 16.9814 96.7598 17.0518 97.1997 17.3526C97.8706 17.7866 98.3069 18.5053 98.4961 19.2698C98.8464 20.3697 98.7291 21.5435 98.7458 22.6832C98.7105 24.358 98.8595 26.0312 98.7694 27.706C98.7553 28.2396 98.9335 28.8165 99.3764 29.1464C99.8837 29.5522 100.545 29.59 101.155 29.7308C101.184 29.8626 101.178 29.9823 101.218 30.1191C100.312 30.113 99.4111 30.1693 98.5102 30.2468C97.6184 30.3539 96.7422 30.0984 95.8932 29.8545C94.8685 29.4788 93.8595 29.0569 92.8257 28.7063C92.95 28.9905 93.1277 29.2726 93.408 29.425C93.7507 29.6528 94.175 29.679 94.5656 29.7841C94.5656 29.9122 94.5672 30.0409 94.5706 30.1704C91.719 30.285 88.864 30.203 86.0114 30.2267C85.9943 30.0758 86.023 29.941 86.0194 29.7942C86.5559 29.6398 87.1126 29.418 87.4679 28.9663C87.8493 28.4835 87.9817 27.8644 88.0391 27.2654C87.4075 27.0245 86.7613 26.8128 86.0924 26.7061C85.9455 27.9559 85.4195 29.3068 84.2459 29.9249C83.4366 30.3987 82.4779 30.274 81.5846 30.277C79.1407 30.1764 76.6932 30.2528 74.2478 30.2267C74.2252 30.0637 74.2161 29.9083 74.193 29.7479C74.74 29.6825 75.3394 29.6332 75.7687 29.245C76.193 28.8678 76.2398 28.2341 76.1557 27.709C75.9801 26.5739 75.7798 25.4408 75.6947 24.2936C74.2956 24.0552 72.8764 23.945 71.4818 23.686C71.2302 25.0882 70.974 26.4899 70.7269 27.8936C70.6947 28.1385 70.6469 28.3895 70.6806 28.6364C70.7295 28.8301 70.8233 29.0096 70.9545 29.1604C71.0856 29.3112 71.2504 29.4291 71.4355 29.5045C72.0042 29.7273 72.6308 29.678 73.2287 29.7333C73.2287 29.8641 73.2287 29.9958 73.2287 30.1276C71.7189 30.1372 70.209 30.1105 68.6992 30.1402C67.057 30.2267 65.4118 30.1402 63.7671 30.194C62.1063 30.2644 60.4455 30.2146 58.7847 30.2282C58.7847 30.1055 58.7847 29.86 58.7847 29.7373C59.518 29.6765 60.2845 29.7207 60.984 29.4622C61.4687 29.1866 61.8305 28.6575 61.8733 28.0947C61.9709 27.032 61.9448 25.9643 61.9669 24.8996C62.0132 24.1115 62.0087 23.3224 62.0047 22.5358C60.2759 22.572 58.5492 22.4629 56.8209 22.4855C56.149 22.489 55.4787 22.4478 54.8078 22.4312C54.7731 23.9903 54.8924 25.5494 54.8546 27.113C54.8546 27.7035 54.8139 28.4076 55.2764 28.8572C55.7344 29.4431 56.5346 29.5331 57.221 29.5955C57.221 29.7896 57.222 29.9844 57.224 30.1799C55.1264 30.1799 53.0294 30.1799 50.9331 30.1799C49.9235 30.1623 48.915 30.1115 47.9054 30.1296C47.9054 29.9687 47.921 29.8168 47.9275 29.6584C48.6724 29.6916 49.4414 29.4637 49.9658 28.914C50.2473 28.5969 50.4472 28.2159 50.5481 27.8041C50.6805 26.0377 50.5984 24.2654 50.6326 22.4956C50.1294 22.487 49.6331 22.4725 49.1349 22.4372C48.7741 24.0969 48.3558 25.7405 47.993 27.3987C47.7756 28.2904 47.5999 29.1927 47.3659 30.0798C42.6321 30.0802 37.8998 30.079 33.169 30.0763C33.169 29.9566 33.169 29.7177 33.169 29.598C33.8263 29.5633 34.5706 29.5477 35.093 29.0855C35.5928 28.7129 35.7649 28.0565 35.777 27.4616C35.8041 26.2012 35.777 24.9403 35.7845 23.68C35.095 23.6865 34.4096 23.7479 33.7211 23.7997C33.1026 25.8361 32.559 27.8956 31.9752 29.9425C31.7281 29.3169 31.5988 28.654 31.403 28.0123C31.0477 26.8329 30.7211 25.6455 30.3718 24.4651C29.5248 24.5958 28.6858 24.7804 27.8313 24.8579C27.8247 25.9085 27.8313 26.9606 27.9068 28.0087C27.947 28.5072 28.2153 29.0071 28.6919 29.2158C29.402 29.5824 30.2289 29.4024 30.9888 29.4401C30.9818 29.6528 30.9702 29.8651 30.9556 30.0778C28.707 30.0795 26.4587 30.079 24.2107 30.0763V29.5774C24.9394 29.5271 25.7935 29.7549 26.4191 29.2631C27.0663 28.8507 27.3033 28.0394 27.2681 27.3107C27.2404 26.5834 27.2178 25.8562 27.2263 25.1289C26.2277 25.2129 25.2343 25.3504 24.2505 25.5408C23.5871 25.736 22.8916 25.8009 22.2404 26.0388C20.9646 26.3782 19.6853 26.7056 18.3969 26.9913C18.3712 27.626 18.333 28.3432 18.7995 28.8436C19.3662 29.4813 20.2741 29.5326 21.0642 29.598C21.0768 29.7172 21.103 29.9551 21.1146 30.0743C18.002 30.0797 14.8892 30.0797 11.7763 30.0743C11.7763 29.8731 11.7763 29.6755 11.7763 29.4768C12.5216 29.4099 13.4517 29.6277 14.0063 28.9849C14.2811 28.7511 14.2982 28.3759 14.3641 28.047C13.3218 28.3075 12.3052 28.6646 11.2559 28.902C10.4305 29.1368 9.60717 29.3818 8.79992 29.6735C7.96448 30.0074 7.06714 30.1186 6.18741 30.277C5.46874 30.375 4.67759 30.3997 3.95891 30.2584C3.54472 30.0572 3.32579 29.9636 3.14511 29.8686C2.30917 29.3013 1.68562 28.9336 1.08571 28.0917C0.411324 27.1186 0.0192728 25.9341 0.0534955 24.7452C0.0570184 23.9546 -0.0033745 23.165 0.000148426 22.3749C0.162203 22.3779 0.325264 22.387 0.487822 22.3945C0.509463 23.2455 0.531607 24.0964 0.561803 24.9474C0.557777 25.2839 0.65189 25.6082 0.732414 25.9326C0.967946 26.7489 1.26387 27.5893 1.87082 28.2099C2.31013 28.7094 2.90045 29.0522 3.55226 29.1861C4.39173 29.3476 5.32681 29.3591 6.08223 28.9075C6.70679 28.5836 7.0606 27.9328 7.27952 27.2911C7.57243 26.4411 7.49341 25.5268 7.50398 24.6441C7.48435 22.304 7.53216 19.9628 7.48133 17.6232C7.30569 17.9249 7.2297 18.2684 7.07368 18.5787C6.74001 19.301 6.17584 19.9367 5.44861 20.2782C4.63682 20.5457 3.76565 20.424 2.9277 20.4793C2.51753 20.511 2.11692 20.7781 1.96091 21.1623C1.84214 21.5249 1.79332 21.9092 1.64938 22.2652C1.41184 21.1487 1.22512 19.9306 1.6831 18.8453C1.98507 18.0441 2.74451 17.5231 3.5266 17.2505C4.33184 16.9523 5.20099 17.0081 6.04297 16.9915C6.66301 16.9653 7.29663 16.5509 7.42245 15.9192C7.5845 15.0139 7.46976 14.088 7.50499 13.1752C7.48637 12.2956 7.54122 11.3264 7.07016 10.5398C6.80795 10.052 6.25385 9.84077 5.7551 9.68888C5.13406 9.51084 4.45313 9.64814 3.92066 10.0027C3.41185 10.2984 3.03641 10.7596 2.60661 11.1519C2.26942 11.4612 2.11541 11.9003 1.96141 12.3177C1.44606 13.82 1.05552 15.3856 0.990594 16.9759L0.59502 17.0005C0.518019 15.7935 0.568346 14.5865 0.556267 13.3764C0.564823 11.6161 0.537143 9.85837 0.568346 8.09961L0.569353 8.10212ZM40.3658 10.7636C40.1353 11.1776 39.9929 11.6458 40.0135 12.1216C40.0176 15.5586 40.0135 18.9957 40.0176 22.4317C41.4388 22.2637 42.8752 22.2421 44.2914 22.0269C44.2914 18.8252 44.3004 15.6235 44.2884 12.4208C44.2818 11.5658 44.0493 10.6002 43.3014 10.0932C42.3749 9.40875 40.9431 9.80808 40.3658 10.7636ZM18.5237 9.91771C18.5282 12.447 18.4185 14.9742 18.419 17.5035C18.3793 18.7407 18.347 19.9784 18.3883 21.2161C18.9459 21.2161 19.5217 21.2664 20.0632 21.101C20.4694 20.9742 20.7175 20.5341 20.6848 20.1197C20.6958 17.1856 20.6782 14.251 20.6923 11.3184C20.6596 10.9603 20.7753 10.5072 20.4497 10.2486C19.9465 9.7266 19.1598 9.89106 18.5237 9.91973V9.91771ZM73.6681 12.4092C73.1477 15.1457 72.656 17.8877 72.1361 20.6242C73.1079 20.6242 74.0802 20.6242 75.0551 20.6212C75.0048 20.1127 74.894 19.6153 74.8035 19.1124C74.4632 16.8718 74.0274 14.6473 73.6681 12.4103V12.4092ZM27.9068 15.4711C27.8564 18.4173 27.8937 21.3645 27.8881 24.3107C28.6888 24.1598 29.4911 24.0215 30.2862 23.8465C29.9516 22.8406 29.7628 21.793 29.3778 20.8057C29.2772 20.4647 29.2535 20.1051 29.1388 19.7672C28.7261 18.3358 28.3154 16.9038 27.9068 15.4711ZM34.8409 19.3241C34.4862 20.6116 34.1303 21.8989 33.7729 23.1861C34.4403 23.1167 35.1081 23.0518 35.7729 22.9608C35.7971 20.5673 35.788 18.1729 35.777 15.7789C35.4247 16.9502 35.1464 18.1427 34.8404 19.3246L34.8409 19.3241ZM50.2406 17.6604C49.9386 19.0686 49.5702 20.4632 49.306 21.8795C49.7444 21.8795 50.1832 21.875 50.6226 21.8629C50.6377 19.9517 50.6528 18.0371 50.612 16.1254C50.452 16.6284 50.378 17.1519 50.2406 17.6604ZM86.8051 17.7403C86.2369 18.1216 85.9998 18.8579 86.0144 19.5142C86.0121 21.6936 86.0131 23.873 86.0174 26.0523C86.7165 26.2364 87.4206 26.4044 88.1246 26.5734C88.1322 23.5442 88.1246 20.5145 88.1246 17.4849C87.6717 17.3802 87.1885 17.4954 86.8025 17.7424L86.8051 17.7403ZM92.3038 17.4909C92.3038 18.3962 92.2877 19.2984 92.327 20.2017C92.3944 21.7995 92.3144 23.3999 92.3733 24.9987C92.4236 25.9608 92.3874 26.9244 92.4236 27.887C93.3476 28.2285 94.2475 28.6354 95.177 28.9653C94.9551 28.4599 94.5228 28.0188 94.4805 27.448C94.396 26.9717 94.3144 26.4924 94.3179 26.0071C94.3074 23.8269 94.3275 21.6466 94.3144 19.4689C94.321 18.9187 94.1851 18.3358 93.8036 17.9209C93.4105 17.5266 92.8272 17.4859 92.3048 17.4934L92.3038 17.4909ZM71.9484 21.6109C71.8412 22.0792 71.7924 22.5585 71.7143 23.0317C72.9725 23.2364 74.2307 23.4547 75.497 23.6025C75.3867 22.8663 75.274 22.13 75.2383 21.3856C74.2634 21.4213 73.2946 21.3011 72.3228 21.285C72.0505 21.1341 71.9826 21.452 71.9484 21.6119V21.6109ZM48.158 22.3814C48.1741 22.6887 48.1918 22.9965 48.229 23.3028C48.3609 22.9965 48.4726 22.6817 48.614 22.3789C48.463 22.3789 48.3 22.3759 48.158 22.3789V22.3814ZM40.0135 23.0423C40.0135 24.3643 40.012 25.6865 40.009 27.0089C40.0256 27.3947 39.9793 27.8086 40.1655 28.1657C40.3714 28.6183 40.6421 29.1298 41.1434 29.3118C41.7613 29.5831 42.4598 29.6074 43.0951 29.3797C43.541 29.2223 43.9003 28.8637 44.1117 28.4448C44.3014 27.9756 44.2863 27.455 44.2934 26.9591C44.2894 25.5313 44.2934 24.1035 44.2889 22.6756C42.8636 22.7953 41.4398 22.9367 40.011 23.0433L40.0135 23.0423ZM66.131 23.0282C66.2151 24.3036 66.1677 25.5826 66.1813 26.86C66.1854 27.2773 66.2464 27.692 66.3625 28.0927C66.4532 28.4129 66.6175 28.7074 66.8423 28.9528C67.0672 29.1982 67.3463 29.3876 67.6574 29.506C68.3036 29.7072 69.1265 29.7258 69.6343 29.2042C70.1839 28.5655 70.2307 27.6894 70.3892 26.9013C70.5362 25.7888 70.8276 24.702 70.9614 23.5875C69.8895 23.3244 68.7843 23.2238 67.6866 23.1464C67.1688 23.0921 66.6514 23.0212 66.13 23.0292L66.131 23.0282ZM80.3344 25.3301C80.6253 26.6106 80.8548 27.9046 81.1271 29.1891C81.2313 29.4029 81.5237 29.3782 81.7129 29.4305C81.9595 28.2456 81.7864 27.0235 81.8267 25.823C81.3324 25.6505 80.8422 25.4654 80.337 25.3281L80.3344 25.3301Z" fill="#8B8D8E"/>
<path d="M5.23734 32.4589C5.72602 32.4353 6.20161 32.3211 6.68274 32.2441C6.32089 33.5598 5.91676 34.8634 5.5388 36.1741C6.07227 35.6153 6.39738 34.8116 7.13972 34.4842C7.35965 34.3786 7.66161 34.3836 7.83776 34.5677C8.00938 34.7427 7.97113 35.0269 7.98874 35.2487C7.87953 36.1917 7.60374 37.1387 7.0446 37.9172C6.81913 38.2406 6.46482 38.5208 6.04509 38.4735C5.80251 38.4121 5.50961 38.2854 5.44468 38.0158C5.42556 37.798 5.62888 37.5903 5.84026 37.5722C6.04157 37.6301 6.15229 37.8473 6.34857 37.9198C6.39333 37.9192 6.43742 37.9087 6.47763 37.8891C6.51784 37.8694 6.55318 37.8411 6.58108 37.8061C6.88305 37.4083 6.99377 36.9124 7.12512 36.4416C7.26956 35.9493 7.30026 35.4333 7.31335 34.9238C7.20407 34.9118 7.09351 34.9217 6.9881 34.9529C6.88269 34.9841 6.78453 35.0359 6.69935 35.1053C6.22275 35.4991 5.92229 36.0559 5.59617 36.5704C5.26904 37.0507 5.17241 37.6296 4.97714 38.1667C4.77382 38.1667 4.57066 38.1677 4.36768 38.1697C4.66461 36.9204 5.04458 35.6923 5.43714 34.4706C5.56396 33.8767 5.81862 33.3058 5.81459 32.6892C5.62284 32.6671 5.4311 32.646 5.23885 32.6274V32.4569L5.23734 32.4589Z" fill="#8B8D8E"/>
<path d="M16.5547 32.4837C16.7703 32.4273 16.9922 32.3984 17.215 32.3977C17.6554 32.4239 18.0419 32.6643 18.4732 32.7367C18.6438 32.6864 18.7349 32.5194 18.8386 32.3887L18.9755 32.4214C18.8859 32.8237 18.743 33.2155 18.6997 33.6284C18.6605 33.7929 18.6353 34.0443 18.5845 34.2933C18.5563 34.4336 18.4154 34.3592 18.4154 34.3592C18.3721 33.983 18.4586 33.5379 18.211 33.2074C17.7853 32.5903 16.672 32.5285 16.3011 33.2331C16.2422 33.4941 16.2075 33.8054 16.3615 34.0448C16.7893 34.7414 17.5049 35.1935 17.9835 35.8494C18.3862 36.5681 18.1557 37.6599 17.368 38.021C16.827 38.3831 16.1335 38.3459 15.5422 38.1397C15.3217 38.0688 15.1023 37.9803 14.8653 37.9888C14.672 38.0185 14.5824 38.18 14.4994 38.3268C14.4686 38.3195 14.4373 38.3143 14.4058 38.3112C14.4682 37.958 14.5492 37.6083 14.6483 37.2636C14.7263 36.9774 14.8703 36.1119 14.8703 36.1119L14.9845 36.131C15.0082 36.6284 14.9704 37.1645 15.2996 37.5764C15.7576 38.0899 16.7002 38.1709 17.1667 37.6267C17.3892 37.332 17.4843 36.9277 17.364 36.5706C16.9805 35.697 16.0922 35.2011 15.6262 34.3848C15.2427 33.6249 15.7983 32.7111 16.5573 32.4837H16.5547Z" fill="#8B8D8E"/>
<path d="M0.713047 32.4945C2.14101 32.4888 3.56897 32.4888 4.99693 32.4945C4.81021 32.8818 4.70452 33.601 4.60639 34.1099C4.60639 34.1099 4.52888 34.1009 4.42269 34.0923C4.39249 33.8036 4.45289 33.5099 4.40155 33.2243C4.38841 33.1481 4.35098 33.0782 4.29484 33.025C4.2387 32.9718 4.16686 32.9381 4.09002 32.929C3.75434 32.8843 3.41463 32.8928 3.07743 32.8873C2.81825 33.8182 2.53088 34.7406 2.27823 35.6731C2.07692 36.345 1.83233 37.0159 1.76993 37.719C1.8424 38.0529 2.26213 38.0011 2.52484 38.0419C2.51679 38.0705 2.50169 38.1269 2.49363 38.1555C1.68034 38.1817 0.866042 38.1757 0.0522461 38.1711C0.0552657 38.142 0.0602985 38.0836 0.0628148 38.0539C0.305897 37.9845 0.610378 38.0082 0.800616 37.8161C0.901198 37.6851 0.975222 37.5358 1.01853 37.3765C1.28225 36.4385 1.53993 35.4985 1.83938 34.5716C2.08799 34.0355 2.16701 33.443 2.33762 32.8813C1.87763 32.9185 1.35271 32.8345 0.963678 33.1438C0.653157 33.3093 0.616418 33.7403 0.495128 34.032C0.416114 34.0536 0.326531 34.036 0.247013 34.0581C0.441781 33.5471 0.534887 33.0095 0.713047 32.4945Z" fill="#8B8D8E"/>
<path d="M34.8015 32.5075C35.5514 32.4829 36.3023 32.4864 37.0527 32.493C37.0406 32.5433 37.0285 32.5961 37.0169 32.6484C36.794 32.7112 36.5288 32.7334 36.3627 32.9174C36.1166 33.2122 36.0748 33.6029 35.9404 33.95C35.8066 34.3086 35.7321 34.6842 35.6339 35.0529C36.4925 35.0574 37.3506 35.0529 38.2097 35.0574C38.4004 34.3578 38.6858 33.6733 38.7492 32.9451C38.6823 32.6599 38.3214 32.7173 38.095 32.666C38.1025 32.6122 38.1111 32.5583 38.1201 32.5055C38.8881 32.4799 39.6566 32.4844 40.4256 32.4935C40.4115 32.5412 40.3974 32.59 40.3839 32.6383C40.1196 32.7087 39.784 32.752 39.6289 33.011C39.4669 33.2881 39.4135 33.6095 39.3204 33.9127C39.0064 34.9739 38.6737 36.0301 38.3692 37.0943C38.333 37.3458 38.1574 37.6762 38.3632 37.899C38.5293 37.9785 38.722 37.9996 38.9012 38.0448C38.8947 38.072 38.8826 38.1273 38.876 38.1545C38.1458 38.1796 37.4165 38.1746 36.6853 38.1721C36.6853 38.1364 36.6903 38.065 36.6918 38.0287C36.8806 37.9976 37.0693 37.9654 37.259 37.9347C37.724 37.1486 37.873 36.2298 38.1146 35.3602C37.2573 35.3525 36.4004 35.3525 35.5439 35.3602C35.3667 35.7293 35.2655 36.1251 35.1795 36.524C35.0416 36.9766 34.9107 37.4378 34.953 37.9141C35.1427 37.9538 35.3325 37.9971 35.5232 38.0348C35.5262 38.0685 35.5318 38.1354 35.5348 38.1696C34.7844 38.1696 34.0345 38.1837 33.2852 38.158L33.2912 38.0574C33.5886 37.9644 33.9988 37.9473 34.106 37.6018C34.3108 36.9877 34.4865 36.364 34.6561 35.7409C34.7522 35.3199 34.9852 34.9412 35.0446 34.5117C35.111 33.9671 35.4351 33.4737 35.3637 32.9099C35.2967 32.6554 34.9752 32.7158 34.7733 32.6655C34.7809 32.6117 34.7889 32.5583 34.798 32.5055L34.8015 32.5075Z" fill="#8B8D8E"/>
<path d="M73.339 32.4906C73.8121 32.4906 74.2861 32.4875 74.7607 32.5001C74.962 34.0089 75.0587 35.5378 75.3143 37.0421C75.6042 36.6282 75.878 36.2022 76.1905 35.8039C76.7441 35.0958 77.2036 34.3147 77.801 33.6413C78.0773 33.2721 78.3043 32.8673 78.5745 32.4946C79.0139 32.4906 79.4548 32.4916 79.8966 32.5031C79.9042 32.5564 79.9133 32.6103 79.9228 32.6646C79.6133 32.7269 79.1679 32.7058 79.0763 33.0976C78.725 34.0134 78.5141 34.9771 78.2122 35.9105C78.0446 36.518 77.802 37.1281 77.8166 37.7683C77.9012 38.0198 78.2519 37.9695 78.4538 38.0575C78.4578 38.0857 78.4653 38.143 78.4694 38.1717C77.6782 38.1777 76.8879 38.1777 76.0984 38.1717C76.0984 38.1425 76.1035 38.0852 76.105 38.0565C76.3526 38.0208 76.6626 38.0218 76.8282 37.796C77.0899 37.4626 77.1377 37.0215 77.2726 36.6322C77.5338 35.6424 77.8377 34.6642 78.0919 33.673C77.4799 34.4007 77.0013 35.227 76.4165 35.9759C75.8991 36.7021 75.3777 37.4263 74.882 38.1672C74.8181 38.1672 74.7547 38.1712 74.6928 38.1742C74.495 36.677 74.3737 35.1702 74.1648 33.675C73.8412 34.788 73.4789 35.8879 73.1769 37.0089C73.1266 37.2699 72.9927 37.5486 73.0818 37.8176C73.1986 38.0098 73.4799 37.9791 73.6777 38.0455C73.657 38.0852 73.6374 38.1259 73.6193 38.1672C72.9993 38.1752 72.3807 38.1752 71.7622 38.1707L71.803 38.0641C72.0118 38.0098 72.2514 38.0057 72.4371 37.881C72.555 37.7605 72.6493 37.6191 72.7154 37.4641C73.0234 36.4582 73.2756 35.4377 73.6143 34.4429C73.8367 33.9536 73.8684 33.4064 73.9983 32.8909C73.7648 32.7996 73.5254 32.7244 73.2816 32.6661C73.3002 32.6077 73.3193 32.5494 73.34 32.4921L73.339 32.4906Z" fill="#8B8D8E"/>
<path d="M54.6825 32.7691C54.9009 32.7138 55.1384 32.8752 55.2416 32.9637C55.2275 33.18 55.1913 33.4496 54.9769 33.5673C54.7383 33.6739 54.4233 33.5305 54.3795 33.2655C54.2974 33.0457 54.4801 32.8335 54.6814 32.7686L54.6825 32.7691Z" fill="#8B8D8E"/>
<path d="M20.264 33.9265C20.4568 33.7178 20.566 33.4236 20.8357 33.2988C20.7557 33.7012 20.6344 34.0975 20.5338 34.4958C20.7512 34.4958 20.9711 34.5008 21.188 34.5034C21.1612 34.5778 21.1352 34.6527 21.11 34.7282C20.8886 34.7387 20.6687 34.7508 20.4487 34.7619C20.1875 35.8105 19.7441 36.8168 19.5891 37.8906C20.0265 37.8403 20.2056 37.3796 20.5584 37.18C20.4467 37.6225 20.102 37.9922 19.6963 38.1858C19.495 38.2014 19.2182 38.3111 19.0516 38.1466C18.872 37.9097 18.9756 37.5934 19.0385 37.3344C19.2439 36.4663 19.6103 35.645 19.7431 34.7583L19.1724 34.7458C19.1764 34.7141 19.184 34.6502 19.1875 34.6185C19.5937 34.4767 19.9842 34.2579 20.2625 33.9245L20.264 33.9265Z" fill="#8B8D8E"/>
<path d="M26.774 34.047C26.999 33.8041 27.1319 33.451 27.4595 33.3223C27.3885 33.7186 27.2733 34.1053 27.1681 34.4936C27.3718 34.4966 27.5762 34.5003 27.7816 34.5047C27.7549 34.5791 27.7287 34.6555 27.7031 34.729C27.4952 34.739 27.2889 34.7506 27.0825 34.7617C26.8279 35.8103 26.3991 36.8061 26.2083 37.8678C26.611 37.8487 26.8525 37.4654 27.1102 37.2019L27.1988 37.3296C26.9416 37.6369 26.7192 38.0202 26.3382 38.1846C26.1283 38.2093 25.7232 38.3355 25.6361 38.0529C25.5969 37.2698 25.9149 36.53 26.1515 35.7987C26.2345 35.4537 26.306 35.1052 26.389 34.7602L25.8183 34.7491C25.8183 34.7134 25.8238 34.6425 25.8259 34.6068C26.1651 34.469 26.5309 34.3362 26.774 34.047Z" fill="#8B8D8E"/>
<path d="M56.6992 34.128C56.9377 33.8896 57.1254 33.607 57.3267 33.3369L57.4677 33.3761C57.3816 33.7528 57.2789 34.1255 57.1748 34.4982C57.3761 34.5002 57.5796 34.5029 57.7852 34.5062C57.7757 34.5802 57.7676 34.6546 57.7596 34.7295C57.5376 34.7426 57.3202 34.7577 57.1013 34.7738C56.8503 35.5882 56.6079 36.4053 56.374 37.2251C56.3053 37.4491 56.2632 37.6803 56.2487 37.9141C56.6513 37.8015 56.8803 37.4197 57.2049 37.1884C57.1043 37.6214 56.7319 37.9428 56.3841 38.1872C56.252 38.2298 56.1121 38.2429 55.9743 38.2255C55.8366 38.2081 55.7043 38.1607 55.5869 38.0866C55.6332 37.2729 55.9161 36.5009 56.1717 35.7354C56.2437 35.416 56.3227 35.0987 56.4073 34.7798C56.1818 34.7592 55.9593 34.7431 55.7369 34.723C56.0429 34.5007 56.4239 34.3916 56.6992 34.1245V34.128Z" fill="#8B8D8E"/>
<path d="M10.4793 34.5619C10.8341 34.4005 11.2316 34.3587 11.6122 34.4427C11.8316 34.5478 12.1633 34.6941 12.0813 35.007C12.1105 35.3419 11.9031 35.6361 11.6555 35.8368C11.0365 36.3322 10.2363 36.5479 9.45468 36.5847C9.49645 36.8738 9.3807 37.2339 9.61321 37.4708C9.81452 37.7811 10.2267 37.8445 10.5644 37.8133C11.0133 37.7127 11.3576 37.3989 11.739 37.165L11.7894 37.3159C11.3868 37.6624 10.963 38.0366 10.4391 38.185C10.0365 38.2142 9.5664 38.3389 9.21562 38.0708C8.65447 37.6886 8.63082 36.9181 8.83414 36.3322C9.0591 35.5235 9.71688 34.8777 10.4814 34.5604L10.4793 34.5619ZM10.4587 34.8365C9.98412 35.2277 9.61723 35.7654 9.49594 36.3739C10.0158 36.3166 10.5714 36.2195 10.9741 35.8554C11.1523 35.7308 11.2955 35.5625 11.3899 35.3666C11.4842 35.1707 11.5264 34.9538 11.5126 34.7369C11.1688 34.6353 10.7506 34.6031 10.4567 34.838L10.4587 34.8365Z" fill="#8B8D8E"/>
<path d="M22.1871 35.0955C22.5586 34.6981 23.0799 34.3562 23.6466 34.421C23.8676 34.4975 24.0196 34.6951 24.1776 34.8596C24.2249 34.7459 24.2732 34.6331 24.3225 34.5211C24.5364 34.497 24.7493 34.4588 24.9632 34.4346C24.6924 35.5873 24.2319 36.6898 24.0457 37.8626C24.3915 37.7851 24.618 37.503 24.8459 37.2591C24.85 37.7017 24.4046 37.9833 24.0739 38.1875C23.854 38.2192 23.47 38.3384 23.3874 38.0401C23.3442 37.7469 23.4967 37.4562 23.5108 37.164C23.1585 37.59 22.7699 38.022 22.2349 38.2086C21.9919 38.2136 21.6919 38.3092 21.4876 38.1281C21.1423 37.8425 21.1187 37.33 21.2032 36.9211C21.32 36.2225 21.7357 35.621 22.1861 35.0935L22.1871 35.0955ZM23.326 34.675C23.0915 34.7168 22.9053 34.8827 22.7443 35.0477C22.2505 35.6173 21.9416 36.3234 21.8585 37.0725C21.8681 37.3119 21.862 37.6393 22.1272 37.7394C22.4876 37.843 22.8192 37.6202 23.0578 37.3732C23.6688 36.7652 24.1102 35.9102 23.9894 35.0266C23.9053 34.7399 23.6245 34.5473 23.3271 34.677L23.326 34.675Z" fill="#8B8D8E"/>
<path d="M28.5926 35.3118C29.1074 34.6968 29.9273 34.2874 30.7411 34.4327C30.9666 34.5167 31.2534 34.652 31.2831 34.9246C31.3591 35.3118 31.042 35.6051 30.7929 35.8495C30.1955 36.363 29.3943 36.5536 28.6238 36.5873C28.6042 36.9695 28.5735 37.484 28.9907 37.6721C29.6595 38.081 30.3692 37.5418 30.9177 37.1737C30.9288 37.2094 30.9504 37.2808 30.961 37.3165C30.4824 37.7244 29.963 38.2097 29.2932 38.2218C29.0471 38.2148 28.7773 38.2786 28.5478 38.162C28.0551 37.9407 27.7768 37.3673 27.8583 36.8413C27.8991 36.2574 28.2489 35.7584 28.5926 35.3093V35.3118ZM29.5156 34.9236C29.0627 35.2817 28.811 35.8289 28.6656 36.3745C29.2192 36.3071 29.813 36.1869 30.2328 35.7881C30.5347 35.5492 30.6792 35.1685 30.6938 34.7908C30.3259 34.567 29.8276 34.6364 29.5156 34.9261V34.9236Z" fill="#8B8D8E"/>
<path d="M40.8348 35.1228C41.3099 34.731 41.8917 34.3684 42.5329 34.4071C42.849 34.3921 43.2224 34.546 43.3105 34.8764C43.4645 35.2888 43.1092 35.6177 42.8475 35.8762C42.2304 36.3666 41.4252 36.5537 40.6506 36.5803C40.6748 36.8569 40.6688 37.1501 40.777 37.4112C40.8919 37.571 41.0518 37.6929 41.2364 37.7614C41.421 37.83 41.6218 37.842 41.8132 37.7959C42.2662 37.6873 42.625 37.3588 43.0462 37.1728C42.852 37.5867 42.4086 37.8024 42.0432 38.0388C41.4967 38.2797 40.7639 38.3843 40.2817 37.9553C40.0613 37.7074 39.9692 37.3739 39.9375 37.05C39.9375 36.3158 40.3029 35.6152 40.8348 35.1218V35.1228ZM41.8605 34.7376C41.2536 35.0765 40.8877 35.7208 40.712 36.3756C41.3572 36.3188 42.0618 36.1488 42.4796 35.6086C42.6809 35.3788 42.8459 34.9805 42.618 34.7195C42.388 34.5967 42.0915 34.643 41.8605 34.7386V34.7376Z" fill="#8B8D8E"/>
<path d="M43.8547 34.6908C44.3398 34.5596 44.8426 34.5037 45.3398 34.4358C45.1541 35.0635 44.9634 35.6897 44.7862 36.3203C45.2392 35.6892 45.6106 34.9679 46.2598 34.5098C46.4108 34.4092 46.6826 34.3227 46.7958 34.5143C46.9971 34.81 46.7837 35.2124 46.5583 35.4171C46.3066 35.5177 46.1788 35.2159 46.1088 35.0283C45.7062 35.2023 45.4953 35.6258 45.2372 35.9567C44.7399 36.605 44.4697 37.3871 44.2734 38.1696C44.053 38.1696 43.8371 38.1721 43.6191 38.1726C43.75 37.6581 43.9714 37.1733 44.14 36.6734C44.2105 36.0412 44.5381 35.4523 44.517 34.8125C44.2955 34.7743 44.0711 34.7311 43.8522 34.6933L43.8547 34.6908Z" fill="#8B8D8E"/>
<path d="M47.1216 34.7575C47.5871 34.5392 48.109 34.5276 48.6042 34.4185C48.4407 34.9717 48.2811 35.525 48.1311 36.0782C48.5006 35.4802 48.8861 34.846 49.5247 34.498C49.797 34.3079 50.2635 34.3798 50.33 34.7525C50.416 35.272 50.1599 35.7659 50.0823 36.2708C50.493 35.5863 50.9122 34.8425 51.647 34.4572C51.872 34.336 52.2006 34.3924 52.3129 34.6348C52.4739 35.2207 52.1186 35.7468 52.0376 36.3105C51.9369 36.8135 51.7437 37.3003 51.6853 37.8138C51.9696 37.677 52.1886 37.4436 52.4009 37.2158L52.5303 37.2953C52.2042 37.7434 51.8056 38.358 51.1523 38.2187C51.0991 38.1818 51.0573 38.1307 51.0316 38.0712C51.006 38.0117 50.9976 37.9462 51.0074 37.8822C51.1523 37.1006 51.4185 36.3483 51.6143 35.5793C51.6639 35.3521 51.6885 35.1202 51.6878 34.8877C51.2308 34.9169 50.9329 35.3132 50.6702 35.6421C50.34 36.136 50.0089 36.642 49.8222 37.2103C49.7129 37.5261 49.6329 37.8515 49.5242 38.1659C49.3053 38.1659 49.0909 38.1694 48.8745 38.1709C48.9807 37.5523 49.2957 36.994 49.3898 36.3739C49.4794 35.8614 49.7678 35.3384 49.5952 34.8148C49.3653 34.9026 49.1598 35.044 48.9958 35.2272C48.5776 35.6844 48.1941 36.1924 47.9751 36.7773C47.7673 37.2234 47.6837 37.7137 47.5 38.1694C47.2897 38.1638 47.0838 38.1623 46.876 38.1553C47.1165 37.25 47.4522 36.3709 47.6712 35.4576C47.6827 35.2745 47.8699 35.0276 47.7059 34.8616C47.5438 34.7273 47.3143 34.7836 47.1221 34.755L47.1216 34.7575Z" fill="#8B8D8E"/>
<path d="M53.4035 34.6498C53.8877 34.5568 54.3829 34.5191 54.863 34.4014C54.6617 35.1236 54.4554 35.8428 54.2591 36.564C54.1539 36.9955 53.9219 37.4089 53.9909 37.8671C54.2812 37.7282 54.5228 37.5048 54.6839 37.2264L54.8298 37.2555C54.7146 37.6 54.4272 37.85 54.1564 38.0753C53.8842 38.2886 53.5128 38.2222 53.2158 38.0949C53.2816 37.5457 53.4193 37.0075 53.6255 36.4941C53.7568 35.967 53.9275 35.45 54.0588 34.9234C53.9999 34.8676 53.9426 34.8118 53.8857 34.7559C53.7201 34.7635 53.5626 34.7801 53.3995 34.7952C53.3995 34.7585 53.3995 34.685 53.4025 34.6483L53.4035 34.6498Z" fill="#8B8D8E"/>
<path d="M59.0331 34.9002C59.3904 34.6261 59.8076 34.3299 60.2872 34.4154C60.5469 34.4682 60.6994 34.699 60.8232 34.9123C60.8568 34.7862 60.8903 34.6606 60.9239 34.5356C61.1634 34.5004 61.401 34.4456 61.641 34.4103C61.4292 35.1436 61.1881 35.8689 60.9868 36.6047C60.8464 37.007 60.7291 37.4174 60.7135 37.8449C61.0195 37.7634 61.2228 37.5044 61.4181 37.2736L61.5605 37.3832C61.3376 37.6553 61.1312 37.9611 60.8232 38.1456C60.5912 38.2432 60.326 38.204 60.0829 38.2372C60.0326 37.869 60.0779 37.5019 60.1654 37.1438C59.8132 37.5411 59.481 38.0164 58.9536 38.1924C58.6853 38.2125 58.3622 38.3031 58.1277 38.1255C57.8207 37.8303 57.7377 37.3646 57.8177 36.9587C57.9822 36.1641 58.4357 35.4439 59.0316 34.9002H59.0331ZM60.014 34.6749C59.6083 34.7755 59.2953 35.1114 59.093 35.461C58.7769 35.9896 58.4835 36.5815 58.5343 37.2167C58.5202 37.4179 58.5701 37.6965 58.7996 37.7559C58.9455 37.7826 59.0959 37.7714 59.2363 37.7233C59.3767 37.6752 59.5024 37.5919 59.6013 37.4813C60.2455 36.8405 60.795 35.9428 60.6078 34.9973C60.5957 34.9339 60.5696 34.874 60.5315 34.8218C60.4934 34.7697 60.4442 34.7267 60.3874 34.6959C60.3307 34.665 60.2678 34.6471 60.2033 34.6435C60.1388 34.6399 60.0743 34.6506 60.0145 34.6749H60.014Z" fill="#8B8D8E"/>
<path d="M62.9857 34.8262C63.4799 34.4052 64.1855 34.3152 64.8031 34.449C65.2776 34.6954 65.8262 34.6502 66.3466 34.6622C66.3048 34.8071 66.262 34.9519 66.2223 35.0978C65.9923 35.0978 65.7693 35.1058 65.5403 35.1088C65.5851 35.4 65.646 35.7169 65.5107 35.9935C65.259 36.4713 64.801 36.8646 64.2464 36.9204C63.7935 36.9757 63.3154 37.1005 63.0064 37.4601C63.5821 37.8493 64.3093 37.8202 64.941 38.0636C65.5826 38.3045 65.559 39.2932 64.9978 39.601C64.6455 39.7796 64.2736 39.9672 63.868 39.9767C63.2313 40.0155 62.5172 40.0527 61.9646 39.675C61.8477 39.6011 61.7572 39.492 61.7062 39.3635C61.6552 39.235 61.6463 39.0937 61.6807 38.9598C61.8428 38.5373 62.2565 38.306 62.637 38.1093C62.5866 37.9409 62.4965 37.7633 62.5262 37.5873C62.6772 37.28 63.0124 37.1347 63.3063 36.9943C62.8493 36.8289 62.3752 36.4487 62.415 35.911C62.3813 35.4709 62.6727 35.0983 62.9867 34.8282L62.9857 34.8262ZM64.0401 34.627C63.5051 34.7538 63.2424 35.313 63.1644 35.8099C63.0975 36.1368 63.1694 36.5809 63.5202 36.7152C63.8483 36.9073 64.2162 36.6508 64.4794 36.4683C64.7764 36.077 64.9425 35.5404 64.8257 35.0545C64.7809 34.6849 64.3531 34.5677 64.0411 34.624L64.0401 34.627ZM62.881 38.1948C62.3652 38.304 61.9938 39.0785 62.4085 39.4778C62.8161 39.7796 63.3717 39.7323 63.8493 39.7046C64.1941 39.672 64.5786 39.592 64.8146 39.3149C64.9777 39.1228 64.9445 38.7566 64.6943 38.6565C64.2067 38.4795 63.6943 38.39 63.1971 38.2456C63.0909 38.224 62.9862 38.1878 62.879 38.1989L62.881 38.1948Z" fill="#8B8D8E"/>
<path d="M67.5932 34.9045C67.9888 34.5842 68.492 34.3785 69.0074 34.4142C69.3094 34.4021 69.6617 34.5389 69.7794 34.8386C69.9234 35.2455 69.639 35.6076 69.3572 35.8626C68.7417 36.3479 67.9435 36.5451 67.1725 36.5853C67.1725 36.8911 67.1116 37.2391 67.3204 37.4982C67.6224 37.8281 68.1538 37.9357 68.5514 37.722C68.8846 37.5872 69.1604 37.3498 69.4684 37.1687L69.5127 37.3166C69.0935 37.6712 68.6632 38.0559 68.1171 38.1947C67.6783 38.2405 67.1725 38.3209 66.8046 38.0116C66.489 37.6817 66.3285 37.207 66.4211 36.7518C66.5751 36.0251 66.9747 35.3335 67.5932 34.905V34.9045ZM68.2439 34.7974C67.6878 35.1495 67.3551 35.756 67.1871 36.3781C67.9722 36.3414 68.8544 36.0044 69.1745 35.2274C69.2309 35.0373 69.2213 34.732 68.9863 34.6717C68.7306 34.635 68.4573 34.6495 68.2414 34.7944L68.2439 34.7974Z" fill="#8B8D8E"/>
<path d="M80.4005 34.4315C80.6214 34.3128 80.866 34.5075 80.9037 34.7227C80.9304 35.1075 80.7613 35.4631 80.6521 35.8232C80.5082 36.4594 80.2631 37.0725 80.17 37.7197C80.8363 37.8359 81.2027 37.1665 81.5394 36.7194C82.0532 36.0746 82.3018 35.2765 82.5359 34.4999C82.7425 34.4999 82.9511 34.5016 83.1614 34.505C82.941 35.3454 82.6949 36.1787 82.4443 37.0106C82.361 37.2869 82.308 37.5713 82.2862 37.859C82.5978 37.7851 82.7895 37.5241 82.9606 37.2731L83.099 37.3073C82.9122 37.6787 82.6231 37.989 82.2656 38.2015C82.0794 38.1865 81.796 38.3288 81.6697 38.1367C81.5801 38.0326 81.5927 37.8887 81.6194 37.7655C81.7296 37.2842 81.8761 36.8124 82.016 36.3392C81.5565 36.9341 81.2198 37.6493 80.5791 38.0778C80.335 38.276 80.0034 38.199 79.715 38.2367C79.637 38.0753 79.5288 37.9144 79.5318 37.7293C79.6526 36.7375 80.1242 35.8181 80.1911 34.8168C79.9007 34.8847 79.721 35.1261 79.5499 35.3499L79.4146 35.3162C79.6586 34.9501 79.9531 34.5487 80.3985 34.4315H80.4005Z" fill="#8B8D8E"/>
<path d="M84.2053 35.4523C84.1474 34.9177 84.629 34.4107 85.1615 34.4057C85.4353 34.371 85.6774 34.5143 85.9391 34.5566C86.1555 34.6069 86.3367 34.4691 86.5244 34.3906C86.4418 34.8136 86.3533 35.2356 86.2662 35.6575C86.2093 35.6575 86.153 35.6575 86.0986 35.6575C86.0357 35.3844 86.0624 35.0414 85.8278 34.8433C85.5687 34.5687 85.1489 34.6637 84.8213 34.7397C84.8213 34.9665 84.7383 35.232 84.8802 35.4367C85.2325 35.9306 85.7654 36.337 85.926 36.9455C86.1177 37.4595 85.7005 37.9197 85.2883 38.1526C84.6572 38.4041 83.9738 37.9781 83.3462 38.2275C83.4126 37.797 83.4896 37.3685 83.5717 36.941C83.625 36.932 83.6794 36.9229 83.7352 36.9149C83.8077 37.2941 83.8359 37.797 84.2355 37.9901C84.5666 38.0279 85.1273 38.1621 85.2612 37.7256C85.4469 37.3353 85.1927 36.9591 84.9592 36.6649C84.6628 36.2937 84.2586 35.9578 84.2078 35.4538L84.2053 35.4523Z" fill="#8B8D8E"/>
<path d="M88.1711 34.8971C88.4048 34.708 88.6746 34.5686 88.9641 34.4874C89.2536 34.4062 89.5566 34.3849 89.8546 34.4249C90.1832 34.4817 90.4691 34.7965 90.377 35.1471C90.3428 35.4991 90.0584 35.7602 89.7942 35.9694C89.1903 36.3647 88.4736 36.5593 87.7554 36.5885C87.7675 36.766 87.7922 37.1206 87.8058 37.2981C87.9371 37.7141 88.4283 37.8755 88.8264 37.8146C89.2859 37.6879 89.682 37.4123 90.0921 37.1744C89.9074 37.5768 89.4927 37.8006 89.1329 38.0198C88.7655 38.2713 88.2964 38.2296 87.8747 38.221C87.3538 38.1556 87.0045 37.6205 87.0196 37.1176C86.9482 36.2314 87.4791 35.4036 88.1736 34.8966L88.1711 34.8971ZM88.6241 34.9469C88.1641 35.3025 87.9275 35.8381 87.7745 36.3818C88.4665 36.3134 89.2577 36.0951 89.6402 35.4589C89.8541 35.2512 89.761 34.956 89.7494 34.697C89.3573 34.6472 88.9084 34.6311 88.6216 34.9454L88.6241 34.9469Z" fill="#8B8D8E"/>
<path d="M91.7276 34.438C91.94 34.3304 92.1116 34.5089 92.2943 34.5793C92.2747 35.1657 92.0195 35.6973 91.8947 36.2611C91.7719 36.7278 91.6461 37.1946 91.4966 37.6537C91.6859 37.6784 91.8993 37.7639 92.0709 37.6361C92.5741 37.262 92.9128 36.7163 93.239 36.1927C93.5364 35.6611 93.6975 35.0682 93.9139 34.5024C94.1227 34.5024 94.3401 34.5024 94.554 34.4993C94.2465 35.3926 94.0206 36.3099 93.7558 37.2152C93.6896 37.4252 93.653 37.6434 93.6471 37.8635C93.9808 37.7483 94.1504 37.4194 94.4116 37.2011C94.4408 37.5833 94.09 37.8242 93.8394 38.0501C93.6381 38.2346 93.3437 38.2065 93.0996 38.2578C93.0442 38.1134 92.9581 37.9656 92.9888 37.8051C93.0684 37.3459 93.2294 36.9059 93.3099 36.4472C92.8832 36.9934 92.5606 37.6457 91.9727 38.0445C91.7125 38.2286 91.3371 38.3101 91.0447 38.1738C90.8092 37.947 90.9033 37.5582 90.9571 37.2745C91.1584 36.4794 91.476 35.7059 91.5459 34.8821L91.3899 34.8383C91.2178 35.0083 91.0472 35.1783 90.8867 35.3609L90.7412 35.3141C90.9928 34.962 91.2893 34.5677 91.7256 34.437L91.7276 34.438Z" fill="#8B8D8E"/>
<path d="M95.1952 34.679C95.6663 34.5784 96.1474 34.5281 96.618 34.4215C96.4811 34.9953 96.2813 35.5515 96.1323 36.1219C96.5385 35.5355 96.8731 34.8454 97.5415 34.5054C97.7428 34.4265 98.005 34.3546 98.2003 34.4899C98.3432 34.5703 98.4615 34.7207 98.3865 34.9053C98.3865 35.3806 98.1821 35.8191 98.0901 36.2788C98.4886 35.6929 98.8334 35.0516 99.3925 34.5965C99.584 34.4636 99.8139 34.3975 100.047 34.4084C100.165 34.4376 100.267 34.5101 100.334 34.6114C100.4 34.7127 100.426 34.8354 100.407 34.9551C100.431 35.373 100.21 35.7442 100.13 36.143C100.004 36.6907 99.8389 37.2273 99.6945 37.77C100.054 37.7589 100.238 37.4039 100.455 37.1665C100.475 37.2334 100.565 37.3058 100.513 37.3777C100.306 37.6668 100.059 37.9257 99.7806 38.1467C99.5652 38.2533 99.3105 38.2025 99.0805 38.1935C99.0644 37.9279 99.0533 37.6593 99.1343 37.4023C99.2954 36.9105 99.3986 36.403 99.545 35.9071C99.6562 35.5697 99.6844 35.2146 99.7111 34.863C99.4408 34.948 99.1731 35.0763 98.9879 35.2956C98.2833 36.1259 97.8445 37.1343 97.5193 38.1623C97.3039 38.1623 97.0961 38.1693 96.8857 38.1728C97.0292 37.5059 97.3477 36.8899 97.4454 36.2114C97.5068 35.7648 97.8802 35.2634 97.6114 34.8198C97.1394 35.021 96.7886 35.4183 96.5078 35.8342C96.0397 36.5383 95.7715 37.3515 95.5606 38.1648C95.3371 38.1648 95.1217 38.1673 94.9033 38.1678C95.1937 37.0523 95.6245 35.9725 95.7941 34.8268C95.5956 34.7915 95.3944 34.7732 95.1927 34.772C95.1927 34.7479 95.1927 34.6991 95.1957 34.6749L95.1952 34.679Z" fill="#8B8D8E"/>
</svg>
